<mxfile host="app.diagrams.net" modified="2020-03-27T11:19:06.981Z" agent="Mozilla/5.0 (Macintosh; Intel Mac OS X 10_15_3) AppleWebKit/537.36 (KHTML, like Gecko) Chrome/80.0.3987.122 Safari/537.36" etag="TkM91XUQk2CvzpXum5uS" version="12.8.8" type="github" pages="13">
  <diagram id="ZRDspelD08M2EZhi7KNj" name="第 1 页">
    <mxGraphModel dx="1426" dy="794" grid="0" gridSize="10" guides="1" tooltips="1" connect="1" arrows="1" fold="1" page="1" pageScale="1" pageWidth="1920" pageHeight="1200" math="0" shadow="0">
      <root>
        <mxCell id="0" />
        <mxCell id="1" parent="0" />
        <mxCell id="Zw1K-CFGC-PBikJDm--D-1" value="" style="rounded=1;whiteSpace=wrap;html=1;shadow=1;dashed=1;strokeColor=#82b366;fontSize=16;fillColor=#d5e8d4;gradientDirection=north;gradientColor=#ffffff;" parent="1" vertex="1">
          <mxGeometry x="136.5" y="263" width="153" height="459" as="geometry" />
        </mxCell>
        <mxCell id="Zw1K-CFGC-PBikJDm--D-2" value="&lt;font style=&quot;font-size: 18px&quot;&gt;容器初始化&lt;/font&gt;" style="rounded=1;whiteSpace=wrap;html=1;" parent="1" vertex="1">
          <mxGeometry x="153" y="282.5" width="120" height="40" as="geometry" />
        </mxCell>
        <mxCell id="Zw1K-CFGC-PBikJDm--D-3" value="" style="endArrow=none;dashed=1;html=1;entryX=0.5;entryY=1;entryDx=0;entryDy=0;" parent="1" source="Zw1K-CFGC-PBikJDm--D-16" target="Zw1K-CFGC-PBikJDm--D-2" edge="1">
          <mxGeometry width="50" height="50" relative="1" as="geometry">
            <mxPoint x="213" y="702.5" as="sourcePoint" />
            <mxPoint x="233" y="352.5" as="targetPoint" />
          </mxGeometry>
        </mxCell>
        <mxCell id="Zw1K-CFGC-PBikJDm--D-4" value="&lt;span style=&quot;font-size: 18px&quot;&gt;加载页面JS&lt;/span&gt;" style="rounded=1;whiteSpace=wrap;html=1;" parent="1" vertex="1">
          <mxGeometry x="303" y="282.5" width="120" height="40" as="geometry" />
        </mxCell>
        <mxCell id="Zw1K-CFGC-PBikJDm--D-5" value="" style="endArrow=none;dashed=1;html=1;entryX=0.5;entryY=1;entryDx=0;entryDy=0;" parent="1" source="Zw1K-CFGC-PBikJDm--D-18" target="Zw1K-CFGC-PBikJDm--D-4" edge="1">
          <mxGeometry width="50" height="50" relative="1" as="geometry">
            <mxPoint x="363" y="702.5" as="sourcePoint" />
            <mxPoint x="383" y="352.5" as="targetPoint" />
          </mxGeometry>
        </mxCell>
        <mxCell id="Zw1K-CFGC-PBikJDm--D-6" value="&lt;span style=&quot;font-size: 18px&quot;&gt;加载模块JS&lt;/span&gt;" style="rounded=1;whiteSpace=wrap;html=1;" parent="1" vertex="1">
          <mxGeometry x="453" y="282.5" width="120" height="40" as="geometry" />
        </mxCell>
        <mxCell id="Zw1K-CFGC-PBikJDm--D-7" value="" style="endArrow=none;dashed=1;html=1;entryX=0.5;entryY=1;entryDx=0;entryDy=0;" parent="1" source="Zw1K-CFGC-PBikJDm--D-20" target="Zw1K-CFGC-PBikJDm--D-6" edge="1">
          <mxGeometry width="50" height="50" relative="1" as="geometry">
            <mxPoint x="513" y="702.5" as="sourcePoint" />
            <mxPoint x="533" y="352.5" as="targetPoint" />
          </mxGeometry>
        </mxCell>
        <mxCell id="Zw1K-CFGC-PBikJDm--D-8" value="&lt;span style=&quot;font-size: 18px&quot;&gt;白板获取请求参数&lt;/span&gt;" style="rounded=1;whiteSpace=wrap;html=1;" parent="1" vertex="1">
          <mxGeometry x="628" y="282.5" width="120" height="40" as="geometry" />
        </mxCell>
        <mxCell id="Zw1K-CFGC-PBikJDm--D-9" value="" style="endArrow=none;dashed=1;html=1;entryX=0.5;entryY=1;entryDx=0;entryDy=0;" parent="1" target="Zw1K-CFGC-PBikJDm--D-8" edge="1">
          <mxGeometry width="50" height="50" relative="1" as="geometry">
            <mxPoint x="688" y="432.5" as="sourcePoint" />
            <mxPoint x="708" y="352.5" as="targetPoint" />
          </mxGeometry>
        </mxCell>
        <mxCell id="Zw1K-CFGC-PBikJDm--D-10" value="&lt;span style=&quot;font-size: 18px&quot;&gt;模块mapi请求&lt;/span&gt;" style="rounded=1;whiteSpace=wrap;html=1;" parent="1" vertex="1">
          <mxGeometry x="778" y="282.5" width="120" height="40" as="geometry" />
        </mxCell>
        <mxCell id="Zw1K-CFGC-PBikJDm--D-11" value="" style="endArrow=none;dashed=1;html=1;entryX=0.5;entryY=1;entryDx=0;entryDy=0;" parent="1" target="Zw1K-CFGC-PBikJDm--D-10" edge="1">
          <mxGeometry width="50" height="50" relative="1" as="geometry">
            <mxPoint x="838" y="702.5" as="sourcePoint" />
            <mxPoint x="858" y="352.5" as="targetPoint" />
          </mxGeometry>
        </mxCell>
        <mxCell id="Zw1K-CFGC-PBikJDm--D-12" value="&lt;span style=&quot;font-size: 18px&quot;&gt;Picasso模型预计算&lt;/span&gt;" style="rounded=1;whiteSpace=wrap;html=1;" parent="1" vertex="1">
          <mxGeometry x="928" y="282.5" width="120" height="40" as="geometry" />
        </mxCell>
        <mxCell id="Zw1K-CFGC-PBikJDm--D-13" value="" style="endArrow=none;dashed=1;html=1;entryX=0.5;entryY=1;entryDx=0;entryDy=0;" parent="1" target="Zw1K-CFGC-PBikJDm--D-12" edge="1">
          <mxGeometry width="50" height="50" relative="1" as="geometry">
            <mxPoint x="988" y="552.5" as="sourcePoint" />
            <mxPoint x="1008" y="352.5" as="targetPoint" />
          </mxGeometry>
        </mxCell>
        <mxCell id="Zw1K-CFGC-PBikJDm--D-14" value="&lt;span style=&quot;font-size: 18px&quot;&gt;Native渲染&lt;/span&gt;" style="rounded=1;whiteSpace=wrap;html=1;" parent="1" vertex="1">
          <mxGeometry x="1077" y="282.5" width="120" height="40" as="geometry" />
        </mxCell>
        <mxCell id="Zw1K-CFGC-PBikJDm--D-15" value="" style="endArrow=none;dashed=1;html=1;entryX=0.5;entryY=1;entryDx=0;entryDy=0;" parent="1" target="Zw1K-CFGC-PBikJDm--D-14" edge="1">
          <mxGeometry width="50" height="50" relative="1" as="geometry">
            <mxPoint x="1137" y="592.5" as="sourcePoint" />
            <mxPoint x="1157" y="352.5" as="targetPoint" />
          </mxGeometry>
        </mxCell>
        <mxCell id="ZloZHauyBX7HKi503AZX-2" style="edgeStyle=orthogonalEdgeStyle;orthogonalLoop=1;jettySize=auto;html=1;exitX=0.5;exitY=1;exitDx=0;exitDy=0;entryX=0.5;entryY=0;entryDx=0;entryDy=0;curved=1;" parent="1" source="Zw1K-CFGC-PBikJDm--D-16" target="ZloZHauyBX7HKi503AZX-1" edge="1">
          <mxGeometry relative="1" as="geometry" />
        </mxCell>
        <mxCell id="Zw1K-CFGC-PBikJDm--D-16" value="" style="rounded=1;whiteSpace=wrap;html=1;" parent="1" vertex="1">
          <mxGeometry x="193" y="332.5" width="40" height="30" as="geometry" />
        </mxCell>
        <mxCell id="Zw1K-CFGC-PBikJDm--D-17" value="" style="endArrow=none;dashed=1;html=1;entryX=0.5;entryY=1;entryDx=0;entryDy=0;" parent="1" target="Zw1K-CFGC-PBikJDm--D-16" edge="1">
          <mxGeometry width="50" height="50" relative="1" as="geometry">
            <mxPoint x="213" y="702.5" as="sourcePoint" />
            <mxPoint x="213" y="322.5" as="targetPoint" />
          </mxGeometry>
        </mxCell>
        <mxCell id="Zw1K-CFGC-PBikJDm--D-18" value="" style="rounded=1;whiteSpace=wrap;html=1;" parent="1" vertex="1">
          <mxGeometry x="343" y="362.5" width="40" height="80" as="geometry" />
        </mxCell>
        <mxCell id="Zw1K-CFGC-PBikJDm--D-19" value="" style="endArrow=none;dashed=1;html=1;entryX=0.5;entryY=1;entryDx=0;entryDy=0;" parent="1" target="Zw1K-CFGC-PBikJDm--D-18" edge="1">
          <mxGeometry width="50" height="50" relative="1" as="geometry">
            <mxPoint x="363" y="702.5" as="sourcePoint" />
            <mxPoint x="363" y="322.5" as="targetPoint" />
          </mxGeometry>
        </mxCell>
        <mxCell id="Zw1K-CFGC-PBikJDm--D-20" value="" style="rounded=1;whiteSpace=wrap;html=1;" parent="1" vertex="1">
          <mxGeometry x="493" y="402.5" width="40" height="90" as="geometry" />
        </mxCell>
        <mxCell id="Zw1K-CFGC-PBikJDm--D-21" value="" style="endArrow=none;dashed=1;html=1;entryX=0.5;entryY=1;entryDx=0;entryDy=0;" parent="1" target="Zw1K-CFGC-PBikJDm--D-20" edge="1">
          <mxGeometry width="50" height="50" relative="1" as="geometry">
            <mxPoint x="513" y="702.5" as="sourcePoint" />
            <mxPoint x="513" y="322.5" as="targetPoint" />
          </mxGeometry>
        </mxCell>
        <mxCell id="Zw1K-CFGC-PBikJDm--D-22" value="" style="endArrow=none;dashed=1;html=1;entryX=0.5;entryY=1;entryDx=0;entryDy=0;" parent="1" edge="1">
          <mxGeometry width="50" height="50" relative="1" as="geometry">
            <mxPoint x="988" y="702.5" as="sourcePoint" />
            <mxPoint x="988" y="612.5" as="targetPoint" />
          </mxGeometry>
        </mxCell>
        <mxCell id="Zw1K-CFGC-PBikJDm--D-23" value="" style="endArrow=none;dashed=1;html=1;entryX=0.5;entryY=1;entryDx=0;entryDy=0;" parent="1" edge="1">
          <mxGeometry width="50" height="50" relative="1" as="geometry">
            <mxPoint x="1137" y="702.5" as="sourcePoint" />
            <mxPoint x="1137" y="652.5" as="targetPoint" />
          </mxGeometry>
        </mxCell>
        <mxCell id="Zw1K-CFGC-PBikJDm--D-24" value="" style="endArrow=none;dashed=1;html=1;entryX=0.5;entryY=1;entryDx=0;entryDy=0;" parent="1" edge="1">
          <mxGeometry width="50" height="50" relative="1" as="geometry">
            <mxPoint x="688" y="702.5" as="sourcePoint" />
            <mxPoint x="688" y="522.5" as="targetPoint" />
          </mxGeometry>
        </mxCell>
        <mxCell id="Zw1K-CFGC-PBikJDm--D-25" value="" style="rounded=1;whiteSpace=wrap;html=1;" parent="1" vertex="1">
          <mxGeometry x="668" y="442.5" width="40" height="90" as="geometry" />
        </mxCell>
        <mxCell id="Zw1K-CFGC-PBikJDm--D-26" value="" style="rounded=1;whiteSpace=wrap;html=1;" parent="1" vertex="1">
          <mxGeometry x="818" y="492.5" width="40" height="90" as="geometry" />
        </mxCell>
        <mxCell id="Zw1K-CFGC-PBikJDm--D-27" value="" style="rounded=1;whiteSpace=wrap;html=1;" parent="1" vertex="1">
          <mxGeometry x="968" y="532.5" width="40" height="90" as="geometry" />
        </mxCell>
        <mxCell id="Zw1K-CFGC-PBikJDm--D-28" value="" style="rounded=1;whiteSpace=wrap;html=1;" parent="1" vertex="1">
          <mxGeometry x="1117" y="582.5" width="40" height="90" as="geometry" />
        </mxCell>
        <mxCell id="Zw1K-CFGC-PBikJDm--D-29" value="" style="endArrow=classic;html=1;entryX=0;entryY=0;entryDx=0;entryDy=0;strokeWidth=3;" parent="1" target="Zw1K-CFGC-PBikJDm--D-18" edge="1">
          <mxGeometry width="50" height="50" relative="1" as="geometry">
            <mxPoint x="233" y="362.5" as="sourcePoint" />
            <mxPoint x="283" y="312.5" as="targetPoint" />
          </mxGeometry>
        </mxCell>
        <mxCell id="Zw1K-CFGC-PBikJDm--D-30" value="" style="endArrow=classic;html=1;entryX=0;entryY=0;entryDx=0;entryDy=0;strokeWidth=3;" parent="1" edge="1">
          <mxGeometry width="50" height="50" relative="1" as="geometry">
            <mxPoint x="383" y="402.5" as="sourcePoint" />
            <mxPoint x="493" y="402.5" as="targetPoint" />
          </mxGeometry>
        </mxCell>
        <mxCell id="Zw1K-CFGC-PBikJDm--D-31" value="" style="endArrow=classic;html=1;entryX=0;entryY=0;entryDx=0;entryDy=0;strokeWidth=3;" parent="1" edge="1">
          <mxGeometry width="50" height="50" relative="1" as="geometry">
            <mxPoint x="383" y="441.5" as="sourcePoint" />
            <mxPoint x="493" y="441.5" as="targetPoint" />
          </mxGeometry>
        </mxCell>
        <mxCell id="Zw1K-CFGC-PBikJDm--D-32" value="模块1加载JS" style="text;html=1;align=center;verticalAlign=middle;resizable=0;points=[];;autosize=1;" parent="1" vertex="1">
          <mxGeometry x="393" y="382.5" width="80" height="20" as="geometry" />
        </mxCell>
        <mxCell id="Zw1K-CFGC-PBikJDm--D-33" value="模块N加载JS" style="text;html=1;align=center;verticalAlign=middle;resizable=0;points=[];;autosize=1;" parent="1" vertex="1">
          <mxGeometry x="388" y="442.5" width="90" height="20" as="geometry" />
        </mxCell>
        <mxCell id="Zw1K-CFGC-PBikJDm--D-34" value="&lt;font style=&quot;font-size: 24px&quot;&gt;...&lt;/font&gt;" style="text;html=1;align=center;verticalAlign=middle;resizable=0;points=[];;autosize=1;" parent="1" vertex="1">
          <mxGeometry x="412" y="406.5" width="40" height="20" as="geometry" />
        </mxCell>
        <mxCell id="Zw1K-CFGC-PBikJDm--D-35" value="" style="endArrow=classic;html=1;strokeWidth=3;" parent="1" edge="1">
          <mxGeometry width="50" height="50" relative="1" as="geometry">
            <mxPoint x="533" y="452.5" as="sourcePoint" />
            <mxPoint x="663" y="452.5" as="targetPoint" />
          </mxGeometry>
        </mxCell>
        <mxCell id="Zw1K-CFGC-PBikJDm--D-36" value="" style="endArrow=classic;html=1;strokeWidth=3;" parent="1" edge="1">
          <mxGeometry width="50" height="50" relative="1" as="geometry">
            <mxPoint x="533" y="487" as="sourcePoint" />
            <mxPoint x="663" y="487.5" as="targetPoint" />
          </mxGeometry>
        </mxCell>
        <mxCell id="Zw1K-CFGC-PBikJDm--D-37" value="模块1通过白板获取参数" style="text;html=1;align=center;verticalAlign=middle;resizable=0;points=[];;autosize=1;" parent="1" vertex="1">
          <mxGeometry x="530" y="431.5" width="140" height="20" as="geometry" />
        </mxCell>
        <mxCell id="Zw1K-CFGC-PBikJDm--D-38" value="模块N通过白板获取参数" style="text;html=1;align=center;verticalAlign=middle;resizable=0;points=[];;autosize=1;" parent="1" vertex="1">
          <mxGeometry x="529" y="492.5" width="140" height="20" as="geometry" />
        </mxCell>
        <mxCell id="Zw1K-CFGC-PBikJDm--D-39" value="&lt;font style=&quot;font-size: 24px&quot;&gt;...&lt;/font&gt;" style="text;html=1;align=center;verticalAlign=middle;resizable=0;points=[];;autosize=1;" parent="1" vertex="1">
          <mxGeometry x="578" y="452.5" width="40" height="20" as="geometry" />
        </mxCell>
        <mxCell id="Zw1K-CFGC-PBikJDm--D-40" value="" style="endArrow=classic;html=1;entryX=0;entryY=0;entryDx=0;entryDy=0;strokeWidth=3;" parent="1" edge="1">
          <mxGeometry width="50" height="50" relative="1" as="geometry">
            <mxPoint x="708" y="492.5" as="sourcePoint" />
            <mxPoint x="818" y="492.5" as="targetPoint" />
          </mxGeometry>
        </mxCell>
        <mxCell id="Zw1K-CFGC-PBikJDm--D-41" value="" style="endArrow=classic;html=1;entryX=0;entryY=0;entryDx=0;entryDy=0;strokeWidth=3;" parent="1" edge="1">
          <mxGeometry width="50" height="50" relative="1" as="geometry">
            <mxPoint x="708" y="531.5" as="sourcePoint" />
            <mxPoint x="818" y="531.5" as="targetPoint" />
          </mxGeometry>
        </mxCell>
        <mxCell id="Zw1K-CFGC-PBikJDm--D-42" value="模块1网络请求" style="text;html=1;align=center;verticalAlign=middle;resizable=0;points=[];;autosize=1;" parent="1" vertex="1">
          <mxGeometry x="713" y="472.5" width="90" height="20" as="geometry" />
        </mxCell>
        <mxCell id="Zw1K-CFGC-PBikJDm--D-43" value="模块N网络请求" style="text;html=1;align=center;verticalAlign=middle;resizable=0;points=[];;autosize=1;" parent="1" vertex="1">
          <mxGeometry x="708" y="532.5" width="100" height="20" as="geometry" />
        </mxCell>
        <mxCell id="Zw1K-CFGC-PBikJDm--D-44" value="&lt;font style=&quot;font-size: 24px&quot;&gt;...&lt;/font&gt;" style="text;html=1;align=center;verticalAlign=middle;resizable=0;points=[];;autosize=1;" parent="1" vertex="1">
          <mxGeometry x="737" y="496.5" width="40" height="20" as="geometry" />
        </mxCell>
        <mxCell id="Zw1K-CFGC-PBikJDm--D-45" value="" style="endArrow=classic;html=1;entryX=0;entryY=0;entryDx=0;entryDy=0;strokeWidth=3;" parent="1" edge="1">
          <mxGeometry width="50" height="50" relative="1" as="geometry">
            <mxPoint x="858" y="542.5" as="sourcePoint" />
            <mxPoint x="968" y="542.5" as="targetPoint" />
          </mxGeometry>
        </mxCell>
        <mxCell id="Zw1K-CFGC-PBikJDm--D-46" value="" style="endArrow=classic;html=1;entryX=0;entryY=0;entryDx=0;entryDy=0;strokeWidth=3;" parent="1" edge="1">
          <mxGeometry width="50" height="50" relative="1" as="geometry">
            <mxPoint x="858" y="581.5" as="sourcePoint" />
            <mxPoint x="968" y="581.5" as="targetPoint" />
          </mxGeometry>
        </mxCell>
        <mxCell id="Zw1K-CFGC-PBikJDm--D-47" value="模块1计算PModel" style="text;html=1;align=center;verticalAlign=middle;resizable=0;points=[];;autosize=1;" parent="1" vertex="1">
          <mxGeometry x="853" y="522.5" width="110" height="20" as="geometry" />
        </mxCell>
        <mxCell id="Zw1K-CFGC-PBikJDm--D-48" value="模块N计算PModel" style="text;html=1;align=center;verticalAlign=middle;resizable=0;points=[];;autosize=1;" parent="1" vertex="1">
          <mxGeometry x="853" y="582.5" width="110" height="20" as="geometry" />
        </mxCell>
        <mxCell id="Zw1K-CFGC-PBikJDm--D-49" value="&lt;font style=&quot;font-size: 24px&quot;&gt;...&lt;/font&gt;" style="text;html=1;align=center;verticalAlign=middle;resizable=0;points=[];;autosize=1;" parent="1" vertex="1">
          <mxGeometry x="887" y="546.5" width="40" height="20" as="geometry" />
        </mxCell>
        <mxCell id="Zw1K-CFGC-PBikJDm--D-50" value="" style="endArrow=classic;html=1;entryX=0;entryY=0;entryDx=0;entryDy=0;strokeWidth=3;" parent="1" edge="1">
          <mxGeometry width="50" height="50" relative="1" as="geometry">
            <mxPoint x="1008" y="582.5" as="sourcePoint" />
            <mxPoint x="1118" y="582.5" as="targetPoint" />
          </mxGeometry>
        </mxCell>
        <mxCell id="Zw1K-CFGC-PBikJDm--D-51" value="" style="endArrow=classic;html=1;entryX=0;entryY=0;entryDx=0;entryDy=0;strokeWidth=3;" parent="1" edge="1">
          <mxGeometry width="50" height="50" relative="1" as="geometry">
            <mxPoint x="1008" y="621.5" as="sourcePoint" />
            <mxPoint x="1118" y="621.5" as="targetPoint" />
          </mxGeometry>
        </mxCell>
        <mxCell id="Zw1K-CFGC-PBikJDm--D-52" value="模块1 native渲染" style="text;html=1;align=center;verticalAlign=middle;resizable=0;points=[];;autosize=1;" parent="1" vertex="1">
          <mxGeometry x="1003" y="562.5" width="110" height="20" as="geometry" />
        </mxCell>
        <mxCell id="Zw1K-CFGC-PBikJDm--D-53" value="模块N native渲染" style="text;html=1;align=center;verticalAlign=middle;resizable=0;points=[];;autosize=1;" parent="1" vertex="1">
          <mxGeometry x="1003" y="622.5" width="110" height="20" as="geometry" />
        </mxCell>
        <mxCell id="Zw1K-CFGC-PBikJDm--D-54" value="&lt;font style=&quot;font-size: 24px&quot;&gt;...&lt;/font&gt;" style="text;html=1;align=center;verticalAlign=middle;resizable=0;points=[];;autosize=1;" parent="1" vertex="1">
          <mxGeometry x="1037" y="586.5" width="40" height="20" as="geometry" />
        </mxCell>
        <mxCell id="ZloZHauyBX7HKi503AZX-1" value="" style="rounded=1;whiteSpace=wrap;html=1;" parent="1" vertex="1">
          <mxGeometry x="139.5" y="449.5" width="70" height="160" as="geometry" />
        </mxCell>
        <mxCell id="ZloZHauyBX7HKi503AZX-5" style="edgeStyle=orthogonalEdgeStyle;orthogonalLoop=1;jettySize=auto;html=1;exitX=0.5;exitY=1;exitDx=0;exitDy=0;entryX=0.5;entryY=0;entryDx=0;entryDy=0;rounded=0;" parent="1" source="ZloZHauyBX7HKi503AZX-3" target="ZloZHauyBX7HKi503AZX-4" edge="1">
          <mxGeometry relative="1" as="geometry" />
        </mxCell>
        <mxCell id="ZloZHauyBX7HKi503AZX-3" value="&lt;font style=&quot;font-size: 14px&quot;&gt;Picasso引擎&lt;/font&gt;" style="rounded=1;whiteSpace=wrap;html=1;" parent="1" vertex="1">
          <mxGeometry x="148.25" y="462" width="51.25" height="57.5" as="geometry" />
        </mxCell>
        <mxCell id="ZloZHauyBX7HKi503AZX-4" value="&lt;font style=&quot;font-size: 14px&quot;&gt;模块化注册&lt;/font&gt;" style="rounded=1;whiteSpace=wrap;html=1;" parent="1" vertex="1">
          <mxGeometry x="148.25" y="547.75" width="53.75" height="48.5" as="geometry" />
        </mxCell>
      </root>
    </mxGraphModel>
  </diagram>
  <diagram id="PkeAfrTkP65fkFrWPgou" name="第 13 页">
    <mxGraphModel dx="1426" dy="794" grid="1" gridSize="10" guides="1" tooltips="1" connect="1" arrows="1" fold="1" page="1" pageScale="1" pageWidth="1920" pageHeight="1200" math="0" shadow="0">
      <root>
        <mxCell id="Gdk8QgBTYtocN_xsDOSu-0" />
        <mxCell id="Gdk8QgBTYtocN_xsDOSu-1" parent="Gdk8QgBTYtocN_xsDOSu-0" />
        <mxCell id="w8tdTQOXkbmrsmdd57pT-0" value="" style="rounded=1;whiteSpace=wrap;html=1;shadow=1;dashed=1;strokeColor=#82b366;fontSize=16;fillColor=#d5e8d4;gradientDirection=north;gradientColor=#ffffff;" parent="Gdk8QgBTYtocN_xsDOSu-1" vertex="1">
          <mxGeometry x="780" y="210" width="153" height="459" as="geometry" />
        </mxCell>
        <mxCell id="w8tdTQOXkbmrsmdd57pT-1" value="&lt;font style=&quot;font-size: 18px&quot;&gt;容器初始化&lt;/font&gt;" style="rounded=1;whiteSpace=wrap;html=1;" parent="Gdk8QgBTYtocN_xsDOSu-1" vertex="1">
          <mxGeometry x="796.5" y="229.5" width="120" height="40" as="geometry" />
        </mxCell>
        <mxCell id="w8tdTQOXkbmrsmdd57pT-2" value="" style="endArrow=none;dashed=1;html=1;entryX=0.5;entryY=1;entryDx=0;entryDy=0;" parent="Gdk8QgBTYtocN_xsDOSu-1" source="w8tdTQOXkbmrsmdd57pT-16" target="w8tdTQOXkbmrsmdd57pT-1" edge="1">
          <mxGeometry width="50" height="50" relative="1" as="geometry">
            <mxPoint x="856.5" y="649.5" as="sourcePoint" />
            <mxPoint x="876.5" y="299.5" as="targetPoint" />
          </mxGeometry>
        </mxCell>
        <mxCell id="w8tdTQOXkbmrsmdd57pT-3" value="&lt;span style=&quot;font-size: 18px&quot;&gt;加载页面JS&lt;/span&gt;" style="rounded=1;whiteSpace=wrap;html=1;" parent="Gdk8QgBTYtocN_xsDOSu-1" vertex="1">
          <mxGeometry x="946.5" y="229.5" width="120" height="40" as="geometry" />
        </mxCell>
        <mxCell id="w8tdTQOXkbmrsmdd57pT-4" value="" style="endArrow=none;dashed=1;html=1;entryX=0.5;entryY=1;entryDx=0;entryDy=0;" parent="Gdk8QgBTYtocN_xsDOSu-1" source="w8tdTQOXkbmrsmdd57pT-18" target="w8tdTQOXkbmrsmdd57pT-3" edge="1">
          <mxGeometry width="50" height="50" relative="1" as="geometry">
            <mxPoint x="1006.5" y="649.5" as="sourcePoint" />
            <mxPoint x="1026.5" y="299.5" as="targetPoint" />
          </mxGeometry>
        </mxCell>
        <mxCell id="w8tdTQOXkbmrsmdd57pT-5" value="&lt;span style=&quot;font-size: 18px&quot;&gt;加载模块JS&lt;/span&gt;" style="rounded=1;whiteSpace=wrap;html=1;" parent="Gdk8QgBTYtocN_xsDOSu-1" vertex="1">
          <mxGeometry x="1096.5" y="229.5" width="120" height="40" as="geometry" />
        </mxCell>
        <mxCell id="w8tdTQOXkbmrsmdd57pT-6" value="" style="endArrow=none;dashed=1;html=1;entryX=0.5;entryY=1;entryDx=0;entryDy=0;" parent="Gdk8QgBTYtocN_xsDOSu-1" source="w8tdTQOXkbmrsmdd57pT-20" target="w8tdTQOXkbmrsmdd57pT-5" edge="1">
          <mxGeometry width="50" height="50" relative="1" as="geometry">
            <mxPoint x="1156.5" y="649.5" as="sourcePoint" />
            <mxPoint x="1176.5" y="299.5" as="targetPoint" />
          </mxGeometry>
        </mxCell>
        <mxCell id="w8tdTQOXkbmrsmdd57pT-7" value="&lt;span style=&quot;font-size: 18px&quot;&gt;白板获取请求参数&lt;/span&gt;" style="rounded=1;whiteSpace=wrap;html=1;" parent="Gdk8QgBTYtocN_xsDOSu-1" vertex="1">
          <mxGeometry x="1271.5" y="229.5" width="120" height="40" as="geometry" />
        </mxCell>
        <mxCell id="w8tdTQOXkbmrsmdd57pT-8" value="" style="endArrow=none;dashed=1;html=1;entryX=0.5;entryY=1;entryDx=0;entryDy=0;" parent="Gdk8QgBTYtocN_xsDOSu-1" target="w8tdTQOXkbmrsmdd57pT-7" edge="1">
          <mxGeometry width="50" height="50" relative="1" as="geometry">
            <mxPoint x="1331.5" y="379.5" as="sourcePoint" />
            <mxPoint x="1351.5" y="299.5" as="targetPoint" />
          </mxGeometry>
        </mxCell>
        <mxCell id="w8tdTQOXkbmrsmdd57pT-9" value="&lt;span style=&quot;font-size: 18px&quot;&gt;模块mapi请求&lt;/span&gt;" style="rounded=1;whiteSpace=wrap;html=1;" parent="Gdk8QgBTYtocN_xsDOSu-1" vertex="1">
          <mxGeometry x="1421.5" y="229.5" width="120" height="40" as="geometry" />
        </mxCell>
        <mxCell id="w8tdTQOXkbmrsmdd57pT-10" value="" style="endArrow=none;dashed=1;html=1;entryX=0.5;entryY=1;entryDx=0;entryDy=0;" parent="Gdk8QgBTYtocN_xsDOSu-1" target="w8tdTQOXkbmrsmdd57pT-9" edge="1">
          <mxGeometry width="50" height="50" relative="1" as="geometry">
            <mxPoint x="1481.5" y="649.5" as="sourcePoint" />
            <mxPoint x="1501.5" y="299.5" as="targetPoint" />
          </mxGeometry>
        </mxCell>
        <mxCell id="w8tdTQOXkbmrsmdd57pT-11" value="&lt;span style=&quot;font-size: 18px&quot;&gt;Picasso模型预计算&lt;/span&gt;" style="rounded=1;whiteSpace=wrap;html=1;" parent="Gdk8QgBTYtocN_xsDOSu-1" vertex="1">
          <mxGeometry x="1571.5" y="229.5" width="120" height="40" as="geometry" />
        </mxCell>
        <mxCell id="w8tdTQOXkbmrsmdd57pT-12" value="" style="endArrow=none;dashed=1;html=1;entryX=0.5;entryY=1;entryDx=0;entryDy=0;" parent="Gdk8QgBTYtocN_xsDOSu-1" target="w8tdTQOXkbmrsmdd57pT-11" edge="1">
          <mxGeometry width="50" height="50" relative="1" as="geometry">
            <mxPoint x="1631.5" y="499.5" as="sourcePoint" />
            <mxPoint x="1651.5" y="299.5" as="targetPoint" />
          </mxGeometry>
        </mxCell>
        <mxCell id="w8tdTQOXkbmrsmdd57pT-13" value="&lt;span style=&quot;font-size: 18px&quot;&gt;Native渲染&lt;/span&gt;" style="rounded=1;whiteSpace=wrap;html=1;" parent="Gdk8QgBTYtocN_xsDOSu-1" vertex="1">
          <mxGeometry x="1720.5" y="229.5" width="120" height="40" as="geometry" />
        </mxCell>
        <mxCell id="w8tdTQOXkbmrsmdd57pT-14" value="" style="endArrow=none;dashed=1;html=1;entryX=0.5;entryY=1;entryDx=0;entryDy=0;" parent="Gdk8QgBTYtocN_xsDOSu-1" target="w8tdTQOXkbmrsmdd57pT-13" edge="1">
          <mxGeometry width="50" height="50" relative="1" as="geometry">
            <mxPoint x="1780.5" y="539.5" as="sourcePoint" />
            <mxPoint x="1800.5" y="299.5" as="targetPoint" />
          </mxGeometry>
        </mxCell>
        <mxCell id="w8tdTQOXkbmrsmdd57pT-16" value="" style="rounded=1;whiteSpace=wrap;html=1;" parent="Gdk8QgBTYtocN_xsDOSu-1" vertex="1">
          <mxGeometry x="836.5" y="279.5" width="40" height="30" as="geometry" />
        </mxCell>
        <mxCell id="w8tdTQOXkbmrsmdd57pT-17" value="" style="endArrow=none;dashed=1;html=1;entryX=0.5;entryY=1;entryDx=0;entryDy=0;" parent="Gdk8QgBTYtocN_xsDOSu-1" target="w8tdTQOXkbmrsmdd57pT-16" edge="1">
          <mxGeometry width="50" height="50" relative="1" as="geometry">
            <mxPoint x="856.5" y="649.5" as="sourcePoint" />
            <mxPoint x="856.5" y="269.5" as="targetPoint" />
          </mxGeometry>
        </mxCell>
        <mxCell id="w8tdTQOXkbmrsmdd57pT-18" value="" style="rounded=1;whiteSpace=wrap;html=1;" parent="Gdk8QgBTYtocN_xsDOSu-1" vertex="1">
          <mxGeometry x="986.5" y="309.5" width="40" height="80" as="geometry" />
        </mxCell>
        <mxCell id="w8tdTQOXkbmrsmdd57pT-19" value="" style="endArrow=none;dashed=1;html=1;entryX=0.5;entryY=1;entryDx=0;entryDy=0;" parent="Gdk8QgBTYtocN_xsDOSu-1" target="w8tdTQOXkbmrsmdd57pT-18" edge="1">
          <mxGeometry width="50" height="50" relative="1" as="geometry">
            <mxPoint x="1006.5" y="649.5" as="sourcePoint" />
            <mxPoint x="1006.5" y="269.5" as="targetPoint" />
          </mxGeometry>
        </mxCell>
        <mxCell id="w8tdTQOXkbmrsmdd57pT-20" value="" style="rounded=1;whiteSpace=wrap;html=1;" parent="Gdk8QgBTYtocN_xsDOSu-1" vertex="1">
          <mxGeometry x="1136.5" y="349.5" width="40" height="90" as="geometry" />
        </mxCell>
        <mxCell id="w8tdTQOXkbmrsmdd57pT-21" value="" style="endArrow=none;dashed=1;html=1;entryX=0.5;entryY=1;entryDx=0;entryDy=0;" parent="Gdk8QgBTYtocN_xsDOSu-1" target="w8tdTQOXkbmrsmdd57pT-20" edge="1">
          <mxGeometry width="50" height="50" relative="1" as="geometry">
            <mxPoint x="1156.5" y="649.5" as="sourcePoint" />
            <mxPoint x="1156.5" y="269.5" as="targetPoint" />
          </mxGeometry>
        </mxCell>
        <mxCell id="w8tdTQOXkbmrsmdd57pT-22" value="" style="endArrow=none;dashed=1;html=1;entryX=0.5;entryY=1;entryDx=0;entryDy=0;" parent="Gdk8QgBTYtocN_xsDOSu-1" edge="1">
          <mxGeometry width="50" height="50" relative="1" as="geometry">
            <mxPoint x="1631.5" y="649.5" as="sourcePoint" />
            <mxPoint x="1631.5" y="559.5" as="targetPoint" />
          </mxGeometry>
        </mxCell>
        <mxCell id="w8tdTQOXkbmrsmdd57pT-23" value="" style="endArrow=none;dashed=1;html=1;entryX=0.5;entryY=1;entryDx=0;entryDy=0;" parent="Gdk8QgBTYtocN_xsDOSu-1" edge="1">
          <mxGeometry width="50" height="50" relative="1" as="geometry">
            <mxPoint x="1780.5" y="649.5" as="sourcePoint" />
            <mxPoint x="1780.5" y="599.5" as="targetPoint" />
          </mxGeometry>
        </mxCell>
        <mxCell id="w8tdTQOXkbmrsmdd57pT-24" value="" style="endArrow=none;dashed=1;html=1;entryX=0.5;entryY=1;entryDx=0;entryDy=0;" parent="Gdk8QgBTYtocN_xsDOSu-1" edge="1">
          <mxGeometry width="50" height="50" relative="1" as="geometry">
            <mxPoint x="1331.5" y="649.5" as="sourcePoint" />
            <mxPoint x="1331.5" y="469.5" as="targetPoint" />
          </mxGeometry>
        </mxCell>
        <mxCell id="w8tdTQOXkbmrsmdd57pT-25" value="" style="rounded=1;whiteSpace=wrap;html=1;" parent="Gdk8QgBTYtocN_xsDOSu-1" vertex="1">
          <mxGeometry x="1311.5" y="389.5" width="40" height="90" as="geometry" />
        </mxCell>
        <mxCell id="w8tdTQOXkbmrsmdd57pT-26" value="" style="rounded=1;whiteSpace=wrap;html=1;" parent="Gdk8QgBTYtocN_xsDOSu-1" vertex="1">
          <mxGeometry x="1461.5" y="439.5" width="40" height="90" as="geometry" />
        </mxCell>
        <mxCell id="w8tdTQOXkbmrsmdd57pT-27" value="" style="rounded=1;whiteSpace=wrap;html=1;" parent="Gdk8QgBTYtocN_xsDOSu-1" vertex="1">
          <mxGeometry x="1611.5" y="479.5" width="40" height="90" as="geometry" />
        </mxCell>
        <mxCell id="w8tdTQOXkbmrsmdd57pT-28" value="" style="rounded=1;whiteSpace=wrap;html=1;" parent="Gdk8QgBTYtocN_xsDOSu-1" vertex="1">
          <mxGeometry x="1760.5" y="529.5" width="40" height="90" as="geometry" />
        </mxCell>
        <mxCell id="w8tdTQOXkbmrsmdd57pT-29" value="" style="endArrow=classic;html=1;entryX=0;entryY=0;entryDx=0;entryDy=0;strokeWidth=3;" parent="Gdk8QgBTYtocN_xsDOSu-1" target="w8tdTQOXkbmrsmdd57pT-18" edge="1">
          <mxGeometry width="50" height="50" relative="1" as="geometry">
            <mxPoint x="876.5" y="309.5" as="sourcePoint" />
            <mxPoint x="926.5" y="259.5" as="targetPoint" />
          </mxGeometry>
        </mxCell>
        <mxCell id="w8tdTQOXkbmrsmdd57pT-30" value="" style="endArrow=classic;html=1;entryX=0;entryY=0;entryDx=0;entryDy=0;strokeWidth=3;" parent="Gdk8QgBTYtocN_xsDOSu-1" edge="1">
          <mxGeometry width="50" height="50" relative="1" as="geometry">
            <mxPoint x="1026.5" y="349.5" as="sourcePoint" />
            <mxPoint x="1136.5" y="349.5" as="targetPoint" />
          </mxGeometry>
        </mxCell>
        <mxCell id="w8tdTQOXkbmrsmdd57pT-31" value="" style="endArrow=classic;html=1;entryX=0;entryY=0;entryDx=0;entryDy=0;strokeWidth=3;" parent="Gdk8QgBTYtocN_xsDOSu-1" edge="1">
          <mxGeometry width="50" height="50" relative="1" as="geometry">
            <mxPoint x="1026.5" y="388.5" as="sourcePoint" />
            <mxPoint x="1136.5" y="388.5" as="targetPoint" />
          </mxGeometry>
        </mxCell>
        <mxCell id="w8tdTQOXkbmrsmdd57pT-32" value="模块1加载JS" style="text;html=1;align=center;verticalAlign=middle;resizable=0;points=[];;autosize=1;" parent="Gdk8QgBTYtocN_xsDOSu-1" vertex="1">
          <mxGeometry x="1036.5" y="329.5" width="80" height="20" as="geometry" />
        </mxCell>
        <mxCell id="w8tdTQOXkbmrsmdd57pT-33" value="模块N加载JS" style="text;html=1;align=center;verticalAlign=middle;resizable=0;points=[];;autosize=1;" parent="Gdk8QgBTYtocN_xsDOSu-1" vertex="1">
          <mxGeometry x="1031.5" y="389.5" width="90" height="20" as="geometry" />
        </mxCell>
        <mxCell id="w8tdTQOXkbmrsmdd57pT-34" value="&lt;font style=&quot;font-size: 24px&quot;&gt;...&lt;/font&gt;" style="text;html=1;align=center;verticalAlign=middle;resizable=0;points=[];;autosize=1;" parent="Gdk8QgBTYtocN_xsDOSu-1" vertex="1">
          <mxGeometry x="1055.5" y="353.5" width="40" height="20" as="geometry" />
        </mxCell>
        <mxCell id="w8tdTQOXkbmrsmdd57pT-35" value="" style="endArrow=classic;html=1;strokeWidth=3;" parent="Gdk8QgBTYtocN_xsDOSu-1" edge="1">
          <mxGeometry width="50" height="50" relative="1" as="geometry">
            <mxPoint x="1176.5" y="399.5" as="sourcePoint" />
            <mxPoint x="1306.5" y="399.5" as="targetPoint" />
          </mxGeometry>
        </mxCell>
        <mxCell id="w8tdTQOXkbmrsmdd57pT-36" value="" style="endArrow=classic;html=1;strokeWidth=3;" parent="Gdk8QgBTYtocN_xsDOSu-1" edge="1">
          <mxGeometry width="50" height="50" relative="1" as="geometry">
            <mxPoint x="1176.5" y="434" as="sourcePoint" />
            <mxPoint x="1306.5" y="434.5" as="targetPoint" />
          </mxGeometry>
        </mxCell>
        <mxCell id="w8tdTQOXkbmrsmdd57pT-37" value="模块1通过白板获取参数" style="text;html=1;align=center;verticalAlign=middle;resizable=0;points=[];;autosize=1;" parent="Gdk8QgBTYtocN_xsDOSu-1" vertex="1">
          <mxGeometry x="1173.5" y="378.5" width="140" height="20" as="geometry" />
        </mxCell>
        <mxCell id="w8tdTQOXkbmrsmdd57pT-38" value="模块N通过白板获取参数" style="text;html=1;align=center;verticalAlign=middle;resizable=0;points=[];;autosize=1;" parent="Gdk8QgBTYtocN_xsDOSu-1" vertex="1">
          <mxGeometry x="1172.5" y="439.5" width="140" height="20" as="geometry" />
        </mxCell>
        <mxCell id="w8tdTQOXkbmrsmdd57pT-39" value="&lt;font style=&quot;font-size: 24px&quot;&gt;...&lt;/font&gt;" style="text;html=1;align=center;verticalAlign=middle;resizable=0;points=[];;autosize=1;" parent="Gdk8QgBTYtocN_xsDOSu-1" vertex="1">
          <mxGeometry x="1221.5" y="399.5" width="40" height="20" as="geometry" />
        </mxCell>
        <mxCell id="w8tdTQOXkbmrsmdd57pT-40" value="" style="endArrow=classic;html=1;entryX=0;entryY=0;entryDx=0;entryDy=0;strokeWidth=3;" parent="Gdk8QgBTYtocN_xsDOSu-1" edge="1">
          <mxGeometry width="50" height="50" relative="1" as="geometry">
            <mxPoint x="1351.5" y="439.5" as="sourcePoint" />
            <mxPoint x="1461.5" y="439.5" as="targetPoint" />
          </mxGeometry>
        </mxCell>
        <mxCell id="w8tdTQOXkbmrsmdd57pT-41" value="" style="endArrow=classic;html=1;entryX=0;entryY=0;entryDx=0;entryDy=0;strokeWidth=3;" parent="Gdk8QgBTYtocN_xsDOSu-1" edge="1">
          <mxGeometry width="50" height="50" relative="1" as="geometry">
            <mxPoint x="1351.5" y="478.5" as="sourcePoint" />
            <mxPoint x="1461.5" y="478.5" as="targetPoint" />
          </mxGeometry>
        </mxCell>
        <mxCell id="w8tdTQOXkbmrsmdd57pT-42" value="模块1网络请求" style="text;html=1;align=center;verticalAlign=middle;resizable=0;points=[];;autosize=1;" parent="Gdk8QgBTYtocN_xsDOSu-1" vertex="1">
          <mxGeometry x="1356.5" y="419.5" width="90" height="20" as="geometry" />
        </mxCell>
        <mxCell id="w8tdTQOXkbmrsmdd57pT-43" value="模块N网络请求" style="text;html=1;align=center;verticalAlign=middle;resizable=0;points=[];;autosize=1;" parent="Gdk8QgBTYtocN_xsDOSu-1" vertex="1">
          <mxGeometry x="1351.5" y="479.5" width="100" height="20" as="geometry" />
        </mxCell>
        <mxCell id="w8tdTQOXkbmrsmdd57pT-44" value="&lt;font style=&quot;font-size: 24px&quot;&gt;...&lt;/font&gt;" style="text;html=1;align=center;verticalAlign=middle;resizable=0;points=[];;autosize=1;" parent="Gdk8QgBTYtocN_xsDOSu-1" vertex="1">
          <mxGeometry x="1380.5" y="443.5" width="40" height="20" as="geometry" />
        </mxCell>
        <mxCell id="w8tdTQOXkbmrsmdd57pT-45" value="" style="endArrow=classic;html=1;entryX=0;entryY=0;entryDx=0;entryDy=0;strokeWidth=3;" parent="Gdk8QgBTYtocN_xsDOSu-1" edge="1">
          <mxGeometry width="50" height="50" relative="1" as="geometry">
            <mxPoint x="1501.5" y="489.5" as="sourcePoint" />
            <mxPoint x="1611.5" y="489.5" as="targetPoint" />
          </mxGeometry>
        </mxCell>
        <mxCell id="w8tdTQOXkbmrsmdd57pT-46" value="" style="endArrow=classic;html=1;entryX=0;entryY=0;entryDx=0;entryDy=0;strokeWidth=3;" parent="Gdk8QgBTYtocN_xsDOSu-1" edge="1">
          <mxGeometry width="50" height="50" relative="1" as="geometry">
            <mxPoint x="1501.5" y="528.5" as="sourcePoint" />
            <mxPoint x="1611.5" y="528.5" as="targetPoint" />
          </mxGeometry>
        </mxCell>
        <mxCell id="w8tdTQOXkbmrsmdd57pT-47" value="模块1计算PModel" style="text;html=1;align=center;verticalAlign=middle;resizable=0;points=[];;autosize=1;" parent="Gdk8QgBTYtocN_xsDOSu-1" vertex="1">
          <mxGeometry x="1496.5" y="469.5" width="110" height="20" as="geometry" />
        </mxCell>
        <mxCell id="w8tdTQOXkbmrsmdd57pT-48" value="模块N计算PModel" style="text;html=1;align=center;verticalAlign=middle;resizable=0;points=[];;autosize=1;" parent="Gdk8QgBTYtocN_xsDOSu-1" vertex="1">
          <mxGeometry x="1496.5" y="529.5" width="110" height="20" as="geometry" />
        </mxCell>
        <mxCell id="w8tdTQOXkbmrsmdd57pT-49" value="&lt;font style=&quot;font-size: 24px&quot;&gt;...&lt;/font&gt;" style="text;html=1;align=center;verticalAlign=middle;resizable=0;points=[];;autosize=1;" parent="Gdk8QgBTYtocN_xsDOSu-1" vertex="1">
          <mxGeometry x="1530.5" y="493.5" width="40" height="20" as="geometry" />
        </mxCell>
        <mxCell id="w8tdTQOXkbmrsmdd57pT-50" value="" style="endArrow=classic;html=1;entryX=0;entryY=0;entryDx=0;entryDy=0;strokeWidth=3;" parent="Gdk8QgBTYtocN_xsDOSu-1" edge="1">
          <mxGeometry width="50" height="50" relative="1" as="geometry">
            <mxPoint x="1651.5" y="529.5" as="sourcePoint" />
            <mxPoint x="1761.5" y="529.5" as="targetPoint" />
          </mxGeometry>
        </mxCell>
        <mxCell id="w8tdTQOXkbmrsmdd57pT-51" value="" style="endArrow=classic;html=1;entryX=0;entryY=0;entryDx=0;entryDy=0;strokeWidth=3;" parent="Gdk8QgBTYtocN_xsDOSu-1" edge="1">
          <mxGeometry width="50" height="50" relative="1" as="geometry">
            <mxPoint x="1651.5" y="568.5" as="sourcePoint" />
            <mxPoint x="1761.5" y="568.5" as="targetPoint" />
          </mxGeometry>
        </mxCell>
        <mxCell id="w8tdTQOXkbmrsmdd57pT-52" value="模块1 native渲染" style="text;html=1;align=center;verticalAlign=middle;resizable=0;points=[];;autosize=1;" parent="Gdk8QgBTYtocN_xsDOSu-1" vertex="1">
          <mxGeometry x="1646.5" y="509.5" width="110" height="20" as="geometry" />
        </mxCell>
        <mxCell id="w8tdTQOXkbmrsmdd57pT-53" value="模块N native渲染" style="text;html=1;align=center;verticalAlign=middle;resizable=0;points=[];;autosize=1;" parent="Gdk8QgBTYtocN_xsDOSu-1" vertex="1">
          <mxGeometry x="1646.5" y="569.5" width="110" height="20" as="geometry" />
        </mxCell>
        <mxCell id="w8tdTQOXkbmrsmdd57pT-54" value="&lt;font style=&quot;font-size: 24px&quot;&gt;...&lt;/font&gt;" style="text;html=1;align=center;verticalAlign=middle;resizable=0;points=[];;autosize=1;" parent="Gdk8QgBTYtocN_xsDOSu-1" vertex="1">
          <mxGeometry x="1680.5" y="533.5" width="40" height="20" as="geometry" />
        </mxCell>
      </root>
    </mxGraphModel>
  </diagram>
  <diagram name="Page-2" id="4wrqyZLzNmo9y8gqbVzU">
    <mxGraphModel dx="1426" dy="794" grid="0" gridSize="10" guides="1" tooltips="1" connect="1" arrows="1" fold="1" page="1" pageScale="1" pageWidth="3300" pageHeight="4681" math="0" shadow="0">
      <root>
        <mxCell id="oq0dUE_PeGrhgSTPifTt-0" />
        <mxCell id="oq0dUE_PeGrhgSTPifTt-1" parent="oq0dUE_PeGrhgSTPifTt-0" />
        <mxCell id="xKLaFwHYnpvmuwUiV3zi-0" value="TS 频道首页" style="swimlane;fontSize=16;fillColor=#f8cecc;strokeColor=#b85450;startSize=29;" parent="oq0dUE_PeGrhgSTPifTt-1" vertex="1">
          <mxGeometry x="419" y="126" width="470" height="340" as="geometry" />
        </mxCell>
        <mxCell id="xKLaFwHYnpvmuwUiV3zi-6" style="edgeStyle=orthogonalEdgeStyle;rounded=0;orthogonalLoop=1;jettySize=auto;html=1;exitX=0;exitY=0.5;exitDx=0;exitDy=0;entryX=1;entryY=0.5;entryDx=0;entryDy=0;fontSize=16;" parent="xKLaFwHYnpvmuwUiV3zi-0" source="xKLaFwHYnpvmuwUiV3zi-1" target="xKLaFwHYnpvmuwUiV3zi-2" edge="1">
          <mxGeometry relative="1" as="geometry" />
        </mxCell>
        <mxCell id="xKLaFwHYnpvmuwUiV3zi-1" value="搜索栏模块" style="rounded=1;whiteSpace=wrap;html=1;fontSize=16;" parent="xKLaFwHYnpvmuwUiV3zi-0" vertex="1">
          <mxGeometry x="330" y="38.5" width="120" height="60" as="geometry" />
        </mxCell>
        <mxCell id="xKLaFwHYnpvmuwUiV3zi-2" value="cityId、lat、lng" style="ellipse;whiteSpace=wrap;html=1;aspect=fixed;fontSize=16;fillColor=#d5e8d4;strokeColor=#82b366;" parent="xKLaFwHYnpvmuwUiV3zi-0" vertex="1">
          <mxGeometry x="40" y="138" width="85" height="85" as="geometry" />
        </mxCell>
        <mxCell id="xKLaFwHYnpvmuwUiV3zi-7" style="edgeStyle=orthogonalEdgeStyle;rounded=0;orthogonalLoop=1;jettySize=auto;html=1;exitX=0;exitY=0.5;exitDx=0;exitDy=0;entryX=1;entryY=0.5;entryDx=0;entryDy=0;fontSize=16;" parent="xKLaFwHYnpvmuwUiV3zi-0" source="xKLaFwHYnpvmuwUiV3zi-3" target="xKLaFwHYnpvmuwUiV3zi-2" edge="1">
          <mxGeometry relative="1" as="geometry" />
        </mxCell>
        <mxCell id="xKLaFwHYnpvmuwUiV3zi-3" value="金刚位模块" style="rounded=1;whiteSpace=wrap;html=1;fontSize=16;" parent="xKLaFwHYnpvmuwUiV3zi-0" vertex="1">
          <mxGeometry x="330" y="112.5" width="120" height="60" as="geometry" />
        </mxCell>
        <mxCell id="xKLaFwHYnpvmuwUiV3zi-8" style="edgeStyle=orthogonalEdgeStyle;rounded=0;orthogonalLoop=1;jettySize=auto;html=1;exitX=0;exitY=0.5;exitDx=0;exitDy=0;entryX=1;entryY=0.5;entryDx=0;entryDy=0;fontSize=16;" parent="xKLaFwHYnpvmuwUiV3zi-0" source="xKLaFwHYnpvmuwUiV3zi-4" target="xKLaFwHYnpvmuwUiV3zi-2" edge="1">
          <mxGeometry relative="1" as="geometry" />
        </mxCell>
        <mxCell id="xKLaFwHYnpvmuwUiV3zi-4" value="banner模块" style="rounded=1;whiteSpace=wrap;html=1;fontSize=16;" parent="xKLaFwHYnpvmuwUiV3zi-0" vertex="1">
          <mxGeometry x="330" y="187.5" width="120" height="60" as="geometry" />
        </mxCell>
        <mxCell id="xKLaFwHYnpvmuwUiV3zi-9" style="edgeStyle=orthogonalEdgeStyle;rounded=0;orthogonalLoop=1;jettySize=auto;html=1;exitX=0;exitY=0.5;exitDx=0;exitDy=0;entryX=1;entryY=0.5;entryDx=0;entryDy=0;fontSize=16;" parent="xKLaFwHYnpvmuwUiV3zi-0" source="xKLaFwHYnpvmuwUiV3zi-5" target="xKLaFwHYnpvmuwUiV3zi-2" edge="1">
          <mxGeometry relative="1" as="geometry" />
        </mxCell>
        <mxCell id="xKLaFwHYnpvmuwUiV3zi-5" value="列表模块" style="rounded=1;whiteSpace=wrap;html=1;fontSize=16;" parent="xKLaFwHYnpvmuwUiV3zi-0" vertex="1">
          <mxGeometry x="330" y="262.5" width="120" height="60" as="geometry" />
        </mxCell>
        <mxCell id="xKLaFwHYnpvmuwUiV3zi-11" style="edgeStyle=orthogonalEdgeStyle;rounded=0;orthogonalLoop=1;jettySize=auto;html=1;exitX=1;exitY=0.5;exitDx=0;exitDy=0;entryX=0;entryY=0.5;entryDx=0;entryDy=0;fontSize=16;" parent="oq0dUE_PeGrhgSTPifTt-1" source="xKLaFwHYnpvmuwUiV3zi-10" target="xKLaFwHYnpvmuwUiV3zi-2" edge="1">
          <mxGeometry relative="1" as="geometry" />
        </mxCell>
        <mxCell id="xKLaFwHYnpvmuwUiV3zi-12" value="注入cityId、lat、lng&lt;br&gt;基础信息" style="text;html=1;align=center;verticalAlign=middle;resizable=0;points=[];labelBackgroundColor=#ffffff;fontSize=16;" parent="xKLaFwHYnpvmuwUiV3zi-11" vertex="1" connectable="0">
          <mxGeometry y="2" relative="1" as="geometry">
            <mxPoint y="1" as="offset" />
          </mxGeometry>
        </mxCell>
        <mxCell id="xKLaFwHYnpvmuwUiV3zi-10" value="创建Picasso页面 Host" style="rounded=1;whiteSpace=wrap;html=1;fontSize=16;" parent="oq0dUE_PeGrhgSTPifTt-1" vertex="1">
          <mxGeometry x="69" y="276.5" width="120" height="60" as="geometry" />
        </mxCell>
      </root>
    </mxGraphModel>
  </diagram>
  <diagram name="第 3 页" id="EiOi4B48tJWkOzpCRrkY">
    <mxGraphModel dx="1426" dy="794" grid="0" gridSize="10" guides="1" tooltips="1" connect="1" arrows="0" fold="1" page="1" pageScale="1" pageWidth="1600" pageHeight="900" math="0" shadow="0">
      <root>
        <mxCell id="BVEu7o4c-sR8T7UEBEOM-0" />
        <mxCell id="BVEu7o4c-sR8T7UEBEOM-1" parent="BVEu7o4c-sR8T7UEBEOM-0" />
        <mxCell id="jSy04V-H2U9Q2VYe3FMI-0" value="版本&amp;nbsp;" style="rounded=0;whiteSpace=wrap;html=1;fontSize=16;align=right;" parent="BVEu7o4c-sR8T7UEBEOM-1" vertex="1">
          <mxGeometry x="100" y="460" width="140" height="40" as="geometry" />
        </mxCell>
        <mxCell id="jSy04V-H2U9Q2VYe3FMI-1" value="请求链接&amp;nbsp;" style="rounded=0;whiteSpace=wrap;html=1;fontSize=16;align=right;" parent="BVEu7o4c-sR8T7UEBEOM-1" vertex="1">
          <mxGeometry x="100" y="500" width="140" height="40" as="geometry" />
        </mxCell>
        <mxCell id="jSy04V-H2U9Q2VYe3FMI-2" value="whiteboard参数&amp;nbsp;" style="rounded=0;whiteSpace=wrap;html=1;fontSize=16;align=right;" parent="BVEu7o4c-sR8T7UEBEOM-1" vertex="1">
          <mxGeometry x="100" y="540" width="140" height="40" as="geometry" />
        </mxCell>
        <mxCell id="jSy04V-H2U9Q2VYe3FMI-3" value="mainboard参数&amp;nbsp;" style="rounded=0;whiteSpace=wrap;html=1;fontSize=16;align=right;" parent="BVEu7o4c-sR8T7UEBEOM-1" vertex="1">
          <mxGeometry x="100" y="580" width="140" height="40" as="geometry" />
        </mxCell>
        <mxCell id="jSy04V-H2U9Q2VYe3FMI-4" value="常量参数&amp;nbsp;" style="rounded=0;whiteSpace=wrap;html=1;fontSize=16;align=right;" parent="BVEu7o4c-sR8T7UEBEOM-1" vertex="1">
          <mxGeometry x="100" y="620" width="140" height="40" as="geometry" />
        </mxCell>
        <mxCell id="jSy04V-H2U9Q2VYe3FMI-5" value="控制变量&amp;nbsp;" style="rounded=0;whiteSpace=wrap;html=1;fontSize=16;align=right;" parent="BVEu7o4c-sR8T7UEBEOM-1" vertex="1">
          <mxGeometry x="100" y="660" width="140" height="40" as="geometry" />
        </mxCell>
        <mxCell id="jSy04V-H2U9Q2VYe3FMI-6" value="v" style="rounded=0;whiteSpace=wrap;html=1;fontSize=16;fillColor=#ffe6cc;strokeColor=#d79b00;" parent="BVEu7o4c-sR8T7UEBEOM-1" vertex="1">
          <mxGeometry x="240" y="460" width="80" height="40" as="geometry" />
        </mxCell>
        <mxCell id="jSy04V-H2U9Q2VYe3FMI-7" value="p" style="rounded=0;whiteSpace=wrap;html=1;fontSize=16;fillColor=#ffe6cc;strokeColor=#d79b00;" parent="BVEu7o4c-sR8T7UEBEOM-1" vertex="1">
          <mxGeometry x="240" y="500" width="80" height="40" as="geometry" />
        </mxCell>
        <mxCell id="jSy04V-H2U9Q2VYe3FMI-8" value="w" style="rounded=0;whiteSpace=wrap;html=1;fontSize=16;fillColor=#ffe6cc;strokeColor=#d79b00;" parent="BVEu7o4c-sR8T7UEBEOM-1" vertex="1">
          <mxGeometry x="240" y="540" width="80" height="40" as="geometry" />
        </mxCell>
        <mxCell id="jSy04V-H2U9Q2VYe3FMI-9" value="m" style="rounded=0;whiteSpace=wrap;html=1;fontSize=16;fillColor=#ffe6cc;strokeColor=#d79b00;" parent="BVEu7o4c-sR8T7UEBEOM-1" vertex="1">
          <mxGeometry x="240" y="580" width="80" height="40" as="geometry" />
        </mxCell>
        <mxCell id="jSy04V-H2U9Q2VYe3FMI-10" value="c" style="rounded=0;whiteSpace=wrap;html=1;fontSize=16;fillColor=#ffe6cc;strokeColor=#d79b00;" parent="BVEu7o4c-sR8T7UEBEOM-1" vertex="1">
          <mxGeometry x="240" y="620" width="80" height="40" as="geometry" />
        </mxCell>
        <mxCell id="jSy04V-H2U9Q2VYe3FMI-11" value="t" style="rounded=0;whiteSpace=wrap;html=1;fontSize=16;fillColor=#ffe6cc;strokeColor=#d79b00;" parent="BVEu7o4c-sR8T7UEBEOM-1" vertex="1">
          <mxGeometry x="240" y="660" width="80" height="40" as="geometry" />
        </mxCell>
        <mxCell id="jSy04V-H2U9Q2VYe3FMI-12" value="&amp;nbsp;0" style="rounded=0;whiteSpace=wrap;html=1;fontSize=16;align=left;" parent="BVEu7o4c-sR8T7UEBEOM-1" vertex="1">
          <mxGeometry x="320" y="460" width="270" height="40" as="geometry" />
        </mxCell>
        <mxCell id="jSy04V-H2U9Q2VYe3FMI-13" value="&amp;nbsp;/api/joynav/navigation/commonrb.joy" style="rounded=0;whiteSpace=wrap;html=1;fontSize=16;align=left;" parent="BVEu7o4c-sR8T7UEBEOM-1" vertex="1">
          <mxGeometry x="320" y="500" width="270" height="40" as="geometry" />
        </mxCell>
        <mxCell id="jSy04V-H2U9Q2VYe3FMI-14" value="&amp;nbsp;shopid:shopId" style="rounded=0;whiteSpace=wrap;html=1;fontSize=16;align=left;" parent="BVEu7o4c-sR8T7UEBEOM-1" vertex="1">
          <mxGeometry x="320" y="540" width="270" height="40" as="geometry" />
        </mxCell>
        <mxCell id="jSy04V-H2U9Q2VYe3FMI-15" value="&amp;nbsp;glat:lat84,glng:lng" style="rounded=0;whiteSpace=wrap;html=1;fontSize=16;align=left;" parent="BVEu7o4c-sR8T7UEBEOM-1" vertex="1">
          <mxGeometry x="320" y="580" width="270" height="40" as="geometry" />
        </mxCell>
        <mxCell id="jSy04V-H2U9Q2VYe3FMI-16" value="&amp;nbsp;scenetype:dp:mt,tab:true:true" style="rounded=0;whiteSpace=wrap;html=1;fontSize=16;align=left;" parent="BVEu7o4c-sR8T7UEBEOM-1" vertex="1">
          <mxGeometry x="320" y="620" width="270" height="40" as="geometry" />
        </mxCell>
        <mxCell id="jSy04V-H2U9Q2VYe3FMI-17" value="&amp;nbsp;0101" style="rounded=0;whiteSpace=wrap;html=1;fontSize=16;align=left;" parent="BVEu7o4c-sR8T7UEBEOM-1" vertex="1">
          <mxGeometry x="320" y="660" width="270" height="40" as="geometry" />
        </mxCell>
        <mxCell id="jSy04V-H2U9Q2VYe3FMI-18" value="DSL 解析器" style="shape=singleArrow;whiteSpace=wrap;html=1;fontSize=16;fillColor=#d5e8d4;strokeColor=#82b366;" parent="BVEu7o4c-sR8T7UEBEOM-1" vertex="1">
          <mxGeometry x="614" y="540" width="150" height="77" as="geometry" />
        </mxCell>
        <mxCell id="jSy04V-H2U9Q2VYe3FMI-20" value="https://www.mapi.dianping.com&lt;span style=&quot;text-align: left&quot;&gt;/api/joynav/navigation/commonrb.joy?&lt;br&gt;shopid=20202020&amp;amp;glat=123&amp;amp;glng=456&amp;amp;&lt;/span&gt;&lt;span style=&quot;text-align: left&quot;&gt;scenetype=dp&amp;amp;tab=true&lt;/span&gt;&lt;span style=&quot;text-align: left&quot;&gt;&lt;br&gt;&lt;/span&gt;" style="rounded=0;whiteSpace=wrap;html=1;fontSize=16;strokeColor=none;" parent="BVEu7o4c-sR8T7UEBEOM-1" vertex="1">
          <mxGeometry x="777" y="547" width="510" height="60" as="geometry" />
        </mxCell>
        <mxCell id="jSy04V-H2U9Q2VYe3FMI-22" value="MAPI DSL" style="text;html=1;align=center;verticalAlign=middle;resizable=0;points=[];autosize=1;fontSize=16;" parent="BVEu7o4c-sR8T7UEBEOM-1" vertex="1">
          <mxGeometry x="235" y="408" width="85" height="23" as="geometry" />
        </mxCell>
        <mxCell id="jSy04V-H2U9Q2VYe3FMI-23" value="网络请求链接" style="text;html=1;align=center;verticalAlign=middle;resizable=0;points=[];autosize=1;fontSize=16;" parent="BVEu7o4c-sR8T7UEBEOM-1" vertex="1">
          <mxGeometry x="966" y="408" width="106" height="23" as="geometry" />
        </mxCell>
      </root>
    </mxGraphModel>
  </diagram>
  <diagram name="第 4 页" id="Is8bHJRAOLoJa3hv2NJ0">
    <mxGraphModel dx="1426" dy="794" grid="0" gridSize="10" guides="1" tooltips="1" connect="1" arrows="1" fold="1" page="1" pageScale="1" pageWidth="1600" pageHeight="900" math="0" shadow="0">
      <root>
        <mxCell id="o9sROefwqtnzPwSl4HxR-0" />
        <mxCell id="o9sROefwqtnzPwSl4HxR-1" parent="o9sROefwqtnzPwSl4HxR-0" />
        <mxCell id="o9sROefwqtnzPwSl4HxR-5" value="pageId_____moduleName_____URL&lt;br&gt;预加载 mapi_id" style="rounded=1;whiteSpace=wrap;html=1;fontSize=16;fillColor=#d5e8d4;strokeColor=none;" parent="o9sROefwqtnzPwSl4HxR-1" vertex="1">
          <mxGeometry x="190" y="360" width="550" height="110" as="geometry" />
        </mxCell>
        <mxCell id="iIgEJNv7t-XBgLkZmHLu-0" style="edgeStyle=orthogonalEdgeStyle;rounded=1;orthogonalLoop=1;jettySize=auto;html=1;exitX=0.5;exitY=1;exitDx=0;exitDy=0;entryX=0.296;entryY=0.336;entryDx=0;entryDy=0;entryPerimeter=0;startSize=34;strokeColor=#33001A;strokeWidth=2;fontSize=16;" parent="o9sROefwqtnzPwSl4HxR-1" source="o9sROefwqtnzPwSl4HxR-2" target="o9sROefwqtnzPwSl4HxR-5" edge="1">
          <mxGeometry relative="1" as="geometry" />
        </mxCell>
        <mxCell id="iIgEJNv7t-XBgLkZmHLu-3" value="提供页面id" style="text;html=1;align=center;verticalAlign=middle;resizable=0;points=[];labelBackgroundColor=#ffffff;fontSize=16;" parent="iIgEJNv7t-XBgLkZmHLu-0" vertex="1" connectable="0">
          <mxGeometry x="-0.7809" relative="1" as="geometry">
            <mxPoint as="offset" />
          </mxGeometry>
        </mxCell>
        <mxCell id="iIgEJNv7t-XBgLkZmHLu-4" value="提供模块名称" style="text;html=1;align=center;verticalAlign=middle;resizable=0;points=[];labelBackgroundColor=#ffffff;fontSize=16;" parent="iIgEJNv7t-XBgLkZmHLu-0" vertex="1" connectable="0">
          <mxGeometry x="-0.7809" relative="1" as="geometry">
            <mxPoint x="218" as="offset" />
          </mxGeometry>
        </mxCell>
        <mxCell id="iIgEJNv7t-XBgLkZmHLu-5" value="提供请求URL" style="text;html=1;align=center;verticalAlign=middle;resizable=0;points=[];labelBackgroundColor=#FFFFFF;fontSize=16;" parent="iIgEJNv7t-XBgLkZmHLu-0" vertex="1" connectable="0">
          <mxGeometry x="-0.7809" relative="1" as="geometry">
            <mxPoint x="427" as="offset" />
          </mxGeometry>
        </mxCell>
        <mxCell id="o9sROefwqtnzPwSl4HxR-2" value="页面id&lt;br&gt;pageId" style="rounded=1;whiteSpace=wrap;html=1;fontSize=16;fillColor=#fff2cc;strokeColor=none;" parent="o9sROefwqtnzPwSl4HxR-1" vertex="1">
          <mxGeometry x="190" y="175" width="120" height="60" as="geometry" />
        </mxCell>
        <mxCell id="iIgEJNv7t-XBgLkZmHLu-1" style="edgeStyle=orthogonalEdgeStyle;rounded=1;orthogonalLoop=1;jettySize=auto;html=1;exitX=0.5;exitY=1;exitDx=0;exitDy=0;entryX=0.509;entryY=0.318;entryDx=0;entryDy=0;entryPerimeter=0;startSize=34;strokeColor=#33001A;strokeWidth=2;fontSize=16;" parent="o9sROefwqtnzPwSl4HxR-1" source="o9sROefwqtnzPwSl4HxR-3" target="o9sROefwqtnzPwSl4HxR-5" edge="1">
          <mxGeometry relative="1" as="geometry" />
        </mxCell>
        <mxCell id="o9sROefwqtnzPwSl4HxR-3" value="Horn配置" style="rounded=1;whiteSpace=wrap;html=1;fontSize=16;fillColor=#fff2cc;strokeColor=none;" parent="o9sROefwqtnzPwSl4HxR-1" vertex="1">
          <mxGeometry x="410" y="175" width="120" height="60" as="geometry" />
        </mxCell>
        <mxCell id="iIgEJNv7t-XBgLkZmHLu-2" style="edgeStyle=orthogonalEdgeStyle;rounded=1;orthogonalLoop=1;jettySize=auto;html=1;exitX=0.5;exitY=1;exitDx=0;exitDy=0;entryX=0.715;entryY=0.364;entryDx=0;entryDy=0;entryPerimeter=0;startSize=34;strokeColor=#33001A;strokeWidth=2;fontSize=16;" parent="o9sROefwqtnzPwSl4HxR-1" source="o9sROefwqtnzPwSl4HxR-4" target="o9sROefwqtnzPwSl4HxR-5" edge="1">
          <mxGeometry relative="1" as="geometry" />
        </mxCell>
        <mxCell id="o9sROefwqtnzPwSl4HxR-4" value="DSL解析器" style="rounded=1;whiteSpace=wrap;html=1;fontSize=16;fillColor=#fff2cc;strokeColor=none;" parent="o9sROefwqtnzPwSl4HxR-1" vertex="1">
          <mxGeometry x="620" y="175" width="120" height="60" as="geometry" />
        </mxCell>
      </root>
    </mxGraphModel>
  </diagram>
  <diagram name="第 5 页" id="u5_0Sj4_M5hBN0G5Ti2_">
    <mxGraphModel dx="1426" dy="794" grid="0" gridSize="10" guides="1" tooltips="1" connect="1" arrows="1" fold="1" page="1" pageScale="1" pageWidth="1600" pageHeight="900" math="0" shadow="0">
      <root>
        <mxCell id="AGuq-E12V3T2bcplnPZH-0" />
        <mxCell id="AGuq-E12V3T2bcplnPZH-1" parent="AGuq-E12V3T2bcplnPZH-0" />
        <mxCell id="yfEVClcct0HWljqQgZoP-0" style="edgeStyle=orthogonalEdgeStyle;rounded=1;orthogonalLoop=1;jettySize=auto;html=1;exitX=1;exitY=0.5;exitDx=0;exitDy=0;entryX=0;entryY=0.5;entryDx=0;entryDy=0;startSize=34;strokeColor=#33001A;strokeWidth=2;fontSize=16;" parent="AGuq-E12V3T2bcplnPZH-1" source="AGuq-E12V3T2bcplnPZH-2" target="AGuq-E12V3T2bcplnPZH-3" edge="1">
          <mxGeometry relative="1" as="geometry" />
        </mxCell>
        <mxCell id="yfEVClcct0HWljqQgZoP-1" value="发送网络请求" style="text;html=1;align=center;verticalAlign=middle;resizable=0;points=[];labelBackgroundColor=#ffffff;fontSize=16;" parent="yfEVClcct0HWljqQgZoP-0" vertex="1" connectable="0">
          <mxGeometry x="-0.0429" y="2" relative="1" as="geometry">
            <mxPoint as="offset" />
          </mxGeometry>
        </mxCell>
        <mxCell id="AGuq-E12V3T2bcplnPZH-2" value="初始&lt;br&gt;Default" style="rounded=1;whiteSpace=wrap;html=1;fontSize=16;fillColor=#d5e8d4;strokeColor=none;" parent="AGuq-E12V3T2bcplnPZH-1" vertex="1">
          <mxGeometry x="300" y="330" width="120" height="60" as="geometry" />
        </mxCell>
        <mxCell id="yfEVClcct0HWljqQgZoP-2" style="edgeStyle=orthogonalEdgeStyle;rounded=1;orthogonalLoop=1;jettySize=auto;html=1;exitX=1;exitY=0.5;exitDx=0;exitDy=0;entryX=0;entryY=0.5;entryDx=0;entryDy=0;startSize=34;strokeColor=#33001A;strokeWidth=2;fontSize=16;" parent="AGuq-E12V3T2bcplnPZH-1" source="AGuq-E12V3T2bcplnPZH-3" target="AGuq-E12V3T2bcplnPZH-4" edge="1">
          <mxGeometry relative="1" as="geometry" />
        </mxCell>
        <mxCell id="yfEVClcct0HWljqQgZoP-4" value="请求成功" style="text;html=1;align=center;verticalAlign=middle;resizable=0;points=[];labelBackgroundColor=#ffffff;fontSize=16;" parent="yfEVClcct0HWljqQgZoP-2" vertex="1" connectable="0">
          <mxGeometry x="0.0167" relative="1" as="geometry">
            <mxPoint as="offset" />
          </mxGeometry>
        </mxCell>
        <mxCell id="yfEVClcct0HWljqQgZoP-3" style="edgeStyle=orthogonalEdgeStyle;rounded=1;orthogonalLoop=1;jettySize=auto;html=1;exitX=1;exitY=0.5;exitDx=0;exitDy=0;entryX=0;entryY=0.5;entryDx=0;entryDy=0;startSize=34;strokeColor=#33001A;strokeWidth=2;fontSize=16;" parent="AGuq-E12V3T2bcplnPZH-1" source="AGuq-E12V3T2bcplnPZH-3" target="AGuq-E12V3T2bcplnPZH-5" edge="1">
          <mxGeometry relative="1" as="geometry" />
        </mxCell>
        <mxCell id="yfEVClcct0HWljqQgZoP-5" value="请求失败" style="text;html=1;align=center;verticalAlign=middle;resizable=0;points=[];labelBackgroundColor=#ffffff;fontSize=16;" parent="yfEVClcct0HWljqQgZoP-3" vertex="1" connectable="0">
          <mxGeometry x="0.0167" relative="1" as="geometry">
            <mxPoint as="offset" />
          </mxGeometry>
        </mxCell>
        <mxCell id="AGuq-E12V3T2bcplnPZH-3" value="请求中&lt;br&gt;Loading" style="rounded=1;whiteSpace=wrap;html=1;fontSize=16;fillColor=#d5e8d4;strokeColor=none;" parent="AGuq-E12V3T2bcplnPZH-1" vertex="1">
          <mxGeometry x="560" y="330" width="120" height="60" as="geometry" />
        </mxCell>
        <mxCell id="AGuq-E12V3T2bcplnPZH-4" value="成功&lt;br&gt;Loading" style="rounded=1;whiteSpace=wrap;html=1;fontSize=16;fillColor=#d5e8d4;strokeColor=none;" parent="AGuq-E12V3T2bcplnPZH-1" vertex="1">
          <mxGeometry x="810" y="220" width="120" height="60" as="geometry" />
        </mxCell>
        <mxCell id="AGuq-E12V3T2bcplnPZH-5" value="失败&lt;br&gt;Fail" style="rounded=1;whiteSpace=wrap;html=1;fontSize=16;fillColor=#d5e8d4;strokeColor=none;" parent="AGuq-E12V3T2bcplnPZH-1" vertex="1">
          <mxGeometry x="810" y="440" width="120" height="60" as="geometry" />
        </mxCell>
      </root>
    </mxGraphModel>
  </diagram>
  <diagram name="第 6 页" id="iIUfO57Svd69I0HyPLLd">
    <mxGraphModel dx="1426" dy="794" grid="0" gridSize="10" guides="1" tooltips="1" connect="1" arrows="1" fold="1" page="1" pageScale="1" pageWidth="1600" pageHeight="900" math="0" shadow="0">
      <root>
        <mxCell id="BriWv-vmo1N7x2wwOKdz-0" />
        <mxCell id="BriWv-vmo1N7x2wwOKdz-1" parent="BriWv-vmo1N7x2wwOKdz-0" />
        <mxCell id="mE-JoqzW7ylVvbQhnOvD-14" value="" style="rounded=1;whiteSpace=wrap;html=1;shadow=0;strokeColor=none;strokeWidth=2;fillColor=#E6E6E6;gradientColor=none;fontSize=16;" parent="BriWv-vmo1N7x2wwOKdz-1" vertex="1">
          <mxGeometry x="249" y="176" width="1103" height="463" as="geometry" />
        </mxCell>
        <mxCell id="mE-JoqzW7ylVvbQhnOvD-3" style="edgeStyle=orthogonalEdgeStyle;rounded=1;orthogonalLoop=1;jettySize=auto;html=1;exitX=1;exitY=0.5;exitDx=0;exitDy=0;entryX=0;entryY=0.5;entryDx=0;entryDy=0;startSize=34;strokeColor=#33001A;strokeWidth=2;fontSize=16;" parent="BriWv-vmo1N7x2wwOKdz-1" source="BriWv-vmo1N7x2wwOKdz-2" target="BriWv-vmo1N7x2wwOKdz-5" edge="1">
          <mxGeometry relative="1" as="geometry" />
        </mxCell>
        <mxCell id="BriWv-vmo1N7x2wwOKdz-2" value="进入频道首页" style="ellipse;whiteSpace=wrap;html=1;aspect=fixed;fontSize=16;fillColor=#f8cecc;strokeColor=none;" parent="BriWv-vmo1N7x2wwOKdz-1" vertex="1">
          <mxGeometry x="140" y="200" width="80" height="80" as="geometry" />
        </mxCell>
        <mxCell id="mE-JoqzW7ylVvbQhnOvD-2" style="edgeStyle=orthogonalEdgeStyle;rounded=1;orthogonalLoop=1;jettySize=auto;html=1;exitX=1;exitY=0.5;exitDx=0;exitDy=0;entryX=0;entryY=0.5;entryDx=0;entryDy=0;startSize=34;strokeColor=#33001A;strokeWidth=2;fontSize=16;" parent="BriWv-vmo1N7x2wwOKdz-1" source="BriWv-vmo1N7x2wwOKdz-3" target="BriWv-vmo1N7x2wwOKdz-18" edge="1">
          <mxGeometry relative="1" as="geometry" />
        </mxCell>
        <mxCell id="BriWv-vmo1N7x2wwOKdz-3" value="TS侧调用网络桥" style="ellipse;whiteSpace=wrap;html=1;aspect=fixed;fontSize=16;fillColor=#f8cecc;strokeColor=none;" parent="BriWv-vmo1N7x2wwOKdz-1" vertex="1">
          <mxGeometry x="140" y="370" width="80" height="80" as="geometry" />
        </mxCell>
        <mxCell id="mE-JoqzW7ylVvbQhnOvD-12" style="edgeStyle=orthogonalEdgeStyle;rounded=1;orthogonalLoop=1;jettySize=auto;html=1;exitX=1;exitY=0.5;exitDx=0;exitDy=0;startSize=34;strokeColor=#33001A;strokeWidth=2;fontSize=16;" parent="BriWv-vmo1N7x2wwOKdz-1" source="BriWv-vmo1N7x2wwOKdz-4" target="BriWv-vmo1N7x2wwOKdz-21" edge="1">
          <mxGeometry relative="1" as="geometry" />
        </mxCell>
        <mxCell id="BriWv-vmo1N7x2wwOKdz-4" value="页面销毁" style="ellipse;whiteSpace=wrap;html=1;aspect=fixed;fontSize=16;fillColor=#f8cecc;strokeColor=none;" parent="BriWv-vmo1N7x2wwOKdz-1" vertex="1">
          <mxGeometry x="140" y="537" width="80" height="80" as="geometry" />
        </mxCell>
        <mxCell id="mE-JoqzW7ylVvbQhnOvD-4" style="edgeStyle=orthogonalEdgeStyle;rounded=1;orthogonalLoop=1;jettySize=auto;html=1;exitX=1;exitY=0.5;exitDx=0;exitDy=0;entryX=0;entryY=0.5;entryDx=0;entryDy=0;startSize=34;strokeColor=#33001A;strokeWidth=2;fontSize=16;" parent="BriWv-vmo1N7x2wwOKdz-1" source="BriWv-vmo1N7x2wwOKdz-5" target="BriWv-vmo1N7x2wwOKdz-6" edge="1">
          <mxGeometry relative="1" as="geometry" />
        </mxCell>
        <mxCell id="BriWv-vmo1N7x2wwOKdz-5" value="为页面分配pageId" style="rounded=1;whiteSpace=wrap;html=1;fontSize=16;fillColor=#fff2cc;strokeColor=none;" parent="BriWv-vmo1N7x2wwOKdz-1" vertex="1">
          <mxGeometry x="290" y="210" width="120" height="60" as="geometry" />
        </mxCell>
        <mxCell id="mE-JoqzW7ylVvbQhnOvD-5" style="edgeStyle=orthogonalEdgeStyle;rounded=1;orthogonalLoop=1;jettySize=auto;html=1;exitX=1;exitY=0.5;exitDx=0;exitDy=0;entryX=0;entryY=0.5;entryDx=0;entryDy=0;startSize=34;strokeColor=#33001A;strokeWidth=2;fontSize=16;" parent="BriWv-vmo1N7x2wwOKdz-1" source="BriWv-vmo1N7x2wwOKdz-6" target="BriWv-vmo1N7x2wwOKdz-7" edge="1">
          <mxGeometry relative="1" as="geometry" />
        </mxCell>
        <mxCell id="BriWv-vmo1N7x2wwOKdz-6" value="Horn配置获取&lt;br&gt;预加载DSL" style="rounded=1;whiteSpace=wrap;html=1;fontSize=16;fillColor=#fff2cc;strokeColor=none;" parent="BriWv-vmo1N7x2wwOKdz-1" vertex="1">
          <mxGeometry x="472.5" y="210" width="120" height="60" as="geometry" />
        </mxCell>
        <mxCell id="mE-JoqzW7ylVvbQhnOvD-6" style="edgeStyle=orthogonalEdgeStyle;rounded=1;orthogonalLoop=1;jettySize=auto;html=1;exitX=1;exitY=0.5;exitDx=0;exitDy=0;entryX=0;entryY=0.5;entryDx=0;entryDy=0;startSize=34;strokeColor=#33001A;strokeWidth=2;fontSize=16;" parent="BriWv-vmo1N7x2wwOKdz-1" source="BriWv-vmo1N7x2wwOKdz-7" target="BriWv-vmo1N7x2wwOKdz-8" edge="1">
          <mxGeometry relative="1" as="geometry" />
        </mxCell>
        <mxCell id="BriWv-vmo1N7x2wwOKdz-7" value="预加载DSL&lt;br&gt;解析成请求链接" style="rounded=1;whiteSpace=wrap;html=1;fontSize=16;fillColor=#fff2cc;strokeColor=none;" parent="BriWv-vmo1N7x2wwOKdz-1" vertex="1">
          <mxGeometry x="661" y="210" width="120" height="60" as="geometry" />
        </mxCell>
        <mxCell id="mE-JoqzW7ylVvbQhnOvD-7" style="edgeStyle=orthogonalEdgeStyle;rounded=1;orthogonalLoop=1;jettySize=auto;html=1;exitX=1;exitY=0.5;exitDx=0;exitDy=0;entryX=0;entryY=0.5;entryDx=0;entryDy=0;startSize=34;strokeColor=#33001A;strokeWidth=2;fontSize=16;" parent="BriWv-vmo1N7x2wwOKdz-1" source="BriWv-vmo1N7x2wwOKdz-8" target="BriWv-vmo1N7x2wwOKdz-9" edge="1">
          <mxGeometry relative="1" as="geometry" />
        </mxCell>
        <mxCell id="BriWv-vmo1N7x2wwOKdz-8" value="为每个请求链接生成唯一mapi_id" style="rounded=1;whiteSpace=wrap;html=1;fontSize=16;fillColor=#fff2cc;strokeColor=none;" parent="BriWv-vmo1N7x2wwOKdz-1" vertex="1">
          <mxGeometry x="845" y="210" width="120" height="60" as="geometry" />
        </mxCell>
        <mxCell id="mE-JoqzW7ylVvbQhnOvD-11" style="edgeStyle=orthogonalEdgeStyle;rounded=1;orthogonalLoop=1;jettySize=auto;html=1;exitX=0.5;exitY=1;exitDx=0;exitDy=0;entryX=0.5;entryY=0.125;entryDx=0;entryDy=0;entryPerimeter=0;startSize=34;strokeColor=#33001A;strokeWidth=2;fontSize=16;" parent="BriWv-vmo1N7x2wwOKdz-1" source="BriWv-vmo1N7x2wwOKdz-9" target="BriWv-vmo1N7x2wwOKdz-15" edge="1">
          <mxGeometry relative="1" as="geometry" />
        </mxCell>
        <mxCell id="BriWv-vmo1N7x2wwOKdz-9" value="发送网络请求" style="rounded=1;whiteSpace=wrap;html=1;fontSize=16;fillColor=#fff2cc;strokeColor=none;" parent="BriWv-vmo1N7x2wwOKdz-1" vertex="1">
          <mxGeometry x="1035" y="210" width="120" height="60" as="geometry" />
        </mxCell>
        <mxCell id="mE-JoqzW7ylVvbQhnOvD-10" style="edgeStyle=orthogonalEdgeStyle;rounded=1;orthogonalLoop=1;jettySize=auto;html=1;exitX=0.875;exitY=0.5;exitDx=0;exitDy=0;exitPerimeter=0;entryX=0;entryY=0.5;entryDx=0;entryDy=0;startSize=34;strokeColor=#33001A;strokeWidth=2;fontSize=16;" parent="BriWv-vmo1N7x2wwOKdz-1" source="BriWv-vmo1N7x2wwOKdz-15" target="BriWv-vmo1N7x2wwOKdz-29" edge="1">
          <mxGeometry relative="1" as="geometry" />
        </mxCell>
        <mxCell id="BriWv-vmo1N7x2wwOKdz-15" value="请求状态&lt;br&gt;管理器" style="ellipse;shape=cloud;whiteSpace=wrap;html=1;fontSize=16;fillColor=#e1d5e7;strokeColor=none;" parent="BriWv-vmo1N7x2wwOKdz-1" vertex="1">
          <mxGeometry x="1020" y="350" width="150" height="120" as="geometry" />
        </mxCell>
        <mxCell id="mE-JoqzW7ylVvbQhnOvD-0" style="edgeStyle=orthogonalEdgeStyle;orthogonalLoop=1;jettySize=auto;html=1;exitX=0.5;exitY=1;exitDx=0;exitDy=0;entryX=0;entryY=0.5;entryDx=0;entryDy=0;startSize=34;strokeColor=#33001A;strokeWidth=2;fontSize=16;rounded=1;" parent="BriWv-vmo1N7x2wwOKdz-1" source="BriWv-vmo1N7x2wwOKdz-18" target="BriWv-vmo1N7x2wwOKdz-34" edge="1">
          <mxGeometry relative="1" as="geometry" />
        </mxCell>
        <mxCell id="mE-JoqzW7ylVvbQhnOvD-13" value="N" style="text;html=1;align=center;verticalAlign=middle;resizable=0;points=[];labelBackgroundColor=#ffffff;fontSize=16;" parent="mE-JoqzW7ylVvbQhnOvD-0" vertex="1" connectable="0">
          <mxGeometry x="0.1712" relative="1" as="geometry">
            <mxPoint as="offset" />
          </mxGeometry>
        </mxCell>
        <mxCell id="mE-JoqzW7ylVvbQhnOvD-8" style="edgeStyle=orthogonalEdgeStyle;rounded=1;orthogonalLoop=1;jettySize=auto;html=1;exitX=1;exitY=0.5;exitDx=0;exitDy=0;entryX=0.107;entryY=0.5;entryDx=0;entryDy=0;entryPerimeter=0;startSize=34;strokeColor=#33001A;strokeWidth=2;fontSize=16;" parent="BriWv-vmo1N7x2wwOKdz-1" source="BriWv-vmo1N7x2wwOKdz-18" target="BriWv-vmo1N7x2wwOKdz-15" edge="1">
          <mxGeometry relative="1" as="geometry" />
        </mxCell>
        <mxCell id="mE-JoqzW7ylVvbQhnOvD-9" value="Y" style="text;html=1;align=center;verticalAlign=middle;resizable=0;points=[];labelBackgroundColor=#ffffff;fontSize=16;" parent="mE-JoqzW7ylVvbQhnOvD-8" vertex="1" connectable="0">
          <mxGeometry x="-0.0503" y="2" relative="1" as="geometry">
            <mxPoint as="offset" />
          </mxGeometry>
        </mxCell>
        <mxCell id="BriWv-vmo1N7x2wwOKdz-18" value="根据mapi_id&lt;br&gt;判断是否是预加载&lt;br&gt;网络请求" style="rhombus;whiteSpace=wrap;html=1;fontSize=16;fillColor=#d5e8d4;strokeColor=none;" parent="BriWv-vmo1N7x2wwOKdz-1" vertex="1">
          <mxGeometry x="443" y="335" width="175" height="150" as="geometry" />
        </mxCell>
        <mxCell id="BriWv-vmo1N7x2wwOKdz-21" value="根据页面pageId释放资源" style="rounded=1;whiteSpace=wrap;html=1;fontSize=16;fillColor=#fff2cc;strokeColor=none;" parent="BriWv-vmo1N7x2wwOKdz-1" vertex="1">
          <mxGeometry x="290" y="547" width="120" height="60" as="geometry" />
        </mxCell>
        <mxCell id="BriWv-vmo1N7x2wwOKdz-29" value="Picasso TS层&lt;br&gt;业务" style="rounded=1;whiteSpace=wrap;html=1;fontSize=16;fillColor=#fff2cc;strokeColor=none;" parent="BriWv-vmo1N7x2wwOKdz-1" vertex="1">
          <mxGeometry x="1218" y="380" width="120" height="60" as="geometry" />
        </mxCell>
        <mxCell id="mE-JoqzW7ylVvbQhnOvD-1" style="edgeStyle=orthogonalEdgeStyle;rounded=1;orthogonalLoop=1;jettySize=auto;html=1;exitX=1;exitY=0.5;exitDx=0;exitDy=0;entryX=0.5;entryY=1;entryDx=0;entryDy=0;startSize=34;strokeColor=#33001A;strokeWidth=2;fontSize=16;" parent="BriWv-vmo1N7x2wwOKdz-1" source="BriWv-vmo1N7x2wwOKdz-34" target="BriWv-vmo1N7x2wwOKdz-29" edge="1">
          <mxGeometry relative="1" as="geometry" />
        </mxCell>
        <mxCell id="BriWv-vmo1N7x2wwOKdz-34" value="发送网络请求" style="rounded=1;whiteSpace=wrap;html=1;fontSize=16;fillColor=#fff2cc;strokeColor=none;" parent="BriWv-vmo1N7x2wwOKdz-1" vertex="1">
          <mxGeometry x="667" y="485" width="120" height="60" as="geometry" />
        </mxCell>
        <mxCell id="QNqdnXilPN7SxzqRK5ZP-0" value="&lt;font style=&quot;font-size: 20px&quot;&gt;1&lt;/font&gt;" style="text;html=1;align=center;verticalAlign=middle;resizable=0;points=[];autosize=1;fontSize=16;" parent="BriWv-vmo1N7x2wwOKdz-1" vertex="1">
          <mxGeometry x="100" y="227.5" width="21" height="25" as="geometry" />
        </mxCell>
        <mxCell id="QNqdnXilPN7SxzqRK5ZP-1" value="&lt;span style=&quot;font-size: 20px&quot;&gt;2&lt;/span&gt;" style="text;html=1;align=center;verticalAlign=middle;resizable=0;points=[];autosize=1;fontSize=16;" parent="BriWv-vmo1N7x2wwOKdz-1" vertex="1">
          <mxGeometry x="100" y="397.5" width="21" height="25" as="geometry" />
        </mxCell>
        <mxCell id="QNqdnXilPN7SxzqRK5ZP-2" value="&lt;span style=&quot;font-size: 20px&quot;&gt;3&lt;/span&gt;" style="text;html=1;align=center;verticalAlign=middle;resizable=0;points=[];autosize=1;fontSize=16;" parent="BriWv-vmo1N7x2wwOKdz-1" vertex="1">
          <mxGeometry x="100" y="564.5" width="21" height="25" as="geometry" />
        </mxCell>
        <mxCell id="4foo5qLHmx0ggML_GmwE-0" value="&lt;font style=&quot;font-size: 24px&quot;&gt;预加载SDK&lt;/font&gt;" style="text;html=1;align=center;verticalAlign=middle;resizable=0;points=[];autosize=1;fontSize=16;" parent="BriWv-vmo1N7x2wwOKdz-1" vertex="1">
          <mxGeometry x="729" y="128" width="131" height="26" as="geometry" />
        </mxCell>
      </root>
    </mxGraphModel>
  </diagram>
  <diagram name="第 7 页" id="ILwuH4TISOPG-tIdgpOq">
    <mxGraphModel dx="1426" dy="794" grid="0" gridSize="10" guides="1" tooltips="1" connect="1" arrows="1" fold="1" page="1" pageScale="1" pageWidth="1920" pageHeight="1200" math="0" shadow="0">
      <root>
        <mxCell id="XmZaQMFD-iz3wnsjfVy2-0" />
        <mxCell id="XmZaQMFD-iz3wnsjfVy2-1" parent="XmZaQMFD-iz3wnsjfVy2-0" />
        <mxCell id="XmZaQMFD-iz3wnsjfVy2-2" value="" style="rounded=1;whiteSpace=wrap;html=1;shadow=1;dashed=1;strokeColor=#82b366;fontSize=16;fillColor=#d5e8d4;gradientDirection=north;gradientColor=#ffffff;" parent="XmZaQMFD-iz3wnsjfVy2-1" vertex="1">
          <mxGeometry x="938.5" y="290" width="153" height="459" as="geometry" />
        </mxCell>
        <mxCell id="XmZaQMFD-iz3wnsjfVy2-3" value="&lt;font style=&quot;font-size: 18px&quot;&gt;容器初始化&lt;/font&gt;" style="rounded=1;whiteSpace=wrap;html=1;" parent="XmZaQMFD-iz3wnsjfVy2-1" vertex="1">
          <mxGeometry x="330" y="314.5" width="120" height="40" as="geometry" />
        </mxCell>
        <mxCell id="XmZaQMFD-iz3wnsjfVy2-4" value="" style="endArrow=none;dashed=1;html=1;entryX=0.5;entryY=1;entryDx=0;entryDy=0;" parent="XmZaQMFD-iz3wnsjfVy2-1" source="XmZaQMFD-iz3wnsjfVy2-17" target="XmZaQMFD-iz3wnsjfVy2-3" edge="1">
          <mxGeometry width="50" height="50" relative="1" as="geometry">
            <mxPoint x="390" y="734.5" as="sourcePoint" />
            <mxPoint x="410" y="384.5" as="targetPoint" />
          </mxGeometry>
        </mxCell>
        <mxCell id="XmZaQMFD-iz3wnsjfVy2-5" value="&lt;span style=&quot;font-size: 18px&quot;&gt;加载页面JS&lt;/span&gt;" style="rounded=1;whiteSpace=wrap;html=1;" parent="XmZaQMFD-iz3wnsjfVy2-1" vertex="1">
          <mxGeometry x="480" y="314.5" width="120" height="40" as="geometry" />
        </mxCell>
        <mxCell id="XmZaQMFD-iz3wnsjfVy2-6" value="" style="endArrow=none;dashed=1;html=1;entryX=0.5;entryY=1;entryDx=0;entryDy=0;" parent="XmZaQMFD-iz3wnsjfVy2-1" source="XmZaQMFD-iz3wnsjfVy2-19" target="XmZaQMFD-iz3wnsjfVy2-5" edge="1">
          <mxGeometry width="50" height="50" relative="1" as="geometry">
            <mxPoint x="540" y="734.5" as="sourcePoint" />
            <mxPoint x="560" y="384.5" as="targetPoint" />
          </mxGeometry>
        </mxCell>
        <mxCell id="XmZaQMFD-iz3wnsjfVy2-7" value="&lt;span style=&quot;font-size: 18px&quot;&gt;加载模块JS&lt;/span&gt;" style="rounded=1;whiteSpace=wrap;html=1;" parent="XmZaQMFD-iz3wnsjfVy2-1" vertex="1">
          <mxGeometry x="630" y="314.5" width="120" height="40" as="geometry" />
        </mxCell>
        <mxCell id="XmZaQMFD-iz3wnsjfVy2-8" value="" style="endArrow=none;dashed=1;html=1;entryX=0.5;entryY=1;entryDx=0;entryDy=0;" parent="XmZaQMFD-iz3wnsjfVy2-1" source="XmZaQMFD-iz3wnsjfVy2-21" target="XmZaQMFD-iz3wnsjfVy2-7" edge="1">
          <mxGeometry width="50" height="50" relative="1" as="geometry">
            <mxPoint x="690" y="734.5" as="sourcePoint" />
            <mxPoint x="710" y="384.5" as="targetPoint" />
          </mxGeometry>
        </mxCell>
        <mxCell id="XmZaQMFD-iz3wnsjfVy2-9" value="&lt;span style=&quot;font-size: 18px&quot;&gt;白板获取请求参数&lt;/span&gt;" style="rounded=1;whiteSpace=wrap;html=1;" parent="XmZaQMFD-iz3wnsjfVy2-1" vertex="1">
          <mxGeometry x="805" y="314.5" width="120" height="40" as="geometry" />
        </mxCell>
        <mxCell id="XmZaQMFD-iz3wnsjfVy2-10" value="" style="endArrow=none;dashed=1;html=1;entryX=0.5;entryY=1;entryDx=0;entryDy=0;" parent="XmZaQMFD-iz3wnsjfVy2-1" target="XmZaQMFD-iz3wnsjfVy2-9" edge="1">
          <mxGeometry width="50" height="50" relative="1" as="geometry">
            <mxPoint x="865" y="464.5" as="sourcePoint" />
            <mxPoint x="885" y="384.5" as="targetPoint" />
          </mxGeometry>
        </mxCell>
        <mxCell id="XmZaQMFD-iz3wnsjfVy2-11" value="&lt;span style=&quot;font-size: 18px&quot;&gt;模块mapi请求&lt;/span&gt;" style="rounded=1;whiteSpace=wrap;html=1;" parent="XmZaQMFD-iz3wnsjfVy2-1" vertex="1">
          <mxGeometry x="955" y="314.5" width="120" height="40" as="geometry" />
        </mxCell>
        <mxCell id="XmZaQMFD-iz3wnsjfVy2-12" value="" style="endArrow=none;dashed=1;html=1;entryX=0.5;entryY=1;entryDx=0;entryDy=0;" parent="XmZaQMFD-iz3wnsjfVy2-1" target="XmZaQMFD-iz3wnsjfVy2-11" edge="1">
          <mxGeometry width="50" height="50" relative="1" as="geometry">
            <mxPoint x="1015" y="734.5" as="sourcePoint" />
            <mxPoint x="1035" y="384.5" as="targetPoint" />
          </mxGeometry>
        </mxCell>
        <mxCell id="XmZaQMFD-iz3wnsjfVy2-13" value="&lt;span style=&quot;font-size: 18px&quot;&gt;Picasso模型预计算&lt;/span&gt;" style="rounded=1;whiteSpace=wrap;html=1;" parent="XmZaQMFD-iz3wnsjfVy2-1" vertex="1">
          <mxGeometry x="1105" y="314.5" width="120" height="40" as="geometry" />
        </mxCell>
        <mxCell id="XmZaQMFD-iz3wnsjfVy2-14" value="" style="endArrow=none;dashed=1;html=1;entryX=0.5;entryY=1;entryDx=0;entryDy=0;" parent="XmZaQMFD-iz3wnsjfVy2-1" target="XmZaQMFD-iz3wnsjfVy2-13" edge="1">
          <mxGeometry width="50" height="50" relative="1" as="geometry">
            <mxPoint x="1165" y="584.5" as="sourcePoint" />
            <mxPoint x="1185" y="384.5" as="targetPoint" />
          </mxGeometry>
        </mxCell>
        <mxCell id="XmZaQMFD-iz3wnsjfVy2-15" value="&lt;span style=&quot;font-size: 18px&quot;&gt;Native渲染&lt;/span&gt;" style="rounded=1;whiteSpace=wrap;html=1;" parent="XmZaQMFD-iz3wnsjfVy2-1" vertex="1">
          <mxGeometry x="1674" y="314.5" width="120" height="40" as="geometry" />
        </mxCell>
        <mxCell id="XmZaQMFD-iz3wnsjfVy2-16" value="" style="endArrow=none;dashed=1;html=1;entryX=0.5;entryY=1;entryDx=0;entryDy=0;" parent="XmZaQMFD-iz3wnsjfVy2-1" edge="1">
          <mxGeometry width="50" height="50" relative="1" as="geometry">
            <mxPoint x="1314" y="624.5" as="sourcePoint" />
            <mxPoint x="1314" y="354.5" as="targetPoint" />
          </mxGeometry>
        </mxCell>
        <mxCell id="XmZaQMFD-iz3wnsjfVy2-17" value="" style="rounded=1;whiteSpace=wrap;html=1;" parent="XmZaQMFD-iz3wnsjfVy2-1" vertex="1">
          <mxGeometry x="370" y="364.5" width="40" height="30" as="geometry" />
        </mxCell>
        <mxCell id="XmZaQMFD-iz3wnsjfVy2-18" value="" style="endArrow=none;dashed=1;html=1;entryX=0.5;entryY=1;entryDx=0;entryDy=0;" parent="XmZaQMFD-iz3wnsjfVy2-1" target="XmZaQMFD-iz3wnsjfVy2-17" edge="1">
          <mxGeometry width="50" height="50" relative="1" as="geometry">
            <mxPoint x="390" y="734.5" as="sourcePoint" />
            <mxPoint x="390" y="354.5" as="targetPoint" />
          </mxGeometry>
        </mxCell>
        <mxCell id="XmZaQMFD-iz3wnsjfVy2-19" value="" style="rounded=1;whiteSpace=wrap;html=1;" parent="XmZaQMFD-iz3wnsjfVy2-1" vertex="1">
          <mxGeometry x="520" y="394.5" width="40" height="80" as="geometry" />
        </mxCell>
        <mxCell id="XmZaQMFD-iz3wnsjfVy2-20" value="" style="endArrow=none;dashed=1;html=1;entryX=0.5;entryY=1;entryDx=0;entryDy=0;" parent="XmZaQMFD-iz3wnsjfVy2-1" target="XmZaQMFD-iz3wnsjfVy2-19" edge="1">
          <mxGeometry width="50" height="50" relative="1" as="geometry">
            <mxPoint x="540" y="734.5" as="sourcePoint" />
            <mxPoint x="540" y="354.5" as="targetPoint" />
          </mxGeometry>
        </mxCell>
        <mxCell id="XmZaQMFD-iz3wnsjfVy2-21" value="" style="rounded=1;whiteSpace=wrap;html=1;" parent="XmZaQMFD-iz3wnsjfVy2-1" vertex="1">
          <mxGeometry x="670" y="434.5" width="40" height="90" as="geometry" />
        </mxCell>
        <mxCell id="XmZaQMFD-iz3wnsjfVy2-22" value="" style="endArrow=none;dashed=1;html=1;entryX=0.5;entryY=1;entryDx=0;entryDy=0;" parent="XmZaQMFD-iz3wnsjfVy2-1" target="XmZaQMFD-iz3wnsjfVy2-21" edge="1">
          <mxGeometry width="50" height="50" relative="1" as="geometry">
            <mxPoint x="690" y="734.5" as="sourcePoint" />
            <mxPoint x="690" y="354.5" as="targetPoint" />
          </mxGeometry>
        </mxCell>
        <mxCell id="XmZaQMFD-iz3wnsjfVy2-23" value="" style="endArrow=none;dashed=1;html=1;entryX=0.5;entryY=1;entryDx=0;entryDy=0;" parent="XmZaQMFD-iz3wnsjfVy2-1" edge="1">
          <mxGeometry width="50" height="50" relative="1" as="geometry">
            <mxPoint x="1165" y="734.5" as="sourcePoint" />
            <mxPoint x="1165" y="644.5" as="targetPoint" />
          </mxGeometry>
        </mxCell>
        <mxCell id="XmZaQMFD-iz3wnsjfVy2-24" value="" style="endArrow=none;dashed=1;html=1;entryX=0.5;entryY=1;entryDx=0;entryDy=0;" parent="XmZaQMFD-iz3wnsjfVy2-1" edge="1">
          <mxGeometry width="50" height="50" relative="1" as="geometry">
            <mxPoint x="1314" y="734.5" as="sourcePoint" />
            <mxPoint x="1314" y="684.5" as="targetPoint" />
          </mxGeometry>
        </mxCell>
        <mxCell id="XmZaQMFD-iz3wnsjfVy2-25" value="" style="endArrow=none;dashed=1;html=1;entryX=0.5;entryY=1;entryDx=0;entryDy=0;" parent="XmZaQMFD-iz3wnsjfVy2-1" edge="1">
          <mxGeometry width="50" height="50" relative="1" as="geometry">
            <mxPoint x="865" y="734.5" as="sourcePoint" />
            <mxPoint x="865" y="554.5" as="targetPoint" />
          </mxGeometry>
        </mxCell>
        <mxCell id="XmZaQMFD-iz3wnsjfVy2-26" value="" style="rounded=1;whiteSpace=wrap;html=1;" parent="XmZaQMFD-iz3wnsjfVy2-1" vertex="1">
          <mxGeometry x="845" y="474.5" width="40" height="90" as="geometry" />
        </mxCell>
        <mxCell id="XmZaQMFD-iz3wnsjfVy2-27" value="" style="rounded=1;whiteSpace=wrap;html=1;" parent="XmZaQMFD-iz3wnsjfVy2-1" vertex="1">
          <mxGeometry x="995" y="524.5" width="40" height="90" as="geometry" />
        </mxCell>
        <mxCell id="XmZaQMFD-iz3wnsjfVy2-28" value="" style="rounded=1;whiteSpace=wrap;html=1;" parent="XmZaQMFD-iz3wnsjfVy2-1" vertex="1">
          <mxGeometry x="1145" y="564.5" width="40" height="90" as="geometry" />
        </mxCell>
        <mxCell id="XmZaQMFD-iz3wnsjfVy2-29" value="" style="rounded=1;whiteSpace=wrap;html=1;" parent="XmZaQMFD-iz3wnsjfVy2-1" vertex="1">
          <mxGeometry x="1294" y="614.5" width="40" height="90" as="geometry" />
        </mxCell>
        <mxCell id="XmZaQMFD-iz3wnsjfVy2-30" value="" style="endArrow=classic;html=1;entryX=0;entryY=0;entryDx=0;entryDy=0;strokeWidth=3;" parent="XmZaQMFD-iz3wnsjfVy2-1" target="XmZaQMFD-iz3wnsjfVy2-19" edge="1">
          <mxGeometry width="50" height="50" relative="1" as="geometry">
            <mxPoint x="410" y="394.5" as="sourcePoint" />
            <mxPoint x="460" y="344.5" as="targetPoint" />
          </mxGeometry>
        </mxCell>
        <mxCell id="XmZaQMFD-iz3wnsjfVy2-31" value="" style="endArrow=classic;html=1;entryX=0;entryY=0;entryDx=0;entryDy=0;strokeWidth=3;" parent="XmZaQMFD-iz3wnsjfVy2-1" edge="1">
          <mxGeometry width="50" height="50" relative="1" as="geometry">
            <mxPoint x="560" y="434.5" as="sourcePoint" />
            <mxPoint x="670" y="434.5" as="targetPoint" />
          </mxGeometry>
        </mxCell>
        <mxCell id="XmZaQMFD-iz3wnsjfVy2-32" value="" style="endArrow=classic;html=1;entryX=0;entryY=0;entryDx=0;entryDy=0;strokeWidth=3;" parent="XmZaQMFD-iz3wnsjfVy2-1" edge="1">
          <mxGeometry width="50" height="50" relative="1" as="geometry">
            <mxPoint x="560" y="473.5" as="sourcePoint" />
            <mxPoint x="670" y="473.5" as="targetPoint" />
          </mxGeometry>
        </mxCell>
        <mxCell id="XmZaQMFD-iz3wnsjfVy2-33" value="模块1加载JS" style="text;html=1;align=center;verticalAlign=middle;resizable=0;points=[];;autosize=1;" parent="XmZaQMFD-iz3wnsjfVy2-1" vertex="1">
          <mxGeometry x="570" y="414.5" width="80" height="20" as="geometry" />
        </mxCell>
        <mxCell id="XmZaQMFD-iz3wnsjfVy2-34" value="模块N加载JS" style="text;html=1;align=center;verticalAlign=middle;resizable=0;points=[];;autosize=1;" parent="XmZaQMFD-iz3wnsjfVy2-1" vertex="1">
          <mxGeometry x="565" y="474.5" width="90" height="20" as="geometry" />
        </mxCell>
        <mxCell id="XmZaQMFD-iz3wnsjfVy2-35" value="&lt;font style=&quot;font-size: 24px&quot;&gt;...&lt;/font&gt;" style="text;html=1;align=center;verticalAlign=middle;resizable=0;points=[];;autosize=1;" parent="XmZaQMFD-iz3wnsjfVy2-1" vertex="1">
          <mxGeometry x="589" y="438.5" width="40" height="20" as="geometry" />
        </mxCell>
        <mxCell id="XmZaQMFD-iz3wnsjfVy2-36" value="" style="endArrow=classic;html=1;strokeWidth=3;" parent="XmZaQMFD-iz3wnsjfVy2-1" edge="1">
          <mxGeometry width="50" height="50" relative="1" as="geometry">
            <mxPoint x="710" y="484.5" as="sourcePoint" />
            <mxPoint x="840" y="484.5" as="targetPoint" />
          </mxGeometry>
        </mxCell>
        <mxCell id="XmZaQMFD-iz3wnsjfVy2-37" value="" style="endArrow=classic;html=1;strokeWidth=3;" parent="XmZaQMFD-iz3wnsjfVy2-1" edge="1">
          <mxGeometry width="50" height="50" relative="1" as="geometry">
            <mxPoint x="710" y="519" as="sourcePoint" />
            <mxPoint x="840" y="519.5" as="targetPoint" />
          </mxGeometry>
        </mxCell>
        <mxCell id="XmZaQMFD-iz3wnsjfVy2-38" value="模块1通过白板获取参数" style="text;html=1;align=center;verticalAlign=middle;resizable=0;points=[];;autosize=1;" parent="XmZaQMFD-iz3wnsjfVy2-1" vertex="1">
          <mxGeometry x="707" y="463.5" width="140" height="20" as="geometry" />
        </mxCell>
        <mxCell id="XmZaQMFD-iz3wnsjfVy2-39" value="模块N通过白板获取参数" style="text;html=1;align=center;verticalAlign=middle;resizable=0;points=[];;autosize=1;" parent="XmZaQMFD-iz3wnsjfVy2-1" vertex="1">
          <mxGeometry x="706" y="524.5" width="140" height="20" as="geometry" />
        </mxCell>
        <mxCell id="XmZaQMFD-iz3wnsjfVy2-40" value="&lt;font style=&quot;font-size: 24px&quot;&gt;...&lt;/font&gt;" style="text;html=1;align=center;verticalAlign=middle;resizable=0;points=[];;autosize=1;" parent="XmZaQMFD-iz3wnsjfVy2-1" vertex="1">
          <mxGeometry x="755" y="484.5" width="40" height="20" as="geometry" />
        </mxCell>
        <mxCell id="XmZaQMFD-iz3wnsjfVy2-41" value="" style="endArrow=classic;html=1;entryX=0;entryY=0;entryDx=0;entryDy=0;strokeWidth=3;" parent="XmZaQMFD-iz3wnsjfVy2-1" edge="1">
          <mxGeometry width="50" height="50" relative="1" as="geometry">
            <mxPoint x="885" y="524.5" as="sourcePoint" />
            <mxPoint x="995" y="524.5" as="targetPoint" />
          </mxGeometry>
        </mxCell>
        <mxCell id="XmZaQMFD-iz3wnsjfVy2-42" value="" style="endArrow=classic;html=1;entryX=0;entryY=0;entryDx=0;entryDy=0;strokeWidth=3;" parent="XmZaQMFD-iz3wnsjfVy2-1" edge="1">
          <mxGeometry width="50" height="50" relative="1" as="geometry">
            <mxPoint x="885" y="563.5" as="sourcePoint" />
            <mxPoint x="995" y="563.5" as="targetPoint" />
          </mxGeometry>
        </mxCell>
        <mxCell id="XmZaQMFD-iz3wnsjfVy2-43" value="模块1网络请求" style="text;html=1;align=center;verticalAlign=middle;resizable=0;points=[];;autosize=1;" parent="XmZaQMFD-iz3wnsjfVy2-1" vertex="1">
          <mxGeometry x="890" y="504.5" width="90" height="20" as="geometry" />
        </mxCell>
        <mxCell id="XmZaQMFD-iz3wnsjfVy2-44" value="模块N网络请求" style="text;html=1;align=center;verticalAlign=middle;resizable=0;points=[];;autosize=1;" parent="XmZaQMFD-iz3wnsjfVy2-1" vertex="1">
          <mxGeometry x="885" y="564.5" width="100" height="20" as="geometry" />
        </mxCell>
        <mxCell id="XmZaQMFD-iz3wnsjfVy2-45" value="&lt;font style=&quot;font-size: 24px&quot;&gt;...&lt;/font&gt;" style="text;html=1;align=center;verticalAlign=middle;resizable=0;points=[];;autosize=1;" parent="XmZaQMFD-iz3wnsjfVy2-1" vertex="1">
          <mxGeometry x="914" y="528.5" width="40" height="20" as="geometry" />
        </mxCell>
        <mxCell id="XmZaQMFD-iz3wnsjfVy2-46" value="" style="endArrow=classic;html=1;entryX=0;entryY=0;entryDx=0;entryDy=0;strokeWidth=3;" parent="XmZaQMFD-iz3wnsjfVy2-1" edge="1">
          <mxGeometry width="50" height="50" relative="1" as="geometry">
            <mxPoint x="1035" y="574.5" as="sourcePoint" />
            <mxPoint x="1145" y="574.5" as="targetPoint" />
          </mxGeometry>
        </mxCell>
        <mxCell id="XmZaQMFD-iz3wnsjfVy2-47" value="" style="endArrow=classic;html=1;entryX=0;entryY=0;entryDx=0;entryDy=0;strokeWidth=3;" parent="XmZaQMFD-iz3wnsjfVy2-1" edge="1">
          <mxGeometry width="50" height="50" relative="1" as="geometry">
            <mxPoint x="1035" y="613.5" as="sourcePoint" />
            <mxPoint x="1145" y="613.5" as="targetPoint" />
          </mxGeometry>
        </mxCell>
        <mxCell id="XmZaQMFD-iz3wnsjfVy2-48" value="模块1计算PModel" style="text;html=1;align=center;verticalAlign=middle;resizable=0;points=[];;autosize=1;" parent="XmZaQMFD-iz3wnsjfVy2-1" vertex="1">
          <mxGeometry x="1030" y="554.5" width="110" height="20" as="geometry" />
        </mxCell>
        <mxCell id="XmZaQMFD-iz3wnsjfVy2-49" value="模块N计算PModel" style="text;html=1;align=center;verticalAlign=middle;resizable=0;points=[];;autosize=1;" parent="XmZaQMFD-iz3wnsjfVy2-1" vertex="1">
          <mxGeometry x="1030" y="614.5" width="110" height="20" as="geometry" />
        </mxCell>
        <mxCell id="XmZaQMFD-iz3wnsjfVy2-50" value="&lt;font style=&quot;font-size: 24px&quot;&gt;...&lt;/font&gt;" style="text;html=1;align=center;verticalAlign=middle;resizable=0;points=[];;autosize=1;" parent="XmZaQMFD-iz3wnsjfVy2-1" vertex="1">
          <mxGeometry x="1064" y="578.5" width="40" height="20" as="geometry" />
        </mxCell>
        <mxCell id="XmZaQMFD-iz3wnsjfVy2-51" value="" style="endArrow=classic;html=1;entryX=0;entryY=0;entryDx=0;entryDy=0;strokeWidth=3;" parent="XmZaQMFD-iz3wnsjfVy2-1" edge="1">
          <mxGeometry width="50" height="50" relative="1" as="geometry">
            <mxPoint x="1185" y="614.5" as="sourcePoint" />
            <mxPoint x="1295" y="614.5" as="targetPoint" />
          </mxGeometry>
        </mxCell>
        <mxCell id="XmZaQMFD-iz3wnsjfVy2-52" value="" style="endArrow=classic;html=1;entryX=0;entryY=0;entryDx=0;entryDy=0;strokeWidth=3;" parent="XmZaQMFD-iz3wnsjfVy2-1" edge="1">
          <mxGeometry width="50" height="50" relative="1" as="geometry">
            <mxPoint x="1185" y="653.5" as="sourcePoint" />
            <mxPoint x="1295" y="653.5" as="targetPoint" />
          </mxGeometry>
        </mxCell>
        <mxCell id="XmZaQMFD-iz3wnsjfVy2-53" value="模块1 native渲染" style="text;html=1;align=center;verticalAlign=middle;resizable=0;points=[];;autosize=1;" parent="XmZaQMFD-iz3wnsjfVy2-1" vertex="1">
          <mxGeometry x="1180" y="594.5" width="110" height="20" as="geometry" />
        </mxCell>
        <mxCell id="XmZaQMFD-iz3wnsjfVy2-54" value="模块N native渲染" style="text;html=1;align=center;verticalAlign=middle;resizable=0;points=[];;autosize=1;" parent="XmZaQMFD-iz3wnsjfVy2-1" vertex="1">
          <mxGeometry x="1180" y="654.5" width="110" height="20" as="geometry" />
        </mxCell>
        <mxCell id="XmZaQMFD-iz3wnsjfVy2-55" value="&lt;font style=&quot;font-size: 24px&quot;&gt;...&lt;/font&gt;" style="text;html=1;align=center;verticalAlign=middle;resizable=0;points=[];;autosize=1;" parent="XmZaQMFD-iz3wnsjfVy2-1" vertex="1">
          <mxGeometry x="1214" y="618.5" width="40" height="20" as="geometry" />
        </mxCell>
        <mxCell id="XmZaQMFD-iz3wnsjfVy2-56" value="" style="edgeStyle=elbowEdgeStyle;elbow=vertical;endArrow=classic;html=1;fontSize=16;entryX=0.5;entryY=0;entryDx=0;entryDy=0;exitX=0.5;exitY=0;exitDx=0;exitDy=0;curved=1;strokeColor=#FF6666;fillColor=#fff2cc;strokeWidth=5;startSize=34;" parent="XmZaQMFD-iz3wnsjfVy2-1" source="XmZaQMFD-iz3wnsjfVy2-2" target="XmZaQMFD-iz3wnsjfVy2-3" edge="1">
          <mxGeometry width="50" height="50" relative="1" as="geometry">
            <mxPoint x="662" y="229" as="sourcePoint" />
            <mxPoint x="453" y="179" as="targetPoint" />
            <Array as="points">
              <mxPoint x="707" y="215" />
              <mxPoint x="989" y="199" />
              <mxPoint x="715" y="193" />
            </Array>
          </mxGeometry>
        </mxCell>
        <mxCell id="a_BgX4vlMH_70ox4bpu7-3" value="" style="html=1;shadow=0;dashed=0;align=center;verticalAlign=middle;shape=mxgraph.arrows2.arrow;dy=0;dx=10;notch=10;strokeColor=#000000;fillColor=#FF6666;gradientColor=#ffffff;fontSize=16;gradientDirection=west;" parent="XmZaQMFD-iz3wnsjfVy2-1" vertex="1">
          <mxGeometry x="390" y="762" width="470" height="20" as="geometry" />
        </mxCell>
        <mxCell id="a_BgX4vlMH_70ox4bpu7-4" value="" style="html=1;shadow=0;dashed=0;align=center;verticalAlign=middle;shape=mxgraph.arrows2.arrow;dy=0;dx=10;notch=10;strokeColor=#000000;fillColor=#FF6666;gradientColor=#ffffff;fontSize=16;gradientDirection=west;" parent="XmZaQMFD-iz3wnsjfVy2-1" vertex="1">
          <mxGeometry x="864" y="830" width="316" height="20" as="geometry" />
        </mxCell>
        <mxCell id="a_BgX4vlMH_70ox4bpu7-5" value="&lt;font color=&quot;#ff0000&quot; size=&quot;1&quot;&gt;&lt;b style=&quot;font-size: 20px&quot;&gt;2：网络请求中&lt;/b&gt;&lt;/font&gt;" style="text;html=1;align=center;verticalAlign=middle;resizable=0;points=[];autosize=1;fontSize=16;" parent="XmZaQMFD-iz3wnsjfVy2-1" vertex="1">
          <mxGeometry x="551" y="729" width="141" height="26" as="geometry" />
        </mxCell>
        <mxCell id="a_BgX4vlMH_70ox4bpu7-6" value="&lt;b&gt;&lt;font color=&quot;#ff0000&quot; style=&quot;font-size: 20px&quot;&gt;3：计算PModel&lt;/font&gt;&lt;/b&gt;" style="text;html=1;align=center;verticalAlign=middle;resizable=0;points=[];autosize=1;fontSize=16;" parent="XmZaQMFD-iz3wnsjfVy2-1" vertex="1">
          <mxGeometry x="940" y="798" width="152" height="25" as="geometry" />
        </mxCell>
        <mxCell id="a_BgX4vlMH_70ox4bpu7-7" value="&lt;b&gt;&lt;font color=&quot;#ff0000&quot; style=&quot;font-size: 20px&quot;&gt;1：网络请求前置&lt;/font&gt;&lt;/b&gt;" style="text;html=1;align=center;verticalAlign=middle;resizable=0;points=[];autosize=1;fontSize=16;" parent="XmZaQMFD-iz3wnsjfVy2-1" vertex="1">
          <mxGeometry x="625" y="238" width="161" height="25" as="geometry" />
        </mxCell>
        <mxCell id="a_BgX4vlMH_70ox4bpu7-8" value="" style="rounded=1;whiteSpace=wrap;html=1;shadow=0;dashed=1;strokeColor=#FF0000;fillColor=none;gradientColor=#ffffff;fontSize=16;strokeWidth=3;" parent="XmZaQMFD-iz3wnsjfVy2-1" vertex="1">
          <mxGeometry x="872" y="474.5" width="134" height="118.5" as="geometry" />
        </mxCell>
        <mxCell id="a_BgX4vlMH_70ox4bpu7-9" value="发起网络请求&lt;br&gt;等待返回" style="whiteSpace=wrap;html=1;rounded=1;arcSize=50;align=center;verticalAlign=middle;container=1;recursiveResize=0;strokeWidth=2;autosize=1;spacing=4;treeFolding=1;treeMoving=1;shadow=0;fillColor=none;gradientColor=#ffffff;fontSize=16;strokeColor=#FF0000;" parent="XmZaQMFD-iz3wnsjfVy2-1" vertex="1" collapsed="1">
          <mxGeometry x="965" y="406" width="108" height="50" as="geometry" />
        </mxCell>
        <mxCell id="a_BgX4vlMH_70ox4bpu7-10" value="" style="edgeStyle=entityRelationEdgeStyle;startArrow=none;endArrow=none;segment=10;curved=1;strokeColor=#FF6666;strokeWidth=2;fontSize=16;exitX=0.433;exitY=-0.004;exitDx=0;exitDy=0;exitPerimeter=0;" parent="XmZaQMFD-iz3wnsjfVy2-1" source="a_BgX4vlMH_70ox4bpu7-8" target="a_BgX4vlMH_70ox4bpu7-9" edge="1">
          <mxGeometry relative="1" as="geometry">
            <mxPoint x="995" y="473" as="sourcePoint" />
          </mxGeometry>
        </mxCell>
      </root>
    </mxGraphModel>
  </diagram>
  <diagram name="第 8 页" id="55es1rq6sAT_-bnNK5X7">
    <mxGraphModel dx="1426" dy="794" grid="0" gridSize="10" guides="1" tooltips="1" connect="1" arrows="1" fold="1" page="1" pageScale="1" pageWidth="1920" pageHeight="1200" math="0" shadow="0">
      <root>
        <mxCell id="aBK489zC9v2rjzq4S1mK-0" />
        <mxCell id="aBK489zC9v2rjzq4S1mK-1" parent="aBK489zC9v2rjzq4S1mK-0" />
        <mxCell id="aBK489zC9v2rjzq4S1mK-5" value="预加载网络请求" style="rounded=0;whiteSpace=wrap;html=1;shadow=0;strokeColor=none;strokeWidth=2;fillColor=#FF6666;fontSize=16;fontColor=#ffffff;" parent="aBK489zC9v2rjzq4S1mK-1" vertex="1">
          <mxGeometry x="130" y="220" width="270" height="20" as="geometry" />
        </mxCell>
        <mxCell id="aBK489zC9v2rjzq4S1mK-6" value="" style="endArrow=classic;html=1;strokeColor=#33001A;strokeWidth=2;fontSize=16;" parent="aBK489zC9v2rjzq4S1mK-1" edge="1">
          <mxGeometry width="50" height="50" relative="1" as="geometry">
            <mxPoint x="130" y="160" as="sourcePoint" />
            <mxPoint x="850" y="160" as="targetPoint" />
          </mxGeometry>
        </mxCell>
        <mxCell id="aBK489zC9v2rjzq4S1mK-7" value="" style="rounded=0;whiteSpace=wrap;html=1;shadow=0;strokeColor=none;strokeWidth=2;fillColor=#60a917;fontSize=16;fontColor=#ffffff;" parent="aBK489zC9v2rjzq4S1mK-1" vertex="1">
          <mxGeometry x="510" y="300" width="20" height="20" as="geometry" />
        </mxCell>
        <mxCell id="aBK489zC9v2rjzq4S1mK-11" value="" style="endArrow=none;dashed=1;html=1;strokeColor=#33001A;strokeWidth=2;fontSize=16;exitX=1;exitY=1;exitDx=0;exitDy=0;entryX=0.546;entryY=0.95;entryDx=0;entryDy=0;entryPerimeter=0;" parent="aBK489zC9v2rjzq4S1mK-1" source="aBK489zC9v2rjzq4S1mK-5" target="zfg1vyhA1JeVO9l01G9K-0" edge="1">
          <mxGeometry width="50" height="50" relative="1" as="geometry">
            <mxPoint x="480" y="230" as="sourcePoint" />
            <mxPoint x="400" y="90" as="targetPoint" />
          </mxGeometry>
        </mxCell>
        <mxCell id="aBK489zC9v2rjzq4S1mK-12" value="" style="endArrow=none;dashed=1;html=1;strokeColor=#33001A;strokeWidth=2;fontSize=16;exitX=1;exitY=1;exitDx=0;exitDy=0;" parent="aBK489zC9v2rjzq4S1mK-1" target="zfg1vyhA1JeVO9l01G9K-1" edge="1">
          <mxGeometry width="50" height="50" relative="1" as="geometry">
            <mxPoint x="509.99999999999955" y="300" as="sourcePoint" />
            <mxPoint x="510" y="120" as="targetPoint" />
          </mxGeometry>
        </mxCell>
        <mxCell id="zfg1vyhA1JeVO9l01G9K-0" value="预加载请求完成" style="text;html=1;align=center;verticalAlign=middle;resizable=0;points=[];autosize=1;fontSize=16;" parent="aBK489zC9v2rjzq4S1mK-1" vertex="1">
          <mxGeometry x="330" y="50" width="130" height="20" as="geometry" />
        </mxCell>
        <mxCell id="zfg1vyhA1JeVO9l01G9K-1" value="TS业务调用网络桥" style="text;html=1;align=center;verticalAlign=middle;resizable=0;points=[];autosize=1;fontSize=16;" parent="aBK489zC9v2rjzq4S1mK-1" vertex="1">
          <mxGeometry x="435" y="80" width="150" height="20" as="geometry" />
        </mxCell>
        <mxCell id="zfg1vyhA1JeVO9l01G9K-3" value="" style="endArrow=classic;html=1;strokeColor=#33001A;strokeWidth=2;fontSize=16;curved=1;" parent="aBK489zC9v2rjzq4S1mK-1" edge="1">
          <mxGeometry width="50" height="50" relative="1" as="geometry">
            <mxPoint x="400" y="230" as="sourcePoint" />
            <mxPoint x="510" y="300" as="targetPoint" />
            <Array as="points">
              <mxPoint x="510" y="220" />
            </Array>
          </mxGeometry>
        </mxCell>
        <mxCell id="zfg1vyhA1JeVO9l01G9K-5" value="预加载网络请求" style="rounded=0;whiteSpace=wrap;html=1;shadow=0;strokeColor=none;strokeWidth=2;fillColor=#FF6666;fontSize=16;fontColor=#ffffff;" parent="aBK489zC9v2rjzq4S1mK-1" vertex="1">
          <mxGeometry x="140" y="680" width="490" height="20" as="geometry" />
        </mxCell>
        <mxCell id="zfg1vyhA1JeVO9l01G9K-6" value="" style="endArrow=classic;html=1;strokeColor=#33001A;strokeWidth=2;fontSize=16;" parent="aBK489zC9v2rjzq4S1mK-1" edge="1">
          <mxGeometry width="50" height="50" relative="1" as="geometry">
            <mxPoint x="140" y="620" as="sourcePoint" />
            <mxPoint x="860" y="620" as="targetPoint" />
          </mxGeometry>
        </mxCell>
        <mxCell id="zfg1vyhA1JeVO9l01G9K-7" value="" style="rounded=0;whiteSpace=wrap;html=1;shadow=0;strokeColor=none;strokeWidth=2;fillColor=#60a917;fontSize=16;fontColor=#ffffff;" parent="aBK489zC9v2rjzq4S1mK-1" vertex="1">
          <mxGeometry x="275" y="781" width="20" height="20" as="geometry" />
        </mxCell>
        <mxCell id="zfg1vyhA1JeVO9l01G9K-9" value="" style="endArrow=none;dashed=1;html=1;strokeColor=#33001A;strokeWidth=2;fontSize=16;exitX=1;exitY=1;exitDx=0;exitDy=0;" parent="aBK489zC9v2rjzq4S1mK-1" edge="1">
          <mxGeometry width="50" height="50" relative="1" as="geometry">
            <mxPoint x="628.9999999999995" y="700" as="sourcePoint" />
            <mxPoint x="630" y="570" as="targetPoint" />
          </mxGeometry>
        </mxCell>
        <mxCell id="zfg1vyhA1JeVO9l01G9K-10" value="" style="endArrow=none;dashed=1;html=1;strokeColor=#33001A;strokeWidth=2;fontSize=16;exitX=1;exitY=1;exitDx=0;exitDy=0;" parent="aBK489zC9v2rjzq4S1mK-1" target="zfg1vyhA1JeVO9l01G9K-13" edge="1">
          <mxGeometry width="50" height="50" relative="1" as="geometry">
            <mxPoint x="274.99999999999955" y="781" as="sourcePoint" />
            <mxPoint x="275" y="601" as="targetPoint" />
          </mxGeometry>
        </mxCell>
        <mxCell id="zfg1vyhA1JeVO9l01G9K-12" value="预加载请求完成" style="text;html=1;align=center;verticalAlign=middle;resizable=0;points=[];autosize=1;fontSize=16;" parent="aBK489zC9v2rjzq4S1mK-1" vertex="1">
          <mxGeometry x="560" y="550" width="130" height="20" as="geometry" />
        </mxCell>
        <mxCell id="zfg1vyhA1JeVO9l01G9K-13" value="TS业务调用网络桥" style="text;html=1;align=center;verticalAlign=middle;resizable=0;points=[];autosize=1;fontSize=16;" parent="aBK489zC9v2rjzq4S1mK-1" vertex="1">
          <mxGeometry x="200" y="520" width="150" height="20" as="geometry" />
        </mxCell>
        <mxCell id="zfg1vyhA1JeVO9l01G9K-19" value="根据mapi_id找到对应的网络请求结果，&lt;br&gt;将结果通过callback回传给TS层" style="whiteSpace=wrap;html=1;rounded=1;arcSize=50;align=center;verticalAlign=middle;container=1;recursiveResize=0;strokeWidth=1;autosize=1;spacing=4;treeFolding=1;treeMoving=1;shadow=0;fillColor=#CCCCCC;gradientColor=#ffffff;fontSize=16;gradientDirection=west;" parent="aBK489zC9v2rjzq4S1mK-1" vertex="1">
          <mxGeometry x="568" y="230" width="320" height="50" as="geometry" />
        </mxCell>
        <mxCell id="zfg1vyhA1JeVO9l01G9K-20" value="" style="edgeStyle=entityRelationEdgeStyle;startArrow=none;endArrow=none;segment=10;curved=1;strokeColor=#33001A;strokeWidth=2;fontSize=16;" parent="aBK489zC9v2rjzq4S1mK-1" target="zfg1vyhA1JeVO9l01G9K-19" edge="1">
          <mxGeometry relative="1" as="geometry">
            <mxPoint x="530" y="300" as="sourcePoint" />
          </mxGeometry>
        </mxCell>
        <mxCell id="zfg1vyhA1JeVO9l01G9K-23" value="根据mapi_id保存网络桥的callback" style="whiteSpace=wrap;html=1;rounded=1;arcSize=50;align=center;verticalAlign=middle;container=1;recursiveResize=0;strokeWidth=1;autosize=1;spacing=4;treeFolding=1;treeMoving=1;shadow=0;fillColor=#CCCCCC;gradientColor=#ffffff;fontSize=16;gradientDirection=west;" parent="aBK489zC9v2rjzq4S1mK-1" vertex="1">
          <mxGeometry x="330" y="751" width="280" height="30" as="geometry" />
        </mxCell>
        <mxCell id="zfg1vyhA1JeVO9l01G9K-24" value="" style="edgeStyle=entityRelationEdgeStyle;startArrow=none;endArrow=none;segment=10;curved=1;strokeColor=#33001A;strokeWidth=2;fontSize=16;exitX=1;exitY=0.25;exitDx=0;exitDy=0;" parent="aBK489zC9v2rjzq4S1mK-1" source="zfg1vyhA1JeVO9l01G9K-7" target="zfg1vyhA1JeVO9l01G9K-23" edge="1">
          <mxGeometry relative="1" as="geometry">
            <mxPoint x="300" y="790" as="sourcePoint" />
          </mxGeometry>
        </mxCell>
        <mxCell id="zfg1vyhA1JeVO9l01G9K-26" value="根据mapi_id找到对应的callback,&lt;br&gt;将网络请求结果回传给TS层" style="whiteSpace=wrap;html=1;rounded=1;arcSize=50;align=center;verticalAlign=middle;container=1;recursiveResize=0;strokeWidth=1;autosize=1;spacing=4;treeFolding=1;treeMoving=1;shadow=0;fillColor=#CCCCCC;gradientColor=#ffffff;fontSize=16;gradientDirection=west;" parent="aBK489zC9v2rjzq4S1mK-1" vertex="1">
          <mxGeometry x="740" y="741" width="270" height="50" as="geometry" />
        </mxCell>
        <mxCell id="zfg1vyhA1JeVO9l01G9K-27" value="" style="edgeStyle=entityRelationEdgeStyle;startArrow=none;endArrow=none;segment=10;curved=1;strokeColor=#33001A;strokeWidth=2;fontSize=16;" parent="aBK489zC9v2rjzq4S1mK-1" target="zfg1vyhA1JeVO9l01G9K-26" edge="1">
          <mxGeometry relative="1" as="geometry">
            <mxPoint x="630" y="685" as="sourcePoint" />
          </mxGeometry>
        </mxCell>
        <mxCell id="jInc-773Tj4I90hYRHd0-0" value="时间" style="text;html=1;align=center;verticalAlign=middle;resizable=0;points=[];autosize=1;fontSize=16;" parent="aBK489zC9v2rjzq4S1mK-1" vertex="1">
          <mxGeometry x="850" y="148" width="42" height="23" as="geometry" />
        </mxCell>
        <mxCell id="jInc-773Tj4I90hYRHd0-1" value="时间" style="text;html=1;align=center;verticalAlign=middle;resizable=0;points=[];autosize=1;fontSize=16;" parent="aBK489zC9v2rjzq4S1mK-1" vertex="1">
          <mxGeometry x="866" y="609" width="42" height="23" as="geometry" />
        </mxCell>
      </root>
    </mxGraphModel>
  </diagram>
  <diagram name="第 9 页" id="8mlrD3Fa-onC4k6T2MgW">
    <mxGraphModel dx="1426" dy="794" grid="0" gridSize="10" guides="1" tooltips="1" connect="1" arrows="1" fold="1" page="1" pageScale="1" pageWidth="1920" pageHeight="1200" math="0" shadow="0">
      <root>
        <mxCell id="px_eyudtA328RbWcgJun-0" />
        <mxCell id="px_eyudtA328RbWcgJun-1" parent="px_eyudtA328RbWcgJun-0" />
        <mxCell id="px_eyudtA328RbWcgJun-3" value="Picasso预计算单元" style="swimlane;rounded=1;shadow=0;labelBackgroundColor=#D5E8D4;strokeColor=#D5E8D4;strokeWidth=2;fillColor=#D5E8D4;fontSize=16;startSize=42;" parent="px_eyudtA328RbWcgJun-1" vertex="1">
          <mxGeometry x="110" y="240" width="200" height="430" as="geometry" />
        </mxCell>
        <mxCell id="px_eyudtA328RbWcgJun-4" value="预计算单元1" style="shape=ext;double=1;rounded=1;whiteSpace=wrap;html=1;shadow=0;labelBackgroundColor=#D5E8D4;strokeColor=none;strokeWidth=2;fillColor=#D5E8D4;gradientColor=none;fontSize=16;" parent="px_eyudtA328RbWcgJun-3" vertex="1">
          <mxGeometry x="40" y="70" width="120" height="50" as="geometry" />
        </mxCell>
        <mxCell id="px_eyudtA328RbWcgJun-5" value="预计算单元2" style="shape=ext;double=1;rounded=1;whiteSpace=wrap;html=1;shadow=0;labelBackgroundColor=#D5E8D4;strokeColor=none;strokeWidth=2;fillColor=#D5E8D4;gradientColor=none;fontSize=16;" parent="px_eyudtA328RbWcgJun-3" vertex="1">
          <mxGeometry x="40" y="160" width="120" height="50" as="geometry" />
        </mxCell>
        <mxCell id="px_eyudtA328RbWcgJun-6" value="预计算单元3" style="shape=ext;double=1;rounded=1;whiteSpace=wrap;html=1;shadow=0;labelBackgroundColor=#D5E8D4;strokeColor=none;strokeWidth=2;fillColor=#D5E8D4;gradientColor=none;fontSize=16;" parent="px_eyudtA328RbWcgJun-3" vertex="1">
          <mxGeometry x="40" y="260" width="120" height="50" as="geometry" />
        </mxCell>
        <mxCell id="px_eyudtA328RbWcgJun-7" value="预计算单元4" style="shape=ext;double=1;rounded=1;whiteSpace=wrap;html=1;shadow=0;labelBackgroundColor=#D5E8D4;strokeColor=none;strokeWidth=2;fillColor=#D5E8D4;gradientColor=none;fontSize=16;" parent="px_eyudtA328RbWcgJun-3" vertex="1">
          <mxGeometry x="40" y="350" width="120" height="50" as="geometry" />
        </mxCell>
        <mxCell id="px_eyudtA328RbWcgJun-15" style="edgeStyle=orthogonalEdgeStyle;rounded=1;orthogonalLoop=1;jettySize=auto;html=1;exitX=0;exitY=0.25;exitDx=0;exitDy=0;entryX=1;entryY=0.75;entryDx=0;entryDy=0;startSize=34;strokeColor=#33001A;strokeWidth=2;fontSize=16;" parent="px_eyudtA328RbWcgJun-1" source="px_eyudtA328RbWcgJun-8" target="px_eyudtA328RbWcgJun-4" edge="1">
          <mxGeometry relative="1" as="geometry" />
        </mxCell>
        <mxCell id="px_eyudtA328RbWcgJun-16" value="PModel1" style="text;html=1;align=center;verticalAlign=middle;resizable=0;points=[];labelBackgroundColor=#ffffff;fontSize=16;" parent="px_eyudtA328RbWcgJun-15" vertex="1" connectable="0">
          <mxGeometry x="0.0332" y="-4" relative="1" as="geometry">
            <mxPoint as="offset" />
          </mxGeometry>
        </mxCell>
        <mxCell id="px_eyudtA328RbWcgJun-33" style="edgeStyle=orthogonalEdgeStyle;rounded=1;orthogonalLoop=1;jettySize=auto;html=1;entryX=1;entryY=0.75;entryDx=0;entryDy=0;startSize=34;strokeColor=#33001A;strokeWidth=2;fontSize=16;" parent="px_eyudtA328RbWcgJun-1" target="px_eyudtA328RbWcgJun-5" edge="1">
          <mxGeometry relative="1" as="geometry">
            <mxPoint x="480" y="438" as="sourcePoint" />
          </mxGeometry>
        </mxCell>
        <mxCell id="px_eyudtA328RbWcgJun-34" value="PModel2" style="text;html=1;align=center;verticalAlign=middle;resizable=0;points=[];labelBackgroundColor=#ffffff;fontSize=16;" parent="px_eyudtA328RbWcgJun-33" vertex="1" connectable="0">
          <mxGeometry x="0.0119" relative="1" as="geometry">
            <mxPoint x="1" as="offset" />
          </mxGeometry>
        </mxCell>
        <mxCell id="px_eyudtA328RbWcgJun-35" style="edgeStyle=orthogonalEdgeStyle;rounded=1;orthogonalLoop=1;jettySize=auto;html=1;entryX=1;entryY=0.75;entryDx=0;entryDy=0;startSize=34;strokeColor=#33001A;strokeWidth=2;fontSize=16;" parent="px_eyudtA328RbWcgJun-1" target="px_eyudtA328RbWcgJun-6" edge="1">
          <mxGeometry relative="1" as="geometry">
            <mxPoint x="480" y="538" as="sourcePoint" />
          </mxGeometry>
        </mxCell>
        <mxCell id="px_eyudtA328RbWcgJun-36" value="PModel3" style="text;html=1;align=center;verticalAlign=middle;resizable=0;points=[];labelBackgroundColor=#ffffff;fontSize=16;" parent="px_eyudtA328RbWcgJun-35" vertex="1" connectable="0">
          <mxGeometry x="0.0024" y="-2" relative="1" as="geometry">
            <mxPoint x="3" y="2" as="offset" />
          </mxGeometry>
        </mxCell>
        <mxCell id="px_eyudtA328RbWcgJun-37" style="edgeStyle=orthogonalEdgeStyle;rounded=1;orthogonalLoop=1;jettySize=auto;html=1;entryX=1;entryY=0.75;entryDx=0;entryDy=0;startSize=34;strokeColor=#33001A;strokeWidth=2;fontSize=16;" parent="px_eyudtA328RbWcgJun-1" target="px_eyudtA328RbWcgJun-7" edge="1">
          <mxGeometry relative="1" as="geometry">
            <mxPoint x="480" y="628" as="sourcePoint" />
          </mxGeometry>
        </mxCell>
        <mxCell id="px_eyudtA328RbWcgJun-38" value="PModel4" style="text;html=1;align=center;verticalAlign=middle;resizable=0;points=[];labelBackgroundColor=#ffffff;fontSize=16;" parent="px_eyudtA328RbWcgJun-37" vertex="1" connectable="0">
          <mxGeometry x="0.0024" y="-4" relative="1" as="geometry">
            <mxPoint x="5" y="4" as="offset" />
          </mxGeometry>
        </mxCell>
        <mxCell id="px_eyudtA328RbWcgJun-8" value="JSCore" style="swimlane;rounded=1;shadow=0;labelBackgroundColor=#E1D5E7;strokeColor=#E1D5E7;strokeWidth=2;fillColor=#e1d5e7;fontSize=16;startSize=42;" parent="px_eyudtA328RbWcgJun-1" vertex="1">
          <mxGeometry x="480" y="239" width="100" height="430" as="geometry" />
        </mxCell>
        <mxCell id="px_eyudtA328RbWcgJun-13" style="edgeStyle=orthogonalEdgeStyle;rounded=1;orthogonalLoop=1;jettySize=auto;html=1;exitX=1;exitY=0.25;exitDx=0;exitDy=0;startSize=34;strokeColor=#33001A;strokeWidth=2;fontSize=16;" parent="px_eyudtA328RbWcgJun-1" source="px_eyudtA328RbWcgJun-4" edge="1">
          <mxGeometry relative="1" as="geometry">
            <mxPoint x="480" y="323" as="targetPoint" />
          </mxGeometry>
        </mxCell>
        <mxCell id="px_eyudtA328RbWcgJun-14" value="Input1" style="text;html=1;align=center;verticalAlign=middle;resizable=0;points=[];labelBackgroundColor=#ffffff;fontSize=16;" parent="px_eyudtA328RbWcgJun-13" vertex="1" connectable="0">
          <mxGeometry x="-0.0119" y="3" relative="1" as="geometry">
            <mxPoint y="1" as="offset" />
          </mxGeometry>
        </mxCell>
        <mxCell id="px_eyudtA328RbWcgJun-25" style="edgeStyle=orthogonalEdgeStyle;rounded=1;orthogonalLoop=1;jettySize=auto;html=1;exitX=1;exitY=0.25;exitDx=0;exitDy=0;startSize=34;strokeColor=#33001A;strokeWidth=2;fontSize=16;" parent="px_eyudtA328RbWcgJun-1" source="px_eyudtA328RbWcgJun-5" edge="1">
          <mxGeometry relative="1" as="geometry">
            <mxPoint x="480" y="413" as="targetPoint" />
          </mxGeometry>
        </mxCell>
        <mxCell id="px_eyudtA328RbWcgJun-26" value="Input2" style="text;html=1;align=center;verticalAlign=middle;resizable=0;points=[];labelBackgroundColor=#ffffff;fontSize=16;" parent="px_eyudtA328RbWcgJun-25" vertex="1" connectable="0">
          <mxGeometry x="-0.0214" y="3" relative="1" as="geometry">
            <mxPoint y="1" as="offset" />
          </mxGeometry>
        </mxCell>
        <mxCell id="px_eyudtA328RbWcgJun-29" style="edgeStyle=orthogonalEdgeStyle;rounded=1;orthogonalLoop=1;jettySize=auto;html=1;exitX=1;exitY=0.25;exitDx=0;exitDy=0;startSize=34;strokeColor=#33001A;strokeWidth=2;fontSize=16;" parent="px_eyudtA328RbWcgJun-1" source="px_eyudtA328RbWcgJun-6" edge="1">
          <mxGeometry relative="1" as="geometry">
            <mxPoint x="480" y="513" as="targetPoint" />
          </mxGeometry>
        </mxCell>
        <mxCell id="px_eyudtA328RbWcgJun-30" value="Input3" style="text;html=1;align=center;verticalAlign=middle;resizable=0;points=[];labelBackgroundColor=#ffffff;fontSize=16;" parent="px_eyudtA328RbWcgJun-29" vertex="1" connectable="0">
          <mxGeometry x="0.0309" y="3" relative="1" as="geometry">
            <mxPoint as="offset" />
          </mxGeometry>
        </mxCell>
        <mxCell id="px_eyudtA328RbWcgJun-31" style="edgeStyle=orthogonalEdgeStyle;rounded=1;orthogonalLoop=1;jettySize=auto;html=1;exitX=1;exitY=0.25;exitDx=0;exitDy=0;startSize=34;strokeColor=#33001A;strokeWidth=2;fontSize=16;" parent="px_eyudtA328RbWcgJun-1" source="px_eyudtA328RbWcgJun-7" edge="1">
          <mxGeometry relative="1" as="geometry">
            <mxPoint x="480" y="603" as="targetPoint" />
          </mxGeometry>
        </mxCell>
        <mxCell id="px_eyudtA328RbWcgJun-32" value="Input4" style="text;html=1;align=center;verticalAlign=middle;resizable=0;points=[];labelBackgroundColor=#ffffff;fontSize=16;" parent="px_eyudtA328RbWcgJun-31" vertex="1" connectable="0">
          <mxGeometry x="0.0214" y="3" relative="1" as="geometry">
            <mxPoint as="offset" />
          </mxGeometry>
        </mxCell>
        <mxCell id="px_eyudtA328RbWcgJun-39" value="Picasso预计算单元" style="swimlane;rounded=1;shadow=0;labelBackgroundColor=#D5E8D4;strokeColor=#D5E8D4;strokeWidth=2;fillColor=#D5E8D4;fontSize=16;startSize=42;" parent="px_eyudtA328RbWcgJun-1" vertex="1">
          <mxGeometry x="714" y="241" width="410" height="430" as="geometry" />
        </mxCell>
        <mxCell id="px_eyudtA328RbWcgJun-40" value="预计算单元1" style="shape=ext;double=1;rounded=1;whiteSpace=wrap;html=1;shadow=0;labelBackgroundColor=#D5E8D4;strokeColor=none;strokeWidth=2;fillColor=#D5E8D4;gradientColor=none;fontSize=16;" parent="px_eyudtA328RbWcgJun-39" vertex="1">
          <mxGeometry x="40" y="70" width="120" height="50" as="geometry" />
        </mxCell>
        <mxCell id="px_eyudtA328RbWcgJun-41" value="预计算单元2" style="shape=ext;double=1;rounded=1;whiteSpace=wrap;html=1;shadow=0;labelBackgroundColor=#D5E8D4;strokeColor=none;strokeWidth=2;fillColor=#D5E8D4;gradientColor=none;fontSize=16;" parent="px_eyudtA328RbWcgJun-39" vertex="1">
          <mxGeometry x="40" y="160" width="120" height="50" as="geometry" />
        </mxCell>
        <mxCell id="px_eyudtA328RbWcgJun-42" value="预计算单元3" style="shape=ext;double=1;rounded=1;whiteSpace=wrap;html=1;shadow=0;labelBackgroundColor=#D5E8D4;strokeColor=none;strokeWidth=2;fillColor=#D5E8D4;gradientColor=none;fontSize=16;" parent="px_eyudtA328RbWcgJun-39" vertex="1">
          <mxGeometry x="40" y="260" width="120" height="50" as="geometry" />
        </mxCell>
        <mxCell id="px_eyudtA328RbWcgJun-43" value="预计算单元4" style="shape=ext;double=1;rounded=1;whiteSpace=wrap;html=1;shadow=0;labelBackgroundColor=#D5E8D4;strokeColor=none;strokeWidth=2;fillColor=#D5E8D4;gradientColor=none;fontSize=16;" parent="px_eyudtA328RbWcgJun-39" vertex="1">
          <mxGeometry x="40" y="350" width="120" height="50" as="geometry" />
        </mxCell>
        <mxCell id="px_eyudtA328RbWcgJun-61" value="&lt;span style=&quot;background-color: rgb(218 , 232 , 252)&quot;&gt;VCInput数组&lt;/span&gt;" style="ellipse;whiteSpace=wrap;html=1;aspect=fixed;rounded=1;shadow=0;labelBackgroundColor=#E1D5E7;strokeColor=#DAE8FC;strokeWidth=2;fillColor=#dae8fc;fontSize=16;" parent="px_eyudtA328RbWcgJun-39" vertex="1">
          <mxGeometry x="280" y="45.5" width="99" height="99" as="geometry" />
        </mxCell>
        <mxCell id="px_eyudtA328RbWcgJun-62" value="&lt;span style=&quot;background-color: rgb(218 , 232 , 252)&quot;&gt;PModel数组&lt;/span&gt;" style="ellipse;whiteSpace=wrap;html=1;aspect=fixed;rounded=1;shadow=0;labelBackgroundColor=#E1D5E7;strokeColor=#DAE8FC;strokeWidth=2;fillColor=#dae8fc;fontSize=16;" parent="px_eyudtA328RbWcgJun-39" vertex="1">
          <mxGeometry x="280" y="279" width="99" height="99" as="geometry" />
        </mxCell>
        <mxCell id="px_eyudtA328RbWcgJun-66" value="" style="endArrow=classic;html=1;strokeColor=#33001A;strokeWidth=2;fontSize=16;entryX=0;entryY=0.5;entryDx=0;entryDy=0;" parent="px_eyudtA328RbWcgJun-39" target="px_eyudtA328RbWcgJun-61" edge="1">
          <mxGeometry width="50" height="50" relative="1" as="geometry">
            <mxPoint x="160" y="95.5" as="sourcePoint" />
            <mxPoint x="210" y="45.5" as="targetPoint" />
          </mxGeometry>
        </mxCell>
        <mxCell id="px_eyudtA328RbWcgJun-67" value="" style="endArrow=classic;html=1;strokeColor=#33001A;strokeWidth=2;fontSize=16;entryX=0;entryY=0.5;entryDx=0;entryDy=0;exitX=1;exitY=0.5;exitDx=0;exitDy=0;" parent="px_eyudtA328RbWcgJun-39" source="px_eyudtA328RbWcgJun-41" target="px_eyudtA328RbWcgJun-61" edge="1">
          <mxGeometry width="50" height="50" relative="1" as="geometry">
            <mxPoint x="180" y="199" as="sourcePoint" />
            <mxPoint x="280" y="184.5" as="targetPoint" />
          </mxGeometry>
        </mxCell>
        <mxCell id="px_eyudtA328RbWcgJun-68" value="" style="endArrow=classic;html=1;strokeColor=#33001A;strokeWidth=2;fontSize=16;entryX=0;entryY=0.5;entryDx=0;entryDy=0;exitX=1;exitY=0.5;exitDx=0;exitDy=0;" parent="px_eyudtA328RbWcgJun-39" source="px_eyudtA328RbWcgJun-42" target="px_eyudtA328RbWcgJun-61" edge="1">
          <mxGeometry width="50" height="50" relative="1" as="geometry">
            <mxPoint x="170" y="299" as="sourcePoint" />
            <mxPoint x="280" y="99" as="targetPoint" />
          </mxGeometry>
        </mxCell>
        <mxCell id="px_eyudtA328RbWcgJun-69" value="" style="endArrow=classic;html=1;strokeColor=#33001A;strokeWidth=2;fontSize=16;exitX=1;exitY=0.5;exitDx=0;exitDy=0;" parent="px_eyudtA328RbWcgJun-39" source="px_eyudtA328RbWcgJun-43" edge="1">
          <mxGeometry width="50" height="50" relative="1" as="geometry">
            <mxPoint x="180" y="378" as="sourcePoint" />
            <mxPoint x="280" y="99" as="targetPoint" />
          </mxGeometry>
        </mxCell>
        <mxCell id="px_eyudtA328RbWcgJun-75" value="" style="endArrow=classic;html=1;strokeColor=#33001A;strokeWidth=2;fontSize=16;entryX=1;entryY=0.5;entryDx=0;entryDy=0;" parent="px_eyudtA328RbWcgJun-39" target="px_eyudtA328RbWcgJun-40" edge="1">
          <mxGeometry width="50" height="50" relative="1" as="geometry">
            <mxPoint x="280" y="326.5" as="sourcePoint" />
            <mxPoint x="262" y="219" as="targetPoint" />
          </mxGeometry>
        </mxCell>
        <mxCell id="px_eyudtA328RbWcgJun-76" value="" style="endArrow=classic;html=1;strokeColor=#33001A;strokeWidth=2;fontSize=16;entryX=1;entryY=0.5;entryDx=0;entryDy=0;exitX=0;exitY=0.5;exitDx=0;exitDy=0;" parent="px_eyudtA328RbWcgJun-39" source="px_eyudtA328RbWcgJun-62" target="px_eyudtA328RbWcgJun-41" edge="1">
          <mxGeometry width="50" height="50" relative="1" as="geometry">
            <mxPoint x="296" y="450.5" as="sourcePoint" />
            <mxPoint x="176" y="219" as="targetPoint" />
          </mxGeometry>
        </mxCell>
        <mxCell id="px_eyudtA328RbWcgJun-77" value="" style="endArrow=classic;html=1;strokeColor=#33001A;strokeWidth=2;fontSize=16;exitX=0;exitY=0.5;exitDx=0;exitDy=0;" parent="px_eyudtA328RbWcgJun-39" source="px_eyudtA328RbWcgJun-62" edge="1">
          <mxGeometry width="50" height="50" relative="1" as="geometry">
            <mxPoint x="280" y="422.5" as="sourcePoint" />
            <mxPoint x="160" y="289" as="targetPoint" />
          </mxGeometry>
        </mxCell>
        <mxCell id="px_eyudtA328RbWcgJun-78" value="" style="endArrow=classic;html=1;strokeColor=#33001A;strokeWidth=2;fontSize=16;exitX=0;exitY=0.5;exitDx=0;exitDy=0;entryX=1;entryY=0.5;entryDx=0;entryDy=0;" parent="px_eyudtA328RbWcgJun-39" source="px_eyudtA328RbWcgJun-62" target="px_eyudtA328RbWcgJun-43" edge="1">
          <mxGeometry width="50" height="50" relative="1" as="geometry">
            <mxPoint x="280" y="359.5" as="sourcePoint" />
            <mxPoint x="160" y="320" as="targetPoint" />
          </mxGeometry>
        </mxCell>
        <mxCell id="px_eyudtA328RbWcgJun-72" style="edgeStyle=orthogonalEdgeStyle;rounded=1;orthogonalLoop=1;jettySize=auto;html=1;entryX=1;entryY=0.5;entryDx=0;entryDy=0;startSize=34;strokeColor=#33001A;strokeWidth=2;fontSize=16;" parent="px_eyudtA328RbWcgJun-1" target="px_eyudtA328RbWcgJun-62" edge="1">
          <mxGeometry relative="1" as="geometry">
            <mxPoint x="1440" y="570" as="sourcePoint" />
          </mxGeometry>
        </mxCell>
        <mxCell id="px_eyudtA328RbWcgJun-73" value="[PModel1,PModel2,PModle3,PModel4]" style="text;html=1;align=center;verticalAlign=middle;resizable=0;points=[];labelBackgroundColor=#ffffff;fontSize=16;" parent="px_eyudtA328RbWcgJun-72" vertex="1" connectable="0">
          <mxGeometry x="0.0018" y="-13" relative="1" as="geometry">
            <mxPoint x="13" y="13" as="offset" />
          </mxGeometry>
        </mxCell>
        <mxCell id="px_eyudtA328RbWcgJun-52" value="JSCore" style="swimlane;rounded=1;shadow=0;labelBackgroundColor=#E1D5E7;strokeColor=#E1D5E7;strokeWidth=2;fillColor=#e1d5e7;fontSize=16;startSize=42;" parent="px_eyudtA328RbWcgJun-1" vertex="1">
          <mxGeometry x="1439" y="239" width="100" height="429" as="geometry" />
        </mxCell>
        <mxCell id="px_eyudtA328RbWcgJun-70" style="edgeStyle=orthogonalEdgeStyle;rounded=1;orthogonalLoop=1;jettySize=auto;html=1;exitX=1;exitY=0.5;exitDx=0;exitDy=0;startSize=34;strokeColor=#33001A;strokeWidth=2;fontSize=16;" parent="px_eyudtA328RbWcgJun-1" source="px_eyudtA328RbWcgJun-61" edge="1">
          <mxGeometry relative="1" as="geometry">
            <mxPoint x="1440" y="336" as="targetPoint" />
          </mxGeometry>
        </mxCell>
        <mxCell id="px_eyudtA328RbWcgJun-71" value="[Input1,Input2,Input3,Input4]" style="text;html=1;align=center;verticalAlign=middle;resizable=0;points=[];labelBackgroundColor=#ffffff;fontSize=16;" parent="px_eyudtA328RbWcgJun-70" vertex="1" connectable="0">
          <mxGeometry x="0.0124" y="3" relative="1" as="geometry">
            <mxPoint as="offset" />
          </mxGeometry>
        </mxCell>
        <mxCell id="px_eyudtA328RbWcgJun-74" value="&lt;span style=&quot;background-color: rgb(255 , 0 , 0)&quot;&gt;优化后&lt;/span&gt;" style="shape=singleArrow;whiteSpace=wrap;html=1;rounded=1;shadow=0;labelBackgroundColor=#E1D5E7;strokeColor=#FF0000;strokeWidth=2;fillColor=#FF0000;fontSize=16;fontColor=#ffffff;" parent="px_eyudtA328RbWcgJun-1" vertex="1">
          <mxGeometry x="590" y="421" width="110" height="66" as="geometry" />
        </mxCell>
      </root>
    </mxGraphModel>
  </diagram>
  <diagram name="第 10 页" id="b0GFUQDq68WkfARuPtoO">
    <mxGraphModel dx="1426" dy="794" grid="0" gridSize="10" guides="1" tooltips="1" connect="1" arrows="1" fold="1" page="1" pageScale="1" pageWidth="1920" pageHeight="1200" math="0" shadow="0">
      <root>
        <mxCell id="Tp9mn2wXFyF9f_mCfDdc-0" />
        <mxCell id="Tp9mn2wXFyF9f_mCfDdc-1" parent="Tp9mn2wXFyF9f_mCfDdc-0" />
        <mxCell id="Tp9mn2wXFyF9f_mCfDdc-3" value="业务注册表A" style="swimlane;rounded=1;shadow=0;labelBackgroundColor=#D5E8D4;strokeColor=#D5E8D4;strokeWidth=2;fillColor=#d5e8d4;fontSize=16;" parent="Tp9mn2wXFyF9f_mCfDdc-1" vertex="1">
          <mxGeometry x="227" y="504" width="190" height="190" as="geometry" />
        </mxCell>
        <mxCell id="Tp9mn2wXFyF9f_mCfDdc-30" value="模块Key--&amp;gt;模块Class" style="text;html=1;align=center;verticalAlign=middle;resizable=0;points=[];autosize=1;fontSize=16;" parent="Tp9mn2wXFyF9f_mCfDdc-3" vertex="1">
          <mxGeometry x="10" y="40" width="170" height="20" as="geometry" />
        </mxCell>
        <mxCell id="Tp9mn2wXFyF9f_mCfDdc-31" value="模块Key--&amp;gt;模块Class" style="text;html=1;align=center;verticalAlign=middle;resizable=0;points=[];autosize=1;fontSize=16;" parent="Tp9mn2wXFyF9f_mCfDdc-3" vertex="1">
          <mxGeometry x="10" y="70" width="170" height="20" as="geometry" />
        </mxCell>
        <mxCell id="Tp9mn2wXFyF9f_mCfDdc-35" value="模块Key--&amp;gt;模块Class" style="text;html=1;align=center;verticalAlign=middle;resizable=0;points=[];autosize=1;fontSize=16;" parent="Tp9mn2wXFyF9f_mCfDdc-3" vertex="1">
          <mxGeometry x="10" y="100" width="170" height="20" as="geometry" />
        </mxCell>
        <mxCell id="Tp9mn2wXFyF9f_mCfDdc-40" value="模块Key--&amp;gt;模块Class" style="text;html=1;align=center;verticalAlign=middle;resizable=0;points=[];autosize=1;fontSize=16;" parent="Tp9mn2wXFyF9f_mCfDdc-3" vertex="1">
          <mxGeometry x="10" y="130" width="170" height="20" as="geometry" />
        </mxCell>
        <mxCell id="Tp9mn2wXFyF9f_mCfDdc-41" value="......" style="text;html=1;align=center;verticalAlign=middle;resizable=0;points=[];autosize=1;fontSize=16;" parent="Tp9mn2wXFyF9f_mCfDdc-3" vertex="1">
          <mxGeometry x="75" y="160" width="40" height="20" as="geometry" />
        </mxCell>
        <mxCell id="Tp9mn2wXFyF9f_mCfDdc-6" value="模块化框架注册机制" style="ellipse;whiteSpace=wrap;html=1;aspect=fixed;rounded=1;shadow=0;labelBackgroundColor=#D5E8D4;strokeColor=#D5E8D4;strokeWidth=2;fillColor=#D5E8D4;gradientColor=none;fontSize=16;" parent="Tp9mn2wXFyF9f_mCfDdc-1" vertex="1">
          <mxGeometry x="682" y="307" width="90" height="90" as="geometry" />
        </mxCell>
        <mxCell id="Tp9mn2wXFyF9f_mCfDdc-10" value="" style="endArrow=classic;html=1;strokeColor=#33001A;strokeWidth=2;fontSize=16;entryX=0.5;entryY=0;entryDx=0;entryDy=0;exitX=0.5;exitY=1;exitDx=0;exitDy=0;" parent="Tp9mn2wXFyF9f_mCfDdc-1" source="Tp9mn2wXFyF9f_mCfDdc-6" target="Tp9mn2wXFyF9f_mCfDdc-3" edge="1">
          <mxGeometry width="50" height="50" relative="1" as="geometry">
            <mxPoint x="637" y="344" as="sourcePoint" />
            <mxPoint x="687" y="294" as="targetPoint" />
          </mxGeometry>
        </mxCell>
        <mxCell id="Tp9mn2wXFyF9f_mCfDdc-13" value="" style="endArrow=classic;html=1;strokeColor=#33001A;strokeWidth=2;fontSize=16;entryX=0.5;entryY=0;entryDx=0;entryDy=0;exitX=0.5;exitY=1;exitDx=0;exitDy=0;" parent="Tp9mn2wXFyF9f_mCfDdc-1" source="Tp9mn2wXFyF9f_mCfDdc-6" target="Tp9mn2wXFyF9f_mCfDdc-48" edge="1">
          <mxGeometry width="50" height="50" relative="1" as="geometry">
            <mxPoint x="837" y="404" as="sourcePoint" />
            <mxPoint x="1017" y="504" as="targetPoint" />
          </mxGeometry>
        </mxCell>
        <mxCell id="Tp9mn2wXFyF9f_mCfDdc-14" value="" style="endArrow=classic;html=1;strokeColor=#33001A;strokeWidth=2;fontSize=16;entryX=0.5;entryY=0;entryDx=0;entryDy=0;exitX=0.5;exitY=1;exitDx=0;exitDy=0;" parent="Tp9mn2wXFyF9f_mCfDdc-1" source="Tp9mn2wXFyF9f_mCfDdc-6" target="Tp9mn2wXFyF9f_mCfDdc-42" edge="1">
          <mxGeometry width="50" height="50" relative="1" as="geometry">
            <mxPoint x="677" y="474" as="sourcePoint" />
            <mxPoint x="712" y="504" as="targetPoint" />
          </mxGeometry>
        </mxCell>
        <mxCell id="Tp9mn2wXFyF9f_mCfDdc-15" value="&lt;span style=&quot;background-color: rgb(225 , 213 , 231)&quot;&gt;Dex1包&lt;/span&gt;" style="shape=ext;double=1;rounded=1;whiteSpace=wrap;html=1;shadow=0;labelBackgroundColor=#D5E8D4;strokeColor=none;strokeWidth=2;fillColor=#e1d5e7;fontSize=16;" parent="Tp9mn2wXFyF9f_mCfDdc-1" vertex="1">
          <mxGeometry x="117" y="824" width="150" height="60" as="geometry" />
        </mxCell>
        <mxCell id="Tp9mn2wXFyF9f_mCfDdc-17" value="&lt;span style=&quot;background-color: rgb(225 , 213 , 231)&quot;&gt;Dex2包&lt;/span&gt;" style="shape=ext;double=1;rounded=1;whiteSpace=wrap;html=1;shadow=0;labelBackgroundColor=#D5E8D4;strokeColor=none;strokeWidth=2;fillColor=#e1d5e7;fontSize=16;" parent="Tp9mn2wXFyF9f_mCfDdc-1" vertex="1">
          <mxGeometry x="297" y="824" width="150" height="60" as="geometry" />
        </mxCell>
        <mxCell id="Tp9mn2wXFyF9f_mCfDdc-18" value="&lt;span style=&quot;background-color: rgb(225 , 213 , 231)&quot;&gt;Dex3包&lt;/span&gt;" style="shape=ext;double=1;rounded=1;whiteSpace=wrap;html=1;shadow=0;labelBackgroundColor=#D5E8D4;strokeColor=none;strokeWidth=2;fillColor=#e1d5e7;fontSize=16;" parent="Tp9mn2wXFyF9f_mCfDdc-1" vertex="1">
          <mxGeometry x="477" y="824" width="150" height="60" as="geometry" />
        </mxCell>
        <mxCell id="Tp9mn2wXFyF9f_mCfDdc-19" value="&lt;span style=&quot;background-color: rgb(255 , 51 , 51)&quot;&gt;Picasso Dex4包&lt;/span&gt;" style="shape=ext;double=1;rounded=1;whiteSpace=wrap;html=1;shadow=0;labelBackgroundColor=#D5E8D4;strokeColor=none;strokeWidth=2;fillColor=#FF3333;fontSize=16;fontColor=#ffffff;" parent="Tp9mn2wXFyF9f_mCfDdc-1" vertex="1">
          <mxGeometry x="822" y="824" width="150" height="60" as="geometry" />
        </mxCell>
        <mxCell id="Tp9mn2wXFyF9f_mCfDdc-20" value="&lt;span style=&quot;background-color: rgb(225 , 213 , 231)&quot;&gt;Dex5包&lt;/span&gt;" style="shape=ext;double=1;rounded=1;whiteSpace=wrap;html=1;shadow=0;labelBackgroundColor=#D5E8D4;strokeColor=none;strokeWidth=2;fillColor=#e1d5e7;fontSize=16;" parent="Tp9mn2wXFyF9f_mCfDdc-1" vertex="1">
          <mxGeometry x="992" y="824" width="150" height="60" as="geometry" />
        </mxCell>
        <mxCell id="Tp9mn2wXFyF9f_mCfDdc-21" value="&lt;span style=&quot;background-color: rgb(225 , 213 , 231)&quot;&gt;Dex5包&lt;/span&gt;" style="shape=ext;double=1;rounded=1;whiteSpace=wrap;html=1;shadow=0;labelBackgroundColor=#D5E8D4;strokeColor=none;strokeWidth=2;fillColor=#e1d5e7;fontSize=16;" parent="Tp9mn2wXFyF9f_mCfDdc-1" vertex="1">
          <mxGeometry x="1167" y="824" width="150" height="60" as="geometry" />
        </mxCell>
        <mxCell id="Tp9mn2wXFyF9f_mCfDdc-22" value="&lt;span style=&quot;background-color: rgb(225 , 213 , 231)&quot;&gt;...&lt;/span&gt;" style="shape=ext;double=1;rounded=1;whiteSpace=wrap;html=1;shadow=0;labelBackgroundColor=#D5E8D4;strokeColor=none;strokeWidth=2;fillColor=#e1d5e7;fontSize=16;" parent="Tp9mn2wXFyF9f_mCfDdc-1" vertex="1">
          <mxGeometry x="652" y="824" width="150" height="60" as="geometry" />
        </mxCell>
        <mxCell id="Tp9mn2wXFyF9f_mCfDdc-26" value="" style="endArrow=classic;html=1;strokeColor=#33001A;strokeWidth=2;fontSize=16;entryX=0.5;entryY=0;entryDx=0;entryDy=0;exitX=0.5;exitY=1;exitDx=0;exitDy=0;" parent="Tp9mn2wXFyF9f_mCfDdc-1" source="Tp9mn2wXFyF9f_mCfDdc-3" target="Tp9mn2wXFyF9f_mCfDdc-15" edge="1">
          <mxGeometry width="50" height="50" relative="1" as="geometry">
            <mxPoint x="397" y="784" as="sourcePoint" />
            <mxPoint x="447" y="734" as="targetPoint" />
          </mxGeometry>
        </mxCell>
        <mxCell id="Tp9mn2wXFyF9f_mCfDdc-27" value="" style="endArrow=classic;html=1;strokeColor=#33001A;strokeWidth=2;fontSize=16;entryX=0.5;entryY=0;entryDx=0;entryDy=0;exitX=0.5;exitY=1;exitDx=0;exitDy=0;" parent="Tp9mn2wXFyF9f_mCfDdc-1" source="Tp9mn2wXFyF9f_mCfDdc-3" target="Tp9mn2wXFyF9f_mCfDdc-18" edge="1">
          <mxGeometry width="50" height="50" relative="1" as="geometry">
            <mxPoint x="457" y="714" as="sourcePoint" />
            <mxPoint x="227" y="834" as="targetPoint" />
          </mxGeometry>
        </mxCell>
        <mxCell id="Tp9mn2wXFyF9f_mCfDdc-42" value="业务注册表B" style="swimlane;rounded=1;shadow=0;labelBackgroundColor=#D5E8D4;strokeColor=#D5E8D4;strokeWidth=2;fillColor=#d5e8d4;fontSize=16;" parent="Tp9mn2wXFyF9f_mCfDdc-1" vertex="1">
          <mxGeometry x="467" y="504" width="190" height="190" as="geometry" />
        </mxCell>
        <mxCell id="Tp9mn2wXFyF9f_mCfDdc-43" value="模块Key--&amp;gt;模块Class" style="text;html=1;align=center;verticalAlign=middle;resizable=0;points=[];autosize=1;fontSize=16;" parent="Tp9mn2wXFyF9f_mCfDdc-42" vertex="1">
          <mxGeometry x="10" y="40" width="170" height="20" as="geometry" />
        </mxCell>
        <mxCell id="Tp9mn2wXFyF9f_mCfDdc-44" value="模块Key--&amp;gt;模块Class" style="text;html=1;align=center;verticalAlign=middle;resizable=0;points=[];autosize=1;fontSize=16;" parent="Tp9mn2wXFyF9f_mCfDdc-42" vertex="1">
          <mxGeometry x="10" y="70" width="170" height="20" as="geometry" />
        </mxCell>
        <mxCell id="Tp9mn2wXFyF9f_mCfDdc-45" value="模块Key--&amp;gt;模块Class" style="text;html=1;align=center;verticalAlign=middle;resizable=0;points=[];autosize=1;fontSize=16;" parent="Tp9mn2wXFyF9f_mCfDdc-42" vertex="1">
          <mxGeometry x="10" y="100" width="170" height="20" as="geometry" />
        </mxCell>
        <mxCell id="Tp9mn2wXFyF9f_mCfDdc-46" value="模块Key--&amp;gt;模块Class" style="text;html=1;align=center;verticalAlign=middle;resizable=0;points=[];autosize=1;fontSize=16;" parent="Tp9mn2wXFyF9f_mCfDdc-42" vertex="1">
          <mxGeometry x="10" y="130" width="170" height="20" as="geometry" />
        </mxCell>
        <mxCell id="Tp9mn2wXFyF9f_mCfDdc-47" value="......" style="text;html=1;align=center;verticalAlign=middle;resizable=0;points=[];autosize=1;fontSize=16;" parent="Tp9mn2wXFyF9f_mCfDdc-42" vertex="1">
          <mxGeometry x="75" y="160" width="40" height="20" as="geometry" />
        </mxCell>
        <mxCell id="Tp9mn2wXFyF9f_mCfDdc-48" value="业务注册表C" style="swimlane;rounded=1;shadow=0;labelBackgroundColor=#D5E8D4;strokeColor=#D5E8D4;strokeWidth=2;fillColor=#d5e8d4;fontSize=16;" parent="Tp9mn2wXFyF9f_mCfDdc-1" vertex="1">
          <mxGeometry x="802" y="504" width="190" height="190" as="geometry" />
        </mxCell>
        <mxCell id="Tp9mn2wXFyF9f_mCfDdc-49" value="模块Key--&amp;gt;模块Class" style="text;html=1;align=center;verticalAlign=middle;resizable=0;points=[];autosize=1;fontSize=16;" parent="Tp9mn2wXFyF9f_mCfDdc-48" vertex="1">
          <mxGeometry x="10" y="40" width="170" height="20" as="geometry" />
        </mxCell>
        <mxCell id="Tp9mn2wXFyF9f_mCfDdc-50" value="模块Key--&amp;gt;模块Class" style="text;html=1;align=center;verticalAlign=middle;resizable=0;points=[];autosize=1;fontSize=16;" parent="Tp9mn2wXFyF9f_mCfDdc-48" vertex="1">
          <mxGeometry x="10" y="70" width="170" height="20" as="geometry" />
        </mxCell>
        <mxCell id="Tp9mn2wXFyF9f_mCfDdc-51" value="模块Key--&amp;gt;模块Class" style="text;html=1;align=center;verticalAlign=middle;resizable=0;points=[];autosize=1;fontSize=16;" parent="Tp9mn2wXFyF9f_mCfDdc-48" vertex="1">
          <mxGeometry x="10" y="100" width="170" height="20" as="geometry" />
        </mxCell>
        <mxCell id="Tp9mn2wXFyF9f_mCfDdc-52" value="模块Key--&amp;gt;模块Class" style="text;html=1;align=center;verticalAlign=middle;resizable=0;points=[];autosize=1;fontSize=16;" parent="Tp9mn2wXFyF9f_mCfDdc-48" vertex="1">
          <mxGeometry x="10" y="130" width="170" height="20" as="geometry" />
        </mxCell>
        <mxCell id="Tp9mn2wXFyF9f_mCfDdc-53" value="......" style="text;html=1;align=center;verticalAlign=middle;resizable=0;points=[];autosize=1;fontSize=16;" parent="Tp9mn2wXFyF9f_mCfDdc-48" vertex="1">
          <mxGeometry x="75" y="160" width="40" height="20" as="geometry" />
        </mxCell>
        <mxCell id="Tp9mn2wXFyF9f_mCfDdc-54" value="平台注册表D" style="swimlane;rounded=1;shadow=0;labelBackgroundColor=#D5E8D4;strokeColor=#D5E8D4;strokeWidth=2;fillColor=#d5e8d4;fontSize=16;" parent="Tp9mn2wXFyF9f_mCfDdc-1" vertex="1">
          <mxGeometry x="1067" y="504" width="190" height="190" as="geometry" />
        </mxCell>
        <mxCell id="Tp9mn2wXFyF9f_mCfDdc-55" value="模块Key--&amp;gt;模块Class" style="text;html=1;align=center;verticalAlign=middle;resizable=0;points=[];autosize=1;fontSize=16;" parent="Tp9mn2wXFyF9f_mCfDdc-54" vertex="1">
          <mxGeometry x="10" y="40" width="170" height="20" as="geometry" />
        </mxCell>
        <mxCell id="Tp9mn2wXFyF9f_mCfDdc-56" value="模块Key--&amp;gt;模块Class" style="text;html=1;align=center;verticalAlign=middle;resizable=0;points=[];autosize=1;fontSize=16;" parent="Tp9mn2wXFyF9f_mCfDdc-54" vertex="1">
          <mxGeometry x="10" y="70" width="170" height="20" as="geometry" />
        </mxCell>
        <mxCell id="Tp9mn2wXFyF9f_mCfDdc-57" value="模块Key--&amp;gt;模块Class" style="text;html=1;align=center;verticalAlign=middle;resizable=0;points=[];autosize=1;fontSize=16;" parent="Tp9mn2wXFyF9f_mCfDdc-54" vertex="1">
          <mxGeometry x="10" y="100" width="170" height="20" as="geometry" />
        </mxCell>
        <mxCell id="Tp9mn2wXFyF9f_mCfDdc-58" value="模块Key--&amp;gt;模块Class" style="text;html=1;align=center;verticalAlign=middle;resizable=0;points=[];autosize=1;fontSize=16;" parent="Tp9mn2wXFyF9f_mCfDdc-54" vertex="1">
          <mxGeometry x="10" y="130" width="170" height="20" as="geometry" />
        </mxCell>
        <mxCell id="Tp9mn2wXFyF9f_mCfDdc-59" value="......" style="text;html=1;align=center;verticalAlign=middle;resizable=0;points=[];autosize=1;fontSize=16;" parent="Tp9mn2wXFyF9f_mCfDdc-54" vertex="1">
          <mxGeometry x="75" y="160" width="40" height="20" as="geometry" />
        </mxCell>
        <mxCell id="Tp9mn2wXFyF9f_mCfDdc-60" value="&lt;font style=&quot;font-size: 36px&quot;&gt;......&lt;/font&gt;" style="text;html=1;align=center;verticalAlign=middle;resizable=0;points=[];autosize=1;fontSize=16;" parent="Tp9mn2wXFyF9f_mCfDdc-1" vertex="1">
          <mxGeometry x="687" y="574" width="80" height="30" as="geometry" />
        </mxCell>
        <mxCell id="Tp9mn2wXFyF9f_mCfDdc-61" value="" style="endArrow=classic;html=1;strokeColor=#33001A;strokeWidth=2;fontSize=16;entryX=0.5;entryY=0;entryDx=0;entryDy=0;exitX=0.5;exitY=1;exitDx=0;exitDy=0;" parent="Tp9mn2wXFyF9f_mCfDdc-1" source="Tp9mn2wXFyF9f_mCfDdc-6" target="Tp9mn2wXFyF9f_mCfDdc-54" edge="1">
          <mxGeometry width="50" height="50" relative="1" as="geometry">
            <mxPoint x="827" y="354" as="sourcePoint" />
            <mxPoint x="997" y="504" as="targetPoint" />
          </mxGeometry>
        </mxCell>
        <mxCell id="Tp9mn2wXFyF9f_mCfDdc-71" value="" style="endArrow=classic;html=1;strokeColor=#33001A;strokeWidth=2;fontSize=16;entryX=0.5;entryY=0;entryDx=0;entryDy=0;exitX=0.5;exitY=1;exitDx=0;exitDy=0;" parent="Tp9mn2wXFyF9f_mCfDdc-1" source="Tp9mn2wXFyF9f_mCfDdc-42" edge="1">
          <mxGeometry width="50" height="50" relative="1" as="geometry">
            <mxPoint x="497" y="694" as="sourcePoint" />
            <mxPoint x="367" y="824" as="targetPoint" />
          </mxGeometry>
        </mxCell>
        <mxCell id="Tp9mn2wXFyF9f_mCfDdc-72" value="" style="endArrow=classic;html=1;strokeColor=#33001A;strokeWidth=2;fontSize=16;entryX=0.5;entryY=0;entryDx=0;entryDy=0;" parent="Tp9mn2wXFyF9f_mCfDdc-1" target="Tp9mn2wXFyF9f_mCfDdc-22" edge="1">
          <mxGeometry width="50" height="50" relative="1" as="geometry">
            <mxPoint x="557" y="694" as="sourcePoint" />
            <mxPoint x="787" y="824" as="targetPoint" />
            <Array as="points" />
          </mxGeometry>
        </mxCell>
        <mxCell id="Tp9mn2wXFyF9f_mCfDdc-73" value="" style="endArrow=classic;html=1;strokeColor=#33001A;strokeWidth=2;fontSize=16;entryX=0.5;entryY=0;entryDx=0;entryDy=0;" parent="Tp9mn2wXFyF9f_mCfDdc-1" target="Tp9mn2wXFyF9f_mCfDdc-18" edge="1">
          <mxGeometry width="50" height="50" relative="1" as="geometry">
            <mxPoint x="557" y="694" as="sourcePoint" />
            <mxPoint x="717" y="844" as="targetPoint" />
            <Array as="points" />
          </mxGeometry>
        </mxCell>
        <mxCell id="Tp9mn2wXFyF9f_mCfDdc-74" value="" style="endArrow=classic;html=1;strokeColor=#33001A;strokeWidth=2;fontSize=16;entryX=0.5;entryY=0;entryDx=0;entryDy=0;" parent="Tp9mn2wXFyF9f_mCfDdc-1" target="Tp9mn2wXFyF9f_mCfDdc-19" edge="1">
          <mxGeometry width="50" height="50" relative="1" as="geometry">
            <mxPoint x="897" y="694" as="sourcePoint" />
            <mxPoint x="1067" y="824" as="targetPoint" />
            <Array as="points" />
          </mxGeometry>
        </mxCell>
        <mxCell id="Tp9mn2wXFyF9f_mCfDdc-76" value="" style="endArrow=classic;html=1;strokeColor=#33001A;strokeWidth=2;fontSize=16;entryX=0.433;entryY=0;entryDx=0;entryDy=0;entryPerimeter=0;" parent="Tp9mn2wXFyF9f_mCfDdc-1" target="Tp9mn2wXFyF9f_mCfDdc-22" edge="1">
          <mxGeometry width="50" height="50" relative="1" as="geometry">
            <mxPoint x="1167" y="694" as="sourcePoint" />
            <mxPoint x="1352" y="824" as="targetPoint" />
            <Array as="points" />
          </mxGeometry>
        </mxCell>
        <mxCell id="Tp9mn2wXFyF9f_mCfDdc-78" value="" style="endArrow=classic;html=1;strokeColor=#33001A;strokeWidth=2;fontSize=16;entryX=0.5;entryY=0;entryDx=0;entryDy=0;exitX=0.5;exitY=1;exitDx=0;exitDy=0;" parent="Tp9mn2wXFyF9f_mCfDdc-1" source="Tp9mn2wXFyF9f_mCfDdc-54" target="Tp9mn2wXFyF9f_mCfDdc-21" edge="1">
          <mxGeometry width="50" height="50" relative="1" as="geometry">
            <mxPoint x="1172" y="704" as="sourcePoint" />
            <mxPoint x="912" y="834" as="targetPoint" />
            <Array as="points" />
          </mxGeometry>
        </mxCell>
        <mxCell id="Tp9mn2wXFyF9f_mCfDdc-79" value="" style="endArrow=classic;html=1;strokeColor=#33001A;strokeWidth=2;fontSize=16;entryX=0.5;entryY=0;entryDx=0;entryDy=0;" parent="Tp9mn2wXFyF9f_mCfDdc-1" target="Tp9mn2wXFyF9f_mCfDdc-20" edge="1">
          <mxGeometry width="50" height="50" relative="1" as="geometry">
            <mxPoint x="1167" y="694" as="sourcePoint" />
            <mxPoint x="1247" y="854" as="targetPoint" />
            <Array as="points" />
          </mxGeometry>
        </mxCell>
        <mxCell id="Tp9mn2wXFyF9f_mCfDdc-85" style="edgeStyle=orthogonalEdgeStyle;rounded=0;orthogonalLoop=1;jettySize=auto;html=1;exitX=0.5;exitY=1;exitDx=0;exitDy=0;entryX=0.5;entryY=0;entryDx=0;entryDy=0;startSize=34;strokeColor=#33001A;strokeWidth=2;fontSize=19;" parent="Tp9mn2wXFyF9f_mCfDdc-1" source="Tp9mn2wXFyF9f_mCfDdc-81" target="Tp9mn2wXFyF9f_mCfDdc-84" edge="1">
          <mxGeometry relative="1" as="geometry" />
        </mxCell>
        <mxCell id="Tp9mn2wXFyF9f_mCfDdc-81" value="远程下发模块Key" style="shape=ext;double=1;rounded=1;whiteSpace=wrap;html=1;shadow=0;labelBackgroundColor=#D5E8D4;strokeColor=none;strokeWidth=2;fillColor=#D5E8D4;fontSize=16;" parent="Tp9mn2wXFyF9f_mCfDdc-1" vertex="1">
          <mxGeometry x="652" y="17" width="150" height="60" as="geometry" />
        </mxCell>
        <mxCell id="Tp9mn2wXFyF9f_mCfDdc-86" style="edgeStyle=orthogonalEdgeStyle;rounded=0;orthogonalLoop=1;jettySize=auto;html=1;exitX=0.5;exitY=1;exitDx=0;exitDy=0;entryX=0.5;entryY=0;entryDx=0;entryDy=0;startSize=34;strokeColor=#33001A;strokeWidth=2;fontSize=19;" parent="Tp9mn2wXFyF9f_mCfDdc-1" source="Tp9mn2wXFyF9f_mCfDdc-84" target="Tp9mn2wXFyF9f_mCfDdc-6" edge="1">
          <mxGeometry relative="1" as="geometry" />
        </mxCell>
        <mxCell id="Tp9mn2wXFyF9f_mCfDdc-87" value="N" style="text;html=1;align=center;verticalAlign=middle;resizable=0;points=[];labelBackgroundColor=#ffffff;fontSize=19;" parent="Tp9mn2wXFyF9f_mCfDdc-86" vertex="1" connectable="0">
          <mxGeometry x="-0.24" y="-2" relative="1" as="geometry">
            <mxPoint as="offset" />
          </mxGeometry>
        </mxCell>
        <mxCell id="Tp9mn2wXFyF9f_mCfDdc-88" style="edgeStyle=orthogonalEdgeStyle;orthogonalLoop=1;jettySize=auto;html=1;exitX=1;exitY=0.5;exitDx=0;exitDy=0;startSize=34;strokeColor=#FF0000;strokeWidth=5;fontSize=19;curved=1;" parent="Tp9mn2wXFyF9f_mCfDdc-1" source="Tp9mn2wXFyF9f_mCfDdc-84" edge="1">
          <mxGeometry relative="1" as="geometry">
            <mxPoint x="949" y="817" as="targetPoint" />
            <Array as="points">
              <mxPoint x="1019" y="187" />
              <mxPoint x="1019" y="817" />
            </Array>
          </mxGeometry>
        </mxCell>
        <mxCell id="Tp9mn2wXFyF9f_mCfDdc-91" value="Y" style="text;html=1;align=center;verticalAlign=middle;resizable=0;points=[];labelBackgroundColor=#ffffff;fontSize=19;" parent="Tp9mn2wXFyF9f_mCfDdc-88" vertex="1" connectable="0">
          <mxGeometry x="-0.7839" y="-31" relative="1" as="geometry">
            <mxPoint as="offset" />
          </mxGeometry>
        </mxCell>
        <mxCell id="Tp9mn2wXFyF9f_mCfDdc-84" value="&lt;span style=&quot;background-color: rgb(255 , 230 , 204)&quot;&gt;是否是Picasso模块&lt;/span&gt;" style="rhombus;whiteSpace=wrap;html=1;rounded=1;shadow=0;labelBackgroundColor=#D5E8D4;strokeColor=none;strokeWidth=2;fillColor=#ffe6cc;fontSize=19;" parent="Tp9mn2wXFyF9f_mCfDdc-1" vertex="1">
          <mxGeometry x="611.75" y="117" width="230.5" height="140" as="geometry" />
        </mxCell>
      </root>
    </mxGraphModel>
  </diagram>
  <diagram name="第 11 页" id="z201SnzA3GA0oC4fDIs5">
    <mxGraphModel dx="1426" dy="794" grid="0" gridSize="10" guides="1" tooltips="1" connect="1" arrows="1" fold="1" page="1" pageScale="1" pageWidth="1920" pageHeight="1200" math="0" shadow="0">
      <root>
        <mxCell id="UKojgTplrIUgNiPrVeti-0" />
        <mxCell id="UKojgTplrIUgNiPrVeti-1" parent="UKojgTplrIUgNiPrVeti-0" />
        <mxCell id="eFoEnUo8FqLjzDfQA_FG-0" value="页面JS 信息查询" style="rounded=0;whiteSpace=wrap;html=1;shadow=0;strokeColor=none;strokeWidth=2;fillColor=#FF6666;fontSize=16;fontColor=#ffffff;" parent="UKojgTplrIUgNiPrVeti-1" vertex="1">
          <mxGeometry x="707" y="226" width="170" height="30" as="geometry" />
        </mxCell>
        <mxCell id="eFoEnUo8FqLjzDfQA_FG-1" value="" style="endArrow=classic;html=1;strokeColor=#33001A;strokeWidth=2;fontSize=16;entryX=0.04;entryY=0.6;entryDx=0;entryDy=0;entryPerimeter=0;" parent="UKojgTplrIUgNiPrVeti-1" target="eFoEnUo8FqLjzDfQA_FG-48" edge="1">
          <mxGeometry width="50" height="50" relative="1" as="geometry">
            <mxPoint x="707" y="490" as="sourcePoint" />
            <mxPoint x="1727" y="490" as="targetPoint" />
          </mxGeometry>
        </mxCell>
        <mxCell id="eFoEnUo8FqLjzDfQA_FG-11" value="&lt;font color=&quot;#ffffff&quot;&gt;页面JS 下载&lt;/font&gt;" style="rounded=0;whiteSpace=wrap;html=1;shadow=0;strokeColor=none;strokeWidth=2;fillColor=#97D077;fontSize=16;" parent="UKojgTplrIUgNiPrVeti-1" vertex="1">
          <mxGeometry x="877" y="226" width="170" height="30" as="geometry" />
        </mxCell>
        <mxCell id="eFoEnUo8FqLjzDfQA_FG-12" value="模块1 JS 信息查询" style="rounded=0;whiteSpace=wrap;html=1;shadow=0;strokeColor=none;strokeWidth=2;fillColor=#FF6666;fontSize=16;fontColor=#ffffff;" parent="UKojgTplrIUgNiPrVeti-1" vertex="1">
          <mxGeometry x="1087" y="266" width="170" height="30" as="geometry" />
        </mxCell>
        <mxCell id="eFoEnUo8FqLjzDfQA_FG-13" value="&lt;font color=&quot;#ffffff&quot;&gt;模块1 JS 下载&lt;/font&gt;" style="rounded=0;whiteSpace=wrap;html=1;shadow=0;strokeColor=none;strokeWidth=2;fillColor=#97D077;fontSize=16;" parent="UKojgTplrIUgNiPrVeti-1" vertex="1">
          <mxGeometry x="1257" y="266" width="170" height="30" as="geometry" />
        </mxCell>
        <mxCell id="eFoEnUo8FqLjzDfQA_FG-14" value="模块2 JS 信息查询" style="rounded=0;whiteSpace=wrap;html=1;shadow=0;strokeColor=none;strokeWidth=2;fillColor=#FF6666;fontSize=16;fontColor=#ffffff;" parent="UKojgTplrIUgNiPrVeti-1" vertex="1">
          <mxGeometry x="1117" y="306" width="170" height="30" as="geometry" />
        </mxCell>
        <mxCell id="eFoEnUo8FqLjzDfQA_FG-15" value="&lt;font color=&quot;#ffffff&quot;&gt;模块2 JS 下载&lt;/font&gt;" style="rounded=0;whiteSpace=wrap;html=1;shadow=0;strokeColor=none;strokeWidth=2;fillColor=#97D077;fontSize=16;" parent="UKojgTplrIUgNiPrVeti-1" vertex="1">
          <mxGeometry x="1287" y="306" width="170" height="30" as="geometry" />
        </mxCell>
        <mxCell id="eFoEnUo8FqLjzDfQA_FG-18" value="......" style="rounded=0;whiteSpace=wrap;html=1;shadow=0;strokeColor=none;strokeWidth=2;fillColor=#FF6666;fontSize=16;fontColor=#ffffff;" parent="UKojgTplrIUgNiPrVeti-1" vertex="1">
          <mxGeometry x="1157" y="346" width="170" height="30" as="geometry" />
        </mxCell>
        <mxCell id="eFoEnUo8FqLjzDfQA_FG-19" value="&lt;font color=&quot;#ffffff&quot;&gt;......&lt;/font&gt;" style="rounded=0;whiteSpace=wrap;html=1;shadow=0;strokeColor=none;strokeWidth=2;fillColor=#97D077;fontSize=16;" parent="UKojgTplrIUgNiPrVeti-1" vertex="1">
          <mxGeometry x="1327" y="346" width="170" height="30" as="geometry" />
        </mxCell>
        <mxCell id="eFoEnUo8FqLjzDfQA_FG-22" value="模块n JS 信息查询" style="rounded=0;whiteSpace=wrap;html=1;shadow=0;strokeColor=none;strokeWidth=2;fillColor=#FF6666;fontSize=16;fontColor=#ffffff;" parent="UKojgTplrIUgNiPrVeti-1" vertex="1">
          <mxGeometry x="1217" y="436" width="170" height="30" as="geometry" />
        </mxCell>
        <mxCell id="eFoEnUo8FqLjzDfQA_FG-23" value="&lt;font color=&quot;#ffffff&quot;&gt;模块n JS 下载&lt;/font&gt;" style="rounded=0;whiteSpace=wrap;html=1;shadow=0;strokeColor=none;strokeWidth=2;fillColor=#97D077;fontSize=16;" parent="UKojgTplrIUgNiPrVeti-1" vertex="1">
          <mxGeometry x="1387" y="436" width="170" height="30" as="geometry" />
        </mxCell>
        <mxCell id="eFoEnUo8FqLjzDfQA_FG-24" value="&lt;font color=&quot;#ffffff&quot;&gt;模块1 网络请求及渲染&lt;/font&gt;" style="rounded=0;whiteSpace=wrap;html=1;shadow=0;strokeColor=none;strokeWidth=2;fillColor=#FFB366;fontSize=16;" parent="UKojgTplrIUgNiPrVeti-1" vertex="1">
          <mxGeometry x="1427" y="266" width="170" height="30" as="geometry" />
        </mxCell>
        <mxCell id="eFoEnUo8FqLjzDfQA_FG-25" value="&lt;font color=&quot;#ffffff&quot;&gt;模块2 网络请求及渲染&lt;/font&gt;" style="rounded=0;whiteSpace=wrap;html=1;shadow=0;strokeColor=none;strokeWidth=2;fillColor=#FFB366;fontSize=16;" parent="UKojgTplrIUgNiPrVeti-1" vertex="1">
          <mxGeometry x="1452" y="306" width="170" height="30" as="geometry" />
        </mxCell>
        <mxCell id="eFoEnUo8FqLjzDfQA_FG-26" value="&lt;font color=&quot;#ffffff&quot;&gt;......&lt;/font&gt;" style="rounded=0;whiteSpace=wrap;html=1;shadow=0;strokeColor=none;strokeWidth=2;fillColor=#FFB366;fontSize=16;" parent="UKojgTplrIUgNiPrVeti-1" vertex="1">
          <mxGeometry x="1497" y="346" width="170" height="30" as="geometry" />
        </mxCell>
        <mxCell id="eFoEnUo8FqLjzDfQA_FG-28" value="&lt;font color=&quot;#ffffff&quot;&gt;模块n 网络请求及渲染&lt;/font&gt;" style="rounded=0;whiteSpace=wrap;html=1;shadow=0;strokeColor=none;strokeWidth=2;fillColor=#FFB366;fontSize=16;" parent="UKojgTplrIUgNiPrVeti-1" vertex="1">
          <mxGeometry x="1557" y="436" width="170" height="30" as="geometry" />
        </mxCell>
        <mxCell id="eFoEnUo8FqLjzDfQA_FG-29" value="页面模块JS 信息查询" style="rounded=0;whiteSpace=wrap;html=1;shadow=0;strokeColor=none;strokeWidth=2;fillColor=#FF6666;fontSize=16;fontColor=#ffffff;" parent="UKojgTplrIUgNiPrVeti-1" vertex="1">
          <mxGeometry x="707" y="803" width="170" height="30" as="geometry" />
        </mxCell>
        <mxCell id="eFoEnUo8FqLjzDfQA_FG-30" value="" style="endArrow=classic;html=1;strokeColor=#33001A;strokeWidth=2;fontSize=16;entryX=0.02;entryY=0.533;entryDx=0;entryDy=0;entryPerimeter=0;" parent="UKojgTplrIUgNiPrVeti-1" edge="1">
          <mxGeometry width="50" height="50" relative="1" as="geometry">
            <mxPoint x="711" y="1095" as="sourcePoint" />
            <mxPoint x="1771" y="1094.99" as="targetPoint" />
          </mxGeometry>
        </mxCell>
        <mxCell id="eFoEnUo8FqLjzDfQA_FG-31" value="&lt;font color=&quot;#ffffff&quot;&gt;页面模块JS 下载&lt;/font&gt;" style="rounded=0;whiteSpace=wrap;html=1;shadow=0;strokeColor=none;strokeWidth=2;fillColor=#97D077;fontSize=16;" parent="UKojgTplrIUgNiPrVeti-1" vertex="1">
          <mxGeometry x="877" y="803" width="170" height="30" as="geometry" />
        </mxCell>
        <mxCell id="eFoEnUo8FqLjzDfQA_FG-44" value="" style="shape=curlyBracket;whiteSpace=wrap;html=1;rounded=1;shadow=0;labelBackgroundColor=#D5E8D4;strokeColor=#000000;strokeWidth=2;fillColor=#FFB366;fontSize=19;rotation=90;" parent="UKojgTplrIUgNiPrVeti-1" vertex="1">
          <mxGeometry x="866" y="37" width="20" height="338" as="geometry" />
        </mxCell>
        <mxCell id="eFoEnUo8FqLjzDfQA_FG-45" value="" style="shape=curlyBracket;whiteSpace=wrap;html=1;rounded=1;shadow=0;labelBackgroundColor=#D5E8D4;strokeColor=#000000;strokeWidth=2;fillColor=#FFB366;fontSize=19;rotation=90;" parent="UKojgTplrIUgNiPrVeti-1" vertex="1">
          <mxGeometry x="1246" y="72" width="20" height="338" as="geometry" />
        </mxCell>
        <mxCell id="eFoEnUo8FqLjzDfQA_FG-46" value="获取页面JS" style="text;html=1;align=center;verticalAlign=middle;resizable=0;points=[];autosize=1;fontSize=19;" parent="UKojgTplrIUgNiPrVeti-1" vertex="1">
          <mxGeometry x="821" y="158" width="110" height="30" as="geometry" />
        </mxCell>
        <mxCell id="eFoEnUo8FqLjzDfQA_FG-47" value="获取模块JS" style="text;html=1;align=center;verticalAlign=middle;resizable=0;points=[];autosize=1;fontSize=19;" parent="UKojgTplrIUgNiPrVeti-1" vertex="1">
          <mxGeometry x="1201" y="188" width="110" height="30" as="geometry" />
        </mxCell>
        <mxCell id="eFoEnUo8FqLjzDfQA_FG-48" value="time" style="text;html=1;align=center;verticalAlign=middle;resizable=0;points=[];autosize=1;fontSize=19;" parent="UKojgTplrIUgNiPrVeti-1" vertex="1">
          <mxGeometry x="1758" y="472" width="50" height="30" as="geometry" />
        </mxCell>
        <mxCell id="eFoEnUo8FqLjzDfQA_FG-49" value="" style="shape=curlyBracket;whiteSpace=wrap;html=1;rounded=1;shadow=0;labelBackgroundColor=#D5E8D4;strokeColor=#000000;strokeWidth=2;fillColor=#FFB366;fontSize=19;rotation=90;" parent="UKojgTplrIUgNiPrVeti-1" vertex="1">
          <mxGeometry x="866" y="613" width="20" height="338" as="geometry" />
        </mxCell>
        <mxCell id="eFoEnUo8FqLjzDfQA_FG-50" value="获取页面及所有模块JS" style="text;html=1;align=center;verticalAlign=middle;resizable=0;points=[];autosize=1;fontSize=19;" parent="UKojgTplrIUgNiPrVeti-1" vertex="1">
          <mxGeometry x="771" y="734" width="210" height="30" as="geometry" />
        </mxCell>
        <mxCell id="eFoEnUo8FqLjzDfQA_FG-51" value="time" style="text;html=1;align=center;verticalAlign=middle;resizable=0;points=[];autosize=1;fontSize=19;" parent="UKojgTplrIUgNiPrVeti-1" vertex="1">
          <mxGeometry x="1770" y="1078" width="50" height="30" as="geometry" />
        </mxCell>
        <mxCell id="eFoEnUo8FqLjzDfQA_FG-52" value="原始流程" style="text;html=1;align=center;verticalAlign=middle;resizable=0;points=[];autosize=1;fontSize=19;" parent="UKojgTplrIUgNiPrVeti-1" vertex="1">
          <mxGeometry x="700" y="506" width="90" height="30" as="geometry" />
        </mxCell>
        <mxCell id="eFoEnUo8FqLjzDfQA_FG-53" value="import流程" style="text;html=1;align=center;verticalAlign=middle;resizable=0;points=[];autosize=1;fontSize=19;" parent="UKojgTplrIUgNiPrVeti-1" vertex="1">
          <mxGeometry x="701" y="1110" width="110" height="30" as="geometry" />
        </mxCell>
        <mxCell id="eFoEnUo8FqLjzDfQA_FG-75" value="import流程+预下载JSbundle" style="text;html=1;align=center;verticalAlign=middle;resizable=0;points=[];autosize=1;fontSize=19;" parent="UKojgTplrIUgNiPrVeti-1" vertex="1">
          <mxGeometry x="712" y="1726" width="248" height="27" as="geometry" />
        </mxCell>
        <mxCell id="m1l8GbIfIVgUTx6GeWM9-0" value="模块1 JS 信息查询" style="rounded=0;whiteSpace=wrap;html=1;shadow=0;strokeColor=none;strokeWidth=2;fillColor=#FF6666;fontSize=16;fontColor=#ffffff;" parent="UKojgTplrIUgNiPrVeti-1" vertex="1">
          <mxGeometry x="1085" y="860" width="170" height="30" as="geometry" />
        </mxCell>
        <mxCell id="m1l8GbIfIVgUTx6GeWM9-1" value="&lt;font color=&quot;#ffffff&quot;&gt;模块1 JS 下载&lt;/font&gt;" style="rounded=0;whiteSpace=wrap;html=1;shadow=0;strokeColor=none;strokeWidth=2;fillColor=#97D077;fontSize=16;" parent="UKojgTplrIUgNiPrVeti-1" vertex="1">
          <mxGeometry x="1255" y="860" width="170" height="30" as="geometry" />
        </mxCell>
        <mxCell id="m1l8GbIfIVgUTx6GeWM9-2" value="模块2 JS 信息查询" style="rounded=0;whiteSpace=wrap;html=1;shadow=0;strokeColor=none;strokeWidth=2;fillColor=#FF6666;fontSize=16;fontColor=#ffffff;" parent="UKojgTplrIUgNiPrVeti-1" vertex="1">
          <mxGeometry x="1115" y="900" width="170" height="30" as="geometry" />
        </mxCell>
        <mxCell id="m1l8GbIfIVgUTx6GeWM9-3" value="&lt;font color=&quot;#ffffff&quot;&gt;模块2 JS 下载&lt;/font&gt;" style="rounded=0;whiteSpace=wrap;html=1;shadow=0;strokeColor=none;strokeWidth=2;fillColor=#97D077;fontSize=16;" parent="UKojgTplrIUgNiPrVeti-1" vertex="1">
          <mxGeometry x="1285" y="900" width="170" height="30" as="geometry" />
        </mxCell>
        <mxCell id="m1l8GbIfIVgUTx6GeWM9-4" value="......" style="rounded=0;whiteSpace=wrap;html=1;shadow=0;strokeColor=none;strokeWidth=2;fillColor=#FF6666;fontSize=16;fontColor=#ffffff;" parent="UKojgTplrIUgNiPrVeti-1" vertex="1">
          <mxGeometry x="1155" y="940" width="170" height="30" as="geometry" />
        </mxCell>
        <mxCell id="m1l8GbIfIVgUTx6GeWM9-5" value="&lt;font color=&quot;#ffffff&quot;&gt;......&lt;/font&gt;" style="rounded=0;whiteSpace=wrap;html=1;shadow=0;strokeColor=none;strokeWidth=2;fillColor=#97D077;fontSize=16;" parent="UKojgTplrIUgNiPrVeti-1" vertex="1">
          <mxGeometry x="1325" y="940" width="170" height="30" as="geometry" />
        </mxCell>
        <mxCell id="m1l8GbIfIVgUTx6GeWM9-6" value="模块n JS 信息查询" style="rounded=0;whiteSpace=wrap;html=1;shadow=0;strokeColor=none;strokeWidth=2;fillColor=#FF6666;fontSize=16;fontColor=#ffffff;" parent="UKojgTplrIUgNiPrVeti-1" vertex="1">
          <mxGeometry x="1215" y="1030" width="170" height="30" as="geometry" />
        </mxCell>
        <mxCell id="m1l8GbIfIVgUTx6GeWM9-7" value="&lt;font color=&quot;#ffffff&quot;&gt;模块n JS 下载&lt;/font&gt;" style="rounded=0;whiteSpace=wrap;html=1;shadow=0;strokeColor=none;strokeWidth=2;fillColor=#97D077;fontSize=16;" parent="UKojgTplrIUgNiPrVeti-1" vertex="1">
          <mxGeometry x="1385" y="1030" width="170" height="30" as="geometry" />
        </mxCell>
        <mxCell id="m1l8GbIfIVgUTx6GeWM9-8" value="&lt;font color=&quot;#ffffff&quot;&gt;模块1 网络请求及渲染&lt;/font&gt;" style="rounded=0;whiteSpace=wrap;html=1;shadow=0;strokeColor=none;strokeWidth=2;fillColor=#FFB366;fontSize=16;" parent="UKojgTplrIUgNiPrVeti-1" vertex="1">
          <mxGeometry x="1425" y="860" width="170" height="30" as="geometry" />
        </mxCell>
        <mxCell id="m1l8GbIfIVgUTx6GeWM9-9" value="&lt;font color=&quot;#ffffff&quot;&gt;模块2 网络请求及渲染&lt;/font&gt;" style="rounded=0;whiteSpace=wrap;html=1;shadow=0;strokeColor=none;strokeWidth=2;fillColor=#FFB366;fontSize=16;" parent="UKojgTplrIUgNiPrVeti-1" vertex="1">
          <mxGeometry x="1450" y="900" width="170" height="30" as="geometry" />
        </mxCell>
        <mxCell id="m1l8GbIfIVgUTx6GeWM9-10" value="&lt;font color=&quot;#ffffff&quot;&gt;......&lt;/font&gt;" style="rounded=0;whiteSpace=wrap;html=1;shadow=0;strokeColor=none;strokeWidth=2;fillColor=#FFB366;fontSize=16;" parent="UKojgTplrIUgNiPrVeti-1" vertex="1">
          <mxGeometry x="1495" y="940" width="170" height="30" as="geometry" />
        </mxCell>
        <mxCell id="m1l8GbIfIVgUTx6GeWM9-11" value="&lt;font color=&quot;#ffffff&quot;&gt;模块n 网络请求及渲染&lt;/font&gt;" style="rounded=0;whiteSpace=wrap;html=1;shadow=0;strokeColor=none;strokeWidth=2;fillColor=#FFB366;fontSize=16;" parent="UKojgTplrIUgNiPrVeti-1" vertex="1">
          <mxGeometry x="1555" y="1030" width="170" height="30" as="geometry" />
        </mxCell>
        <mxCell id="m1l8GbIfIVgUTx6GeWM9-12" value="" style="shape=curlyBracket;whiteSpace=wrap;html=1;rounded=1;shadow=0;labelBackgroundColor=#D5E8D4;strokeColor=#000000;strokeWidth=2;fillColor=#FFB366;fontSize=19;rotation=90;" parent="UKojgTplrIUgNiPrVeti-1" vertex="1">
          <mxGeometry x="1244" y="666" width="20" height="338" as="geometry" />
        </mxCell>
        <mxCell id="m1l8GbIfIVgUTx6GeWM9-13" value="获取模块JS" style="text;html=1;align=center;verticalAlign=middle;resizable=0;points=[];autosize=1;fontSize=19;" parent="UKojgTplrIUgNiPrVeti-1" vertex="1">
          <mxGeometry x="1199" y="782" width="110" height="30" as="geometry" />
        </mxCell>
        <mxCell id="m1l8GbIfIVgUTx6GeWM9-15" value="" style="shape=umlDestroy;whiteSpace=wrap;html=1;strokeWidth=3;" parent="UKojgTplrIUgNiPrVeti-1" vertex="1">
          <mxGeometry x="1147" y="860" width="30" height="30" as="geometry" />
        </mxCell>
        <mxCell id="m1l8GbIfIVgUTx6GeWM9-16" value="" style="shape=umlDestroy;whiteSpace=wrap;html=1;strokeWidth=3;" parent="UKojgTplrIUgNiPrVeti-1" vertex="1">
          <mxGeometry x="1175" y="784" width="30" height="30" as="geometry" />
        </mxCell>
        <mxCell id="m1l8GbIfIVgUTx6GeWM9-17" value="" style="shape=umlDestroy;whiteSpace=wrap;html=1;strokeWidth=3;" parent="UKojgTplrIUgNiPrVeti-1" vertex="1">
          <mxGeometry x="1330" y="860" width="30" height="30" as="geometry" />
        </mxCell>
        <mxCell id="m1l8GbIfIVgUTx6GeWM9-18" value="" style="shape=umlDestroy;whiteSpace=wrap;html=1;strokeWidth=3;" parent="UKojgTplrIUgNiPrVeti-1" vertex="1">
          <mxGeometry x="1187" y="900" width="30" height="30" as="geometry" />
        </mxCell>
        <mxCell id="m1l8GbIfIVgUTx6GeWM9-19" value="" style="shape=umlDestroy;whiteSpace=wrap;html=1;strokeWidth=3;" parent="UKojgTplrIUgNiPrVeti-1" vertex="1">
          <mxGeometry x="1355" y="900" width="30" height="30" as="geometry" />
        </mxCell>
        <mxCell id="m1l8GbIfIVgUTx6GeWM9-20" value="" style="shape=umlDestroy;whiteSpace=wrap;html=1;strokeWidth=3;" parent="UKojgTplrIUgNiPrVeti-1" vertex="1">
          <mxGeometry x="1225" y="938" width="30" height="30" as="geometry" />
        </mxCell>
        <mxCell id="m1l8GbIfIVgUTx6GeWM9-21" value="" style="shape=umlDestroy;whiteSpace=wrap;html=1;strokeWidth=3;" parent="UKojgTplrIUgNiPrVeti-1" vertex="1">
          <mxGeometry x="1393" y="938" width="30" height="30" as="geometry" />
        </mxCell>
        <mxCell id="m1l8GbIfIVgUTx6GeWM9-22" value="" style="shape=umlDestroy;whiteSpace=wrap;html=1;strokeWidth=3;" parent="UKojgTplrIUgNiPrVeti-1" vertex="1">
          <mxGeometry x="1287" y="1030" width="30" height="30" as="geometry" />
        </mxCell>
        <mxCell id="m1l8GbIfIVgUTx6GeWM9-23" value="" style="shape=umlDestroy;whiteSpace=wrap;html=1;strokeWidth=3;" parent="UKojgTplrIUgNiPrVeti-1" vertex="1">
          <mxGeometry x="1455" y="1030" width="30" height="30" as="geometry" />
        </mxCell>
        <mxCell id="m1l8GbIfIVgUTx6GeWM9-54" value="页面模块JS 信息查询" style="rounded=0;whiteSpace=wrap;html=1;shadow=0;strokeColor=none;strokeWidth=2;fillColor=#FF6666;fontSize=16;fontColor=#ffffff;" parent="UKojgTplrIUgNiPrVeti-1" vertex="1">
          <mxGeometry x="710" y="1417" width="170" height="30" as="geometry" />
        </mxCell>
        <mxCell id="m1l8GbIfIVgUTx6GeWM9-55" value="" style="endArrow=classic;html=1;strokeColor=#33001A;strokeWidth=2;fontSize=16;entryX=0.02;entryY=0.533;entryDx=0;entryDy=0;entryPerimeter=0;" parent="UKojgTplrIUgNiPrVeti-1" edge="1">
          <mxGeometry width="50" height="50" relative="1" as="geometry">
            <mxPoint x="720" y="1709" as="sourcePoint" />
            <mxPoint x="1774" y="1708.9899999999998" as="targetPoint" />
          </mxGeometry>
        </mxCell>
        <mxCell id="m1l8GbIfIVgUTx6GeWM9-56" value="&lt;font color=&quot;#ffffff&quot;&gt;页面模块JS 下载&lt;/font&gt;" style="rounded=0;whiteSpace=wrap;html=1;shadow=0;strokeColor=none;strokeWidth=2;fillColor=#97D077;fontSize=16;" parent="UKojgTplrIUgNiPrVeti-1" vertex="1">
          <mxGeometry x="880" y="1417" width="170" height="30" as="geometry" />
        </mxCell>
        <mxCell id="m1l8GbIfIVgUTx6GeWM9-57" value="" style="shape=curlyBracket;whiteSpace=wrap;html=1;rounded=1;shadow=0;labelBackgroundColor=#D5E8D4;strokeColor=#000000;strokeWidth=2;fillColor=#FFB366;fontSize=19;rotation=90;" parent="UKojgTplrIUgNiPrVeti-1" vertex="1">
          <mxGeometry x="869" y="1227" width="20" height="338" as="geometry" />
        </mxCell>
        <mxCell id="m1l8GbIfIVgUTx6GeWM9-58" value="获取页面及所有模块JS" style="text;html=1;align=center;verticalAlign=middle;resizable=0;points=[];autosize=1;fontSize=19;" parent="UKojgTplrIUgNiPrVeti-1" vertex="1">
          <mxGeometry x="774" y="1348" width="210" height="30" as="geometry" />
        </mxCell>
        <mxCell id="m1l8GbIfIVgUTx6GeWM9-59" value="time" style="text;html=1;align=center;verticalAlign=middle;resizable=0;points=[];autosize=1;fontSize=19;" parent="UKojgTplrIUgNiPrVeti-1" vertex="1">
          <mxGeometry x="1773" y="1692" width="50" height="30" as="geometry" />
        </mxCell>
        <mxCell id="m1l8GbIfIVgUTx6GeWM9-61" value="模块1 JS 信息查询" style="rounded=0;whiteSpace=wrap;html=1;shadow=0;strokeColor=none;strokeWidth=2;fillColor=#FF6666;fontSize=16;fontColor=#ffffff;" parent="UKojgTplrIUgNiPrVeti-1" vertex="1">
          <mxGeometry x="1088" y="1474" width="170" height="30" as="geometry" />
        </mxCell>
        <mxCell id="m1l8GbIfIVgUTx6GeWM9-62" value="&lt;font color=&quot;#ffffff&quot;&gt;模块1 JS 下载&lt;/font&gt;" style="rounded=0;whiteSpace=wrap;html=1;shadow=0;strokeColor=none;strokeWidth=2;fillColor=#97D077;fontSize=16;" parent="UKojgTplrIUgNiPrVeti-1" vertex="1">
          <mxGeometry x="1258" y="1474" width="170" height="30" as="geometry" />
        </mxCell>
        <mxCell id="m1l8GbIfIVgUTx6GeWM9-63" value="模块2 JS 信息查询" style="rounded=0;whiteSpace=wrap;html=1;shadow=0;strokeColor=none;strokeWidth=2;fillColor=#FF6666;fontSize=16;fontColor=#ffffff;" parent="UKojgTplrIUgNiPrVeti-1" vertex="1">
          <mxGeometry x="1118" y="1514" width="170" height="30" as="geometry" />
        </mxCell>
        <mxCell id="m1l8GbIfIVgUTx6GeWM9-64" value="&lt;font color=&quot;#ffffff&quot;&gt;模块2 JS 下载&lt;/font&gt;" style="rounded=0;whiteSpace=wrap;html=1;shadow=0;strokeColor=none;strokeWidth=2;fillColor=#97D077;fontSize=16;" parent="UKojgTplrIUgNiPrVeti-1" vertex="1">
          <mxGeometry x="1288" y="1514" width="170" height="30" as="geometry" />
        </mxCell>
        <mxCell id="m1l8GbIfIVgUTx6GeWM9-65" value="......" style="rounded=0;whiteSpace=wrap;html=1;shadow=0;strokeColor=none;strokeWidth=2;fillColor=#FF6666;fontSize=16;fontColor=#ffffff;" parent="UKojgTplrIUgNiPrVeti-1" vertex="1">
          <mxGeometry x="1158" y="1554" width="170" height="30" as="geometry" />
        </mxCell>
        <mxCell id="m1l8GbIfIVgUTx6GeWM9-66" value="&lt;font color=&quot;#ffffff&quot;&gt;......&lt;/font&gt;" style="rounded=0;whiteSpace=wrap;html=1;shadow=0;strokeColor=none;strokeWidth=2;fillColor=#97D077;fontSize=16;" parent="UKojgTplrIUgNiPrVeti-1" vertex="1">
          <mxGeometry x="1328" y="1554" width="170" height="30" as="geometry" />
        </mxCell>
        <mxCell id="m1l8GbIfIVgUTx6GeWM9-67" value="模块n JS 信息查询" style="rounded=0;whiteSpace=wrap;html=1;shadow=0;strokeColor=none;strokeWidth=2;fillColor=#FF6666;fontSize=16;fontColor=#ffffff;" parent="UKojgTplrIUgNiPrVeti-1" vertex="1">
          <mxGeometry x="1218" y="1644" width="170" height="30" as="geometry" />
        </mxCell>
        <mxCell id="m1l8GbIfIVgUTx6GeWM9-68" value="&lt;font color=&quot;#ffffff&quot;&gt;模块n JS 下载&lt;/font&gt;" style="rounded=0;whiteSpace=wrap;html=1;shadow=0;strokeColor=none;strokeWidth=2;fillColor=#97D077;fontSize=16;" parent="UKojgTplrIUgNiPrVeti-1" vertex="1">
          <mxGeometry x="1388" y="1644" width="170" height="30" as="geometry" />
        </mxCell>
        <mxCell id="m1l8GbIfIVgUTx6GeWM9-69" value="&lt;font color=&quot;#ffffff&quot;&gt;模块1 网络请求及渲染&lt;/font&gt;" style="rounded=0;whiteSpace=wrap;html=1;shadow=0;strokeColor=none;strokeWidth=2;fillColor=#FFB366;fontSize=16;" parent="UKojgTplrIUgNiPrVeti-1" vertex="1">
          <mxGeometry x="1428" y="1474" width="170" height="30" as="geometry" />
        </mxCell>
        <mxCell id="m1l8GbIfIVgUTx6GeWM9-70" value="&lt;font color=&quot;#ffffff&quot;&gt;模块2 网络请求及渲染&lt;/font&gt;" style="rounded=0;whiteSpace=wrap;html=1;shadow=0;strokeColor=none;strokeWidth=2;fillColor=#FFB366;fontSize=16;" parent="UKojgTplrIUgNiPrVeti-1" vertex="1">
          <mxGeometry x="1453" y="1514" width="170" height="30" as="geometry" />
        </mxCell>
        <mxCell id="m1l8GbIfIVgUTx6GeWM9-71" value="&lt;font color=&quot;#ffffff&quot;&gt;......&lt;/font&gt;" style="rounded=0;whiteSpace=wrap;html=1;shadow=0;strokeColor=none;strokeWidth=2;fillColor=#FFB366;fontSize=16;" parent="UKojgTplrIUgNiPrVeti-1" vertex="1">
          <mxGeometry x="1498" y="1554" width="170" height="30" as="geometry" />
        </mxCell>
        <mxCell id="m1l8GbIfIVgUTx6GeWM9-72" value="&lt;font color=&quot;#ffffff&quot;&gt;模块n 网络请求及渲染&lt;/font&gt;" style="rounded=0;whiteSpace=wrap;html=1;shadow=0;strokeColor=none;strokeWidth=2;fillColor=#FFB366;fontSize=16;" parent="UKojgTplrIUgNiPrVeti-1" vertex="1">
          <mxGeometry x="1558" y="1644" width="170" height="30" as="geometry" />
        </mxCell>
        <mxCell id="m1l8GbIfIVgUTx6GeWM9-73" value="" style="shape=curlyBracket;whiteSpace=wrap;html=1;rounded=1;shadow=0;labelBackgroundColor=#D5E8D4;strokeColor=#000000;strokeWidth=2;fillColor=#FFB366;fontSize=19;rotation=90;" parent="UKojgTplrIUgNiPrVeti-1" vertex="1">
          <mxGeometry x="1247" y="1280" width="20" height="338" as="geometry" />
        </mxCell>
        <mxCell id="m1l8GbIfIVgUTx6GeWM9-74" value="获取模块JS" style="text;html=1;align=center;verticalAlign=middle;resizable=0;points=[];autosize=1;fontSize=19;" parent="UKojgTplrIUgNiPrVeti-1" vertex="1">
          <mxGeometry x="1202" y="1396" width="110" height="30" as="geometry" />
        </mxCell>
        <mxCell id="m1l8GbIfIVgUTx6GeWM9-75" value="" style="shape=umlDestroy;whiteSpace=wrap;html=1;strokeWidth=3;" parent="UKojgTplrIUgNiPrVeti-1" vertex="1">
          <mxGeometry x="1150" y="1474" width="30" height="30" as="geometry" />
        </mxCell>
        <mxCell id="m1l8GbIfIVgUTx6GeWM9-76" value="" style="shape=umlDestroy;whiteSpace=wrap;html=1;strokeWidth=3;" parent="UKojgTplrIUgNiPrVeti-1" vertex="1">
          <mxGeometry x="1178" y="1398" width="30" height="30" as="geometry" />
        </mxCell>
        <mxCell id="m1l8GbIfIVgUTx6GeWM9-77" value="" style="shape=umlDestroy;whiteSpace=wrap;html=1;strokeWidth=3;" parent="UKojgTplrIUgNiPrVeti-1" vertex="1">
          <mxGeometry x="1333" y="1474" width="30" height="30" as="geometry" />
        </mxCell>
        <mxCell id="m1l8GbIfIVgUTx6GeWM9-78" value="" style="shape=umlDestroy;whiteSpace=wrap;html=1;strokeWidth=3;" parent="UKojgTplrIUgNiPrVeti-1" vertex="1">
          <mxGeometry x="1190" y="1514" width="30" height="30" as="geometry" />
        </mxCell>
        <mxCell id="m1l8GbIfIVgUTx6GeWM9-79" value="" style="shape=umlDestroy;whiteSpace=wrap;html=1;strokeWidth=3;" parent="UKojgTplrIUgNiPrVeti-1" vertex="1">
          <mxGeometry x="1358" y="1514" width="30" height="30" as="geometry" />
        </mxCell>
        <mxCell id="m1l8GbIfIVgUTx6GeWM9-80" value="" style="shape=umlDestroy;whiteSpace=wrap;html=1;strokeWidth=3;" parent="UKojgTplrIUgNiPrVeti-1" vertex="1">
          <mxGeometry x="1228" y="1552" width="30" height="30" as="geometry" />
        </mxCell>
        <mxCell id="m1l8GbIfIVgUTx6GeWM9-81" value="" style="shape=umlDestroy;whiteSpace=wrap;html=1;strokeWidth=3;" parent="UKojgTplrIUgNiPrVeti-1" vertex="1">
          <mxGeometry x="1396" y="1552" width="30" height="30" as="geometry" />
        </mxCell>
        <mxCell id="m1l8GbIfIVgUTx6GeWM9-82" value="" style="shape=umlDestroy;whiteSpace=wrap;html=1;strokeWidth=3;" parent="UKojgTplrIUgNiPrVeti-1" vertex="1">
          <mxGeometry x="1290" y="1644" width="30" height="30" as="geometry" />
        </mxCell>
        <mxCell id="m1l8GbIfIVgUTx6GeWM9-83" value="" style="shape=umlDestroy;whiteSpace=wrap;html=1;strokeWidth=3;" parent="UKojgTplrIUgNiPrVeti-1" vertex="1">
          <mxGeometry x="1458" y="1644" width="30" height="30" as="geometry" />
        </mxCell>
        <mxCell id="m1l8GbIfIVgUTx6GeWM9-85" value="" style="shape=umlDestroy;whiteSpace=wrap;html=1;strokeWidth=3;" parent="UKojgTplrIUgNiPrVeti-1" vertex="1">
          <mxGeometry x="947" y="1417" width="30" height="30" as="geometry" />
        </mxCell>
      </root>
    </mxGraphModel>
  </diagram>
  <diagram name="第 12 页" id="dRCURyXoaK98zLMNIzIb">
    <mxGraphModel dx="1426" dy="794" grid="0" gridSize="10" guides="1" tooltips="1" connect="1" arrows="1" fold="1" page="1" pageScale="1" pageWidth="1920" pageHeight="1200" math="0" shadow="0">
      <root>
        <mxCell id="5nRgN3aGmtOiaRG4yMA--0" />
        <mxCell id="5nRgN3aGmtOiaRG4yMA--1" parent="5nRgN3aGmtOiaRG4yMA--0" />
        <mxCell id="5LH1n9qHTrRT0wCSN-az-20" style="edgeStyle=orthogonalEdgeStyle;curved=1;orthogonalLoop=1;jettySize=auto;html=1;exitX=1;exitY=0.5;exitDx=0;exitDy=0;entryX=0;entryY=0.5;entryDx=0;entryDy=0;startSize=34;strokeColor=#000000;strokeWidth=2;fontSize=19;" parent="5nRgN3aGmtOiaRG4yMA--1" source="5LH1n9qHTrRT0wCSN-az-5" target="5LH1n9qHTrRT0wCSN-az-11" edge="1">
          <mxGeometry relative="1" as="geometry" />
        </mxCell>
        <mxCell id="5LH1n9qHTrRT0wCSN-az-5" value="脚本遍历到综所有BU业务仓库" style="rounded=1;whiteSpace=wrap;html=1;fontSize=16;fillColor=#d5e8d4;strokeColor=none;" parent="5nRgN3aGmtOiaRG4yMA--1" vertex="1">
          <mxGeometry x="110" y="470" width="150" height="60" as="geometry" />
        </mxCell>
        <mxCell id="5LH1n9qHTrRT0wCSN-az-7" value="自动生成每个仓库需要改动的汇总wiki" style="rounded=1;whiteSpace=wrap;html=1;fontSize=16;fillColor=#d5e8d4;strokeColor=none;" parent="5nRgN3aGmtOiaRG4yMA--1" vertex="1">
          <mxGeometry x="550" y="90" width="170" height="60" as="geometry" />
        </mxCell>
        <mxCell id="5LH1n9qHTrRT0wCSN-az-24" style="edgeStyle=orthogonalEdgeStyle;rounded=1;orthogonalLoop=1;jettySize=auto;html=1;exitX=1;exitY=0.5;exitDx=0;exitDy=0;entryX=0;entryY=0.5;entryDx=0;entryDy=0;startSize=34;strokeColor=#000000;strokeWidth=2;fontSize=19;" parent="5nRgN3aGmtOiaRG4yMA--1" source="5LH1n9qHTrRT0wCSN-az-9" target="5LH1n9qHTrRT0wCSN-az-13" edge="1">
          <mxGeometry relative="1" as="geometry" />
        </mxCell>
        <mxCell id="5LH1n9qHTrRT0wCSN-az-9" value="脚本对使用到shopid的代码块进行替换" style="rounded=1;whiteSpace=wrap;html=1;fontSize=16;fillColor=#d5e8d4;strokeColor=none;" parent="5nRgN3aGmtOiaRG4yMA--1" vertex="1">
          <mxGeometry x="550" y="470" width="170" height="60" as="geometry" />
        </mxCell>
        <mxCell id="5LH1n9qHTrRT0wCSN-az-10" value="涉及shopid改动的所有模块生成统一测试页面" style="rounded=1;whiteSpace=wrap;html=1;fontSize=16;fillColor=#d5e8d4;strokeColor=none;" parent="5nRgN3aGmtOiaRG4yMA--1" vertex="1">
          <mxGeometry x="550" y="280" width="170" height="60" as="geometry" />
        </mxCell>
        <mxCell id="5LH1n9qHTrRT0wCSN-az-21" style="edgeStyle=orthogonalEdgeStyle;curved=1;orthogonalLoop=1;jettySize=auto;html=1;exitX=1;exitY=0.5;exitDx=0;exitDy=0;entryX=0;entryY=0.5;entryDx=0;entryDy=0;startSize=34;strokeColor=#000000;strokeWidth=2;fontSize=19;" parent="5nRgN3aGmtOiaRG4yMA--1" source="5LH1n9qHTrRT0wCSN-az-11" target="5LH1n9qHTrRT0wCSN-az-9" edge="1">
          <mxGeometry relative="1" as="geometry" />
        </mxCell>
        <mxCell id="5LH1n9qHTrRT0wCSN-az-22" style="edgeStyle=orthogonalEdgeStyle;orthogonalLoop=1;jettySize=auto;html=1;exitX=1;exitY=0.5;exitDx=0;exitDy=0;entryX=0;entryY=0.5;entryDx=0;entryDy=0;startSize=34;strokeColor=#000000;strokeWidth=2;fontSize=19;rounded=1;" parent="5nRgN3aGmtOiaRG4yMA--1" source="5LH1n9qHTrRT0wCSN-az-11" target="5LH1n9qHTrRT0wCSN-az-7" edge="1">
          <mxGeometry relative="1" as="geometry" />
        </mxCell>
        <mxCell id="5LH1n9qHTrRT0wCSN-az-23" style="edgeStyle=orthogonalEdgeStyle;orthogonalLoop=1;jettySize=auto;html=1;exitX=1;exitY=0.5;exitDx=0;exitDy=0;entryX=0;entryY=0.5;entryDx=0;entryDy=0;startSize=34;strokeColor=#000000;strokeWidth=2;fontSize=19;rounded=1;" parent="5nRgN3aGmtOiaRG4yMA--1" source="5LH1n9qHTrRT0wCSN-az-11" target="5LH1n9qHTrRT0wCSN-az-10" edge="1">
          <mxGeometry relative="1" as="geometry" />
        </mxCell>
        <mxCell id="5LH1n9qHTrRT0wCSN-az-11" value="扫描所有使用到shopid的模块及代码" style="rounded=1;whiteSpace=wrap;html=1;fontSize=16;fillColor=#d5e8d4;strokeColor=none;" parent="5nRgN3aGmtOiaRG4yMA--1" vertex="1">
          <mxGeometry x="320" y="470" width="160" height="60" as="geometry" />
        </mxCell>
        <mxCell id="5LH1n9qHTrRT0wCSN-az-25" style="edgeStyle=orthogonalEdgeStyle;rounded=1;orthogonalLoop=1;jettySize=auto;html=1;exitX=1;exitY=0.5;exitDx=0;exitDy=0;entryX=0;entryY=0.5;entryDx=0;entryDy=0;startSize=34;strokeColor=#000000;strokeWidth=2;fontSize=19;" parent="5nRgN3aGmtOiaRG4yMA--1" source="5LH1n9qHTrRT0wCSN-az-13" target="5LH1n9qHTrRT0wCSN-az-18" edge="1">
          <mxGeometry relative="1" as="geometry" />
        </mxCell>
        <mxCell id="5LH1n9qHTrRT0wCSN-az-13" value="脚本修改代码&lt;br&gt;开发二次确认" style="rounded=1;whiteSpace=wrap;html=1;fontSize=16;fillColor=#ffe6cc;strokeColor=none;" parent="5nRgN3aGmtOiaRG4yMA--1" vertex="1">
          <mxGeometry x="780" y="410" width="180" height="60" as="geometry" />
        </mxCell>
        <mxCell id="5LH1n9qHTrRT0wCSN-az-31" style="edgeStyle=orthogonalEdgeStyle;curved=1;orthogonalLoop=1;jettySize=auto;html=1;exitX=0.5;exitY=0;exitDx=0;exitDy=0;entryX=1;entryY=0.5;entryDx=0;entryDy=0;startSize=34;strokeColor=#00CC00;strokeWidth=4;fontSize=19;" parent="5nRgN3aGmtOiaRG4yMA--1" source="5LH1n9qHTrRT0wCSN-az-15" target="5LH1n9qHTrRT0wCSN-az-10" edge="1">
          <mxGeometry relative="1" as="geometry" />
        </mxCell>
        <mxCell id="5LH1n9qHTrRT0wCSN-az-32" style="edgeStyle=orthogonalEdgeStyle;curved=1;orthogonalLoop=1;jettySize=auto;html=1;exitX=0.5;exitY=0;exitDx=0;exitDy=0;entryX=1;entryY=0.5;entryDx=0;entryDy=0;startSize=34;strokeColor=#00CC00;strokeWidth=4;fontSize=19;" parent="5nRgN3aGmtOiaRG4yMA--1" source="5LH1n9qHTrRT0wCSN-az-15" target="5LH1n9qHTrRT0wCSN-az-7" edge="1">
          <mxGeometry relative="1" as="geometry" />
        </mxCell>
        <mxCell id="5LH1n9qHTrRT0wCSN-az-15" value="QA测试" style="rounded=1;whiteSpace=wrap;html=1;fontSize=16;fillColor=#e1d5e7;strokeColor=none;" parent="5nRgN3aGmtOiaRG4yMA--1" vertex="1">
          <mxGeometry x="1440" y="470" width="150" height="60" as="geometry" />
        </mxCell>
        <mxCell id="5LH1n9qHTrRT0wCSN-az-29" style="edgeStyle=orthogonalEdgeStyle;orthogonalLoop=1;jettySize=auto;html=1;exitX=0.5;exitY=0;exitDx=0;exitDy=0;entryX=1;entryY=0.5;entryDx=0;entryDy=0;startSize=34;strokeColor=#FF0000;strokeWidth=4;fontSize=19;curved=1;" parent="5nRgN3aGmtOiaRG4yMA--1" source="5LH1n9qHTrRT0wCSN-az-18" target="5LH1n9qHTrRT0wCSN-az-10" edge="1">
          <mxGeometry relative="1" as="geometry" />
        </mxCell>
        <mxCell id="5LH1n9qHTrRT0wCSN-az-30" style="edgeStyle=orthogonalEdgeStyle;curved=1;orthogonalLoop=1;jettySize=auto;html=1;exitX=0.5;exitY=0;exitDx=0;exitDy=0;entryX=1;entryY=0.5;entryDx=0;entryDy=0;startSize=34;strokeColor=#FF0000;strokeWidth=4;fontSize=19;" parent="5nRgN3aGmtOiaRG4yMA--1" source="5LH1n9qHTrRT0wCSN-az-18" target="5LH1n9qHTrRT0wCSN-az-7" edge="1">
          <mxGeometry relative="1" as="geometry" />
        </mxCell>
        <mxCell id="5LH1n9qHTrRT0wCSN-az-40" style="edgeStyle=orthogonalEdgeStyle;curved=1;orthogonalLoop=1;jettySize=auto;html=1;exitX=1;exitY=0.5;exitDx=0;exitDy=0;entryX=0;entryY=0.5;entryDx=0;entryDy=0;startSize=34;strokeColor=#000000;strokeWidth=2;fontSize=19;" parent="5nRgN3aGmtOiaRG4yMA--1" source="5LH1n9qHTrRT0wCSN-az-18" target="5LH1n9qHTrRT0wCSN-az-39" edge="1">
          <mxGeometry relative="1" as="geometry" />
        </mxCell>
        <mxCell id="5LH1n9qHTrRT0wCSN-az-18" value="开发自测" style="rounded=1;whiteSpace=wrap;html=1;fontSize=16;fillColor=#ffe6cc;strokeColor=none;" parent="5nRgN3aGmtOiaRG4yMA--1" vertex="1">
          <mxGeometry x="1020" y="470" width="150" height="60" as="geometry" />
        </mxCell>
        <mxCell id="5LH1n9qHTrRT0wCSN-az-35" value="脚本无法修改&lt;br&gt;开发人工修改" style="rounded=1;whiteSpace=wrap;html=1;fontSize=16;fillColor=#ffe6cc;strokeColor=none;" parent="5nRgN3aGmtOiaRG4yMA--1" vertex="1">
          <mxGeometry x="780" y="530" width="180" height="60" as="geometry" />
        </mxCell>
        <mxCell id="5LH1n9qHTrRT0wCSN-az-37" style="edgeStyle=orthogonalEdgeStyle;rounded=1;orthogonalLoop=1;jettySize=auto;html=1;entryX=0;entryY=0.5;entryDx=0;entryDy=0;startSize=34;strokeColor=#000000;strokeWidth=2;fontSize=19;" parent="5nRgN3aGmtOiaRG4yMA--1" source="5LH1n9qHTrRT0wCSN-az-9" target="5LH1n9qHTrRT0wCSN-az-35" edge="1">
          <mxGeometry relative="1" as="geometry">
            <mxPoint x="730" y="510" as="sourcePoint" />
            <mxPoint x="780" y="430" as="targetPoint" />
          </mxGeometry>
        </mxCell>
        <mxCell id="5LH1n9qHTrRT0wCSN-az-38" style="edgeStyle=orthogonalEdgeStyle;rounded=1;orthogonalLoop=1;jettySize=auto;html=1;exitX=1;exitY=0.5;exitDx=0;exitDy=0;entryX=0;entryY=0.5;entryDx=0;entryDy=0;startSize=34;strokeColor=#000000;strokeWidth=2;fontSize=19;" parent="5nRgN3aGmtOiaRG4yMA--1" source="5LH1n9qHTrRT0wCSN-az-35" target="5LH1n9qHTrRT0wCSN-az-18" edge="1">
          <mxGeometry relative="1" as="geometry">
            <mxPoint x="950" y="579.5" as="sourcePoint" />
            <mxPoint x="1000" y="579.5" as="targetPoint" />
          </mxGeometry>
        </mxCell>
        <mxCell id="5LH1n9qHTrRT0wCSN-az-41" style="edgeStyle=orthogonalEdgeStyle;curved=1;orthogonalLoop=1;jettySize=auto;html=1;exitX=1;exitY=0.5;exitDx=0;exitDy=0;entryX=0;entryY=0.5;entryDx=0;entryDy=0;startSize=34;strokeColor=#000000;strokeWidth=2;fontSize=19;" parent="5nRgN3aGmtOiaRG4yMA--1" source="5LH1n9qHTrRT0wCSN-az-39" target="5LH1n9qHTrRT0wCSN-az-15" edge="1">
          <mxGeometry relative="1" as="geometry" />
        </mxCell>
        <mxCell id="5LH1n9qHTrRT0wCSN-az-39" value="开发提测" style="rounded=1;whiteSpace=wrap;html=1;fontSize=16;fillColor=#ffe6cc;strokeColor=none;" parent="5nRgN3aGmtOiaRG4yMA--1" vertex="1">
          <mxGeometry x="1230" y="470" width="150" height="60" as="geometry" />
        </mxCell>
      </root>
    </mxGraphModel>
  </diagram>
</mxfile>
